<?xml version="1.0" encoding="UTF-8" standalone="no"?>
<!-- Created with Inkscape (http://www.inkscape.org/) -->

<svg
   version="1.1"
   id="svg6198"
   xml:space="preserve"
   width="682.66669"
   height="682.66669"
   viewBox="0 0 682.66669 682.66669"
   xmlns="http://www.w3.org/2000/svg"
   xmlns:svg="http://www.w3.org/2000/svg"><defs
     id="defs6202"><clipPath
       clipPathUnits="userSpaceOnUse"
       id="clipPath6212"><path
         d="M 0,512 H 512 V 0 H 0 Z"
         id="path6210" /></clipPath></defs><g
     id="g6204"
     transform="matrix(1.3333333,0,0,-1.3333333,0,682.66667)"><g
       id="g6206"><g
         id="g6208"
         clip-path="url(#clipPath6212)"><g
           id="g6214"
           transform="translate(429.3984,28.0254)"><path
             d="m 0,0 c -0.103,0 -0.205,0.001 -0.31,0.004 -7.208,0.166 -12.915,6.113 -12.748,13.282 0.742,31.68 -6.871,55.216 -22.626,69.956 -17.434,16.314 -40.84,17.71 -48.293,17.71 -1.481,0 -2.333,-0.056 -2.38,-0.058 -0.373,-0.033 -0.746,-0.048 -1.114,-0.048 -6.713,0 -12.419,5.118 -12.994,11.892 -0.607,7.147 4.725,13.428 11.909,14.032 0.318,0.027 2.01,0.156 4.748,0.156 11.617,0 42.037,-2.334 66.016,-24.769 C 3.59,82.149 13.966,52.046 13.046,12.683 12.88,5.616 7.069,0 0,0"
             style="fill:#a1b2ca;fill-opacity:1;fill-rule:nonzero;stroke:none"
             id="path6216" /></g><g
           id="g6218"
           transform="translate(491.4541,143.9473)"><path
             d="m 0,0 c -3.918,0 -7.791,1.747 -10.362,5.075 -20.171,26.113 -47.52,39.521 -81.286,39.849 -0.42,0.005 -0.84,0.006 -1.256,0.006 -25.136,0 -43.997,-7.329 -44.188,-7.405 -1.58,-0.624 -3.21,-0.92 -4.812,-0.92 -5.195,0 -10.106,3.104 -12.138,8.199 -2.66,6.665 0.616,14.214 7.317,16.858 0.97,0.383 23.751,9.237 53.842,9.237 0.497,0 0.99,-0.002 1.49,-0.006 C -49.788,70.487 -14.609,53.198 10.343,20.896 14.735,15.21 13.661,7.059 7.943,2.689 5.572,0.878 2.774,0 0,0"
             style="fill:#a1b2ca;fill-opacity:1;fill-rule:nonzero;stroke:none"
             id="path6220" /></g><g
           id="g6222"
           transform="translate(335.0166,224.0898)"><path
             d="m 0,0 c -2.41,0 -4.848,0.663 -7.028,2.051 -6.072,3.867 -7.842,11.897 -3.954,17.937 0.578,0.899 14.477,22.192 41.263,37.957 15.01,8.835 35.913,16.94 62.064,16.94 17.183,0 36.633,-3.499 58.168,-12.591 6.637,-2.801 9.734,-10.425 6.917,-17.025 -2.111,-4.946 -6.943,-7.915 -12.024,-7.915 -1.701,0 -3.429,0.333 -5.094,1.036 C 123.581,45.452 107.515,48.982 92.207,48.982 74.993,48.982 58.739,44.52 43.578,35.596 22.42,23.143 11.114,6.152 11.007,5.984 8.514,2.113 4.302,0 0,0"
             style="fill:#a1b2ca;fill-opacity:1;fill-rule:nonzero;stroke:none"
             id="path6224" /></g><g
           id="g6226"
           transform="translate(294.7051,264.8076)"><path
             d="m 0,0 c -1.463,0 -2.95,0.246 -4.406,0.768 -6.77,2.421 -10.3,9.814 -7.887,16.554 0.35,0.976 8.806,24.168 29.874,46.03 17.707,18.376 47.608,39 92.579,39 5.032,0 10.25,-0.258 15.664,-0.807 7.174,-0.728 12.397,-7.1 11.666,-14.233 -0.685,-6.688 -6.357,-11.67 -12.971,-11.67 -0.444,0 -0.89,0.021 -1.339,0.067 -4.464,0.452 -8.841,0.678 -13.119,0.678 -28.722,0 -53.22,-10.169 -72.976,-30.33 C 19.587,28.198 12.36,8.766 12.289,8.57 10.361,3.292 5.343,0 0,0"
             style="fill:#a1b2ca;fill-opacity:1;fill-rule:nonzero;stroke:none"
             id="path6228" /></g><g
           id="g6230"
           transform="translate(82.6016,28.0254)"><path
             d="m 0,0 c 0.103,0 0.205,0.001 0.31,0.004 7.208,0.166 12.915,6.113 12.748,13.282 -0.742,31.68 6.871,55.216 22.626,69.956 17.434,16.314 40.84,17.71 48.293,17.71 1.481,0 2.333,-0.056 2.38,-0.058 0.373,-0.033 0.746,-0.048 1.114,-0.048 6.713,0 12.419,5.118 12.994,11.892 0.607,7.147 -4.725,13.428 -11.909,14.032 -0.318,0.027 -2.01,0.156 -4.748,0.156 -11.617,0 -42.037,-2.334 -66.016,-24.769 C -3.59,82.149 -13.966,52.046 -13.046,12.683 -12.88,5.616 -7.069,0 0,0"
             style="fill:#a1b2ca;fill-opacity:1;fill-rule:nonzero;stroke:none"
             id="path6232" /></g><g
           id="g6234"
           transform="translate(20.5459,143.9473)"><path
             d="m 0,0 c 3.918,0 7.791,1.747 10.362,5.075 20.171,26.113 47.52,39.521 81.286,39.849 0.42,0.005 0.84,0.006 1.256,0.006 25.136,0 43.997,-7.329 44.188,-7.405 1.58,-0.624 3.21,-0.92 4.812,-0.92 5.195,0 10.106,3.104 12.138,8.199 2.66,6.665 -0.616,14.214 -7.317,16.858 -0.97,0.383 -23.751,9.237 -53.842,9.237 -0.497,0 -0.99,-0.002 -1.49,-0.006 C 49.788,70.487 14.609,53.198 -10.343,20.896 -14.735,15.21 -13.661,7.059 -7.943,2.689 -5.572,0.878 -2.774,0 0,0"
             style="fill:#a1b2ca;fill-opacity:1;fill-rule:nonzero;stroke:none"
             id="path6236" /></g><g
           id="g6238"
           transform="translate(176.9834,224.0898)"><path
             d="m 0,0 c 2.41,0 4.848,0.663 7.028,2.051 6.072,3.867 7.842,11.897 3.954,17.937 -0.578,0.899 -14.477,22.192 -41.263,37.957 -15.01,8.835 -35.913,16.94 -62.064,16.94 -17.183,0 -36.633,-3.499 -58.168,-12.591 -6.637,-2.801 -9.734,-10.425 -6.917,-17.025 2.111,-4.946 6.943,-7.915 12.024,-7.915 1.701,0 3.429,0.333 5.094,1.036 16.731,7.062 32.797,10.592 48.105,10.592 17.214,0 33.468,-4.462 48.629,-13.386 C -22.42,23.143 -11.114,6.152 -11.007,5.984 -8.514,2.113 -4.302,0 0,0"
             style="fill:#a1b2ca;fill-opacity:1;fill-rule:nonzero;stroke:none"
             id="path6240" /></g><g
           id="g6242"
           transform="translate(217.2949,264.8076)"><path
             d="m 0,0 c 1.463,0 2.95,0.246 4.406,0.768 6.77,2.421 10.3,9.814 7.887,16.554 -0.35,0.976 -8.806,24.168 -29.874,46.03 -17.707,18.376 -47.608,39 -92.579,39 -5.032,0 -10.25,-0.258 -15.664,-0.807 -7.174,-0.728 -12.397,-7.1 -11.666,-14.233 0.685,-6.688 6.357,-11.67 12.971,-11.67 0.444,0 0.89,0.021 1.339,0.067 4.464,0.452 8.841,0.678 13.119,0.678 28.722,0 53.22,-10.169 72.976,-30.33 C -19.587,28.198 -12.36,8.766 -12.289,8.57 -10.361,3.292 -5.343,0 0,0"
             style="fill:#a1b2ca;fill-opacity:1;fill-rule:nonzero;stroke:none"
             id="path6244" /></g><g
           id="g6246"
           transform="translate(304.7295,76.2041)"><path
             d="m 0,0 24.944,-19.085 v -49.619 l -38.513,32.443 -30.157,19.366 -8.702,-1.082 -27.981,-18.284 -38.513,-32.443 v 49.619 L -93.978,0"
             style="fill:#cedff8;fill-opacity:1;fill-rule:nonzero;stroke:none"
             id="path6248" /></g><g
           id="g6250"
           transform="translate(384.1904,189.5039)"><path
             d="m 0,0 c 0,-70.417 -57.393,-127.501 -128.19,-127.501 -70.798,0 -128.191,57.084 -128.191,127.501 0,70.417 57.393,127.501 128.191,127.501 C -57.393,127.501 0,70.417 0,0"
             style="fill:#d65bf5;fill-opacity:1;fill-rule:nonzero;stroke:none"
             id="path6252" /></g><g
           id="g6254"
           transform="translate(256,317.0049)"><path
             d="m 0,0 c -6.805,0 -13.482,-0.532 -20,-1.548 61.297,-9.553 108.19,-62.304 108.19,-125.953 0,-63.649 -46.893,-116.4 -108.19,-125.953 6.518,-1.016 13.195,-1.548 20,-1.548 70.798,0 128.19,57.084 128.19,127.501 C 128.19,-57.084 70.798,0 0,0"
             style="fill:#ce37f5;fill-opacity:1;fill-rule:nonzero;stroke:none"
             id="path6256" /></g><g
           id="g6258"
           transform="translate(352.6064,99.8008)"><path
             d="m 0,0 c 0,-39.682 -42.473,-71.849 -94.866,-71.849 -52.393,0 -94.865,32.167 -94.865,71.849 0,39.681 42.472,71.849 94.865,71.849 C -42.473,71.849 0,39.681 0,0"
             style="fill:#edb0ff;fill-opacity:1;fill-rule:nonzero;stroke:none"
             id="path6260" /></g><g
           id="g6262"
           transform="translate(326.2598,99.8008)"><path
             d="m 0,0 c 0,-14.796 -12.059,-26.791 -26.935,-26.791 -14.876,0 -26.935,11.995 -26.935,26.791 0,14.796 12.059,26.79 26.935,26.79 C -12.059,26.79 0,14.796 0,0"
             style="fill:#ffffff;fill-opacity:1;fill-rule:nonzero;stroke:none"
             id="path6264" /></g><g
           id="g6266"
           transform="translate(243.0918,99.8008)"><path
             d="m 0,0 c 0,-14.796 -12.06,-26.791 -26.936,-26.791 -14.876,0 -26.934,11.995 -26.934,26.791 0,14.796 12.058,26.79 26.934,26.79 C -12.06,26.79 0,14.796 0,0"
             style="fill:#ffffff;fill-opacity:1;fill-rule:nonzero;stroke:none"
             id="path6268" /></g><g
           id="g6270"
           transform="translate(406.4824,124.7061)"><path
             d="m 0,0 c 19.755,-18.485 29.332,-46.688 28.464,-83.822 -0.162,-6.905 -11.277,-6.963 -11.108,0.252 0.793,33.907 -7.618,59.345 -25,75.608 -5.969,5.586 -13.015,10.049 -21.002,13.341 1.624,3.294 3.113,6.65 4.459,10.062 C -15.052,11.644 -6.926,6.479 0,0 m -77.134,31.878 c -19.213,14.552 -44.643,22.565 -71.608,22.565 -26.964,0 -52.396,-8.013 -71.609,-22.565 -13.807,-10.457 -23.291,-23.41 -27.782,-37.602 -14.927,20.411 -23.04,45.033 -23.04,70.522 0,66.169 54.142,120.001 120.691,120.001 66.548,0 120.69,-53.832 120.69,-120.001 0,-24.067 -7.278,-47.471 -20.706,-67.213 -4.857,12.894 -13.908,24.654 -26.636,34.293 m -71.608,-121.132 c -48.173,0 -87.365,28.866 -87.365,64.349 0,35.482 39.192,64.348 87.365,64.348 48.174,0 87.366,-28.866 87.366,-64.348 0,-35.483 -39.192,-64.349 -87.366,-64.349 m 54.057,-3.086 c 3.589,1.73 7.06,3.625 10.376,5.708 v -14.449 z m -118.49,-8.742 v 14.449 c 3.317,-2.083 6.788,-3.977 10.376,-5.708 z m -80.146,93.12 c -17.382,-16.263 -25.793,-41.701 -25,-75.607 0.162,-6.908 -10.939,-7.466 -11.108,-0.254 -0.868,37.135 8.709,65.338 28.464,83.823 6.926,6.479 15.049,11.638 24.179,15.435 1.348,-3.414 2.828,-6.778 4.453,-10.074 -7.98,-3.292 -15.026,-7.745 -20.988,-13.323 m -1.04,79.627 c -36.181,-0.352 -65.501,-14.739 -87.148,-42.764 -4.467,-5.777 -13.132,1.091 -8.835,6.652 23.497,30.419 56.65,46.699 95.873,47.081 3.135,0.031 6.287,-0.051 9.453,-0.222 -0.474,-3.599 -0.806,-7.242 -0.988,-10.924 -2.784,0.144 -5.569,0.202 -8.355,0.177 m 73.445,119.742 c -24.407,24.908 -57.8,35.349 -92.214,31.864 -6.95,-0.698 -8.094,10.208 -1.125,10.914 42.656,4.323 83.456,-11.759 110.29,-45.325 -3.491,-1.495 -6.907,-3.133 -10.241,-4.906 -2.158,2.598 -4.402,5.098 -6.71,7.453 m 132.12,6.842 c 26.667,27.675 64.089,39.787 102.086,35.936 7.007,-0.71 5.683,-11.608 -1.132,-10.913 -38.112,3.857 -74.282,-9.655 -98.924,-39.314 -3.332,1.771 -6.745,3.408 -10.234,4.903 2.621,3.279 5.354,6.429 8.204,9.388 m 51.416,-47.384 c 17.928,10.553 37.528,15.904 58.259,15.904 17.801,0 36.39,-4.038 55.252,-12.001 6.519,-2.752 1.99,-12.772 -4.367,-10.085 -17.58,7.421 -34.746,11.183 -51.023,11.183 -20.446,0 -40.444,-6.292 -57.458,-17.574 -2.016,3.079 -4.156,6.071 -6.41,8.971 1.894,1.259 3.814,2.465 5.747,3.602 M 88.562,59.166 c -29.53,27.61 -66.931,40.744 -107.333,38.112 -2.442,9.796 -5.959,19.172 -10.424,27.999 14.719,9.958 32.132,15.589 49.936,15.589 14.262,0 29.465,-3.365 45.187,-10.001 23.753,-10.039 40.73,27.302 16.036,37.722 -20.717,8.747 -41.27,13.182 -61.085,13.182 -26.422,0 -52.16,-8.194 -73.924,-23.12 -6.298,6.471 -13.238,12.317 -20.72,17.438 21.387,24.698 52.176,35.528 84.405,32.263 26.052,-2.654 30.964,38.039 4.164,40.758 -49.647,5.032 -96.742,-14.893 -126.635,-54.898 -9.958,2.949 -20.388,4.793 -31.151,5.379 v 180.205 c 0,4.143 -3.358,7.5 -7.5,7.5 -4.143,0 -7.5,-3.357 -7.5,-7.5 V 199.589 c -10.766,-0.586 -21.199,-2.431 -31.159,-5.381 -29.889,40.006 -76.967,59.933 -126.628,54.9 -26.629,-2.702 -22.043,-43.417 4.158,-40.759 32.239,3.268 63.034,-7.569 84.413,-32.26 -7.422,-5.08 -14.312,-10.875 -20.571,-17.285 -10.413,7.461 -21.573,12.088 -33.021,16.49 -0.062,0.023 -0.123,0.046 -0.185,0.068 -29.999,10.646 -64.335,8.88 -99.293,-5.104 -10.428,-4.161 -17.027,-13.433 -14.634,-24.824 3.72,-17.72 21.733,-18.017 35.447,-11.841 11.567,5.209 5.406,18.874 -6.157,13.678 -10.876,-4.897 -21.911,2.588 -8.795,9.175 21.964,8.739 55.013,16.599 88.325,4.812 10.339,-3.978 19.765,-7.866 28.391,-13.807 -2.311,-2.96 -4.499,-6.016 -6.561,-9.165 -14.775,9.773 -31.33,15.688 -48.269,17.179 -9.346,0.841 -11.093,-14.081 -1.317,-14.942 14.734,-1.297 29.174,-6.557 42.063,-15.256 -4.463,-8.827 -7.981,-18.204 -10.421,-28 -4.128,0.272 -8.283,0.405 -12.421,0.367 -43.984,-0.429 -81.19,-18.725 -107.598,-52.911 -16.135,-20.889 16.395,-45.934 32.576,-24.992 18.696,24.204 44.072,36.629 75.438,36.935 2.759,0.026 5.523,-0.052 8.294,-0.21 0.562,-9.088 2.041,-18.037 4.387,-26.728 -11.212,-4.518 -21.179,-10.81 -29.693,-18.775 -23.01,-21.531 -34.183,-53.536 -33.212,-95.127 0.619,-26.274 41.727,-25.891 41.1,0.955 -0.69,29.451 6.125,51.086 20.252,64.304 5.046,4.723 11.157,8.437 18.188,11.1 3.921,-6.11 8.354,-11.932 13.277,-17.403 0,0 3.284,-18.851 5.52,-24.289 3.991,-9.703 10.317,-18.345 17.913,-25.549 v -42.15 c 0,-6.219 7.472,-9.829 12.332,-5.736 l 28.917,24.359 c 24.569,-7.618 51.801,-7.618 76.369,0 l 28.916,-24.359 c 4.861,-4.093 12.332,-0.483 12.332,5.736 v 42.15 c 14.567,13.815 23.819,32.864 22.853,53.181 3.772,4.478 7.229,9.175 10.361,14.059 7.033,-2.662 13.151,-6.372 18.203,-11.099 C -3.765,-32.133 3.05,-53.768 2.36,-83.22 c -0.624,-26.726 40.479,-27.351 41.1,-0.953 0.972,41.59 -10.202,73.595 -33.212,95.126 -8.511,7.964 -18.483,14.262 -29.701,18.78 2.351,8.7 3.832,17.652 4.396,26.729 11.932,0.689 23.258,-0.311 33.728,-3.001 8.87,-2.27 13.367,12.055 3.73,14.529 -11.686,3 -24.228,4.17 -37.36,3.501 -0.182,3.677 -0.514,7.315 -0.986,10.909 C 19.767,84.29 52.269,72.553 78.319,48.208 85.603,41.4 92.49,34.354 89.826,29.572 88.393,26.998 84.649,25.969 82.047,27.554 77.152,30.53 73.141,37.843 68.954,41.886 62.202,48.405 51.476,37.912 58.534,31.097 c 5.166,-4.991 9.522,-12.59 15.72,-16.36 9.664,-5.875 23.153,-2.375 28.676,7.534 8.596,15.43 -6.342,29.393 -14.368,36.895"
             style="fill:#000000;fill-opacity:1;fill-rule:nonzero;stroke:none"
             id="path6272" /></g><g
           id="g6274"
           transform="translate(299.3252,80.5098)"><path
             d="m 0,0 c -10.717,0 -19.436,8.654 -19.436,19.291 0,10.637 8.719,19.29 19.436,19.29 10.716,0 19.435,-8.653 19.435,-19.29 C 19.435,8.654 10.716,0 0,0 m 0,53.581 c -18.988,0 -34.436,-15.383 -34.436,-34.29 C -34.436,0.383 -18.988,-15 0,-15 18.987,-15 34.435,0.383 34.435,19.291 34.435,38.198 18.987,53.581 0,53.581"
             style="fill:#000000;fill-opacity:1;fill-rule:nonzero;stroke:none"
             id="path6276" /></g><g
           id="g6278"
           transform="translate(299.3252,107.3008)"><path
             d="M 0,0 C -9.652,0 -9.668,-15 0,-15 9.651,-15 9.667,0 0,0"
             style="fill:#000000;fill-opacity:1;fill-rule:nonzero;stroke:none"
             id="path6280" /></g><g
           id="g6282"
           transform="translate(216.1562,80.5098)"><path
             d="m 0,0 c -10.716,0 -19.435,8.654 -19.435,19.291 0,10.637 8.719,19.29 19.435,19.29 10.717,0 19.436,-8.653 19.436,-19.29 C 19.436,8.654 10.717,0 0,0 m 0,53.581 c -18.987,0 -34.435,-15.383 -34.435,-34.29 C -34.435,0.383 -18.987,-15 0,-15 18.988,-15 34.436,0.383 34.436,19.291 34.436,38.198 18.988,53.581 0,53.581"
             style="fill:#000000;fill-opacity:1;fill-rule:nonzero;stroke:none"
             id="path6284" /></g><g
           id="g6286"
           transform="translate(216.1562,107.3008)"><path
             d="M 0,0 C -9.651,0 -9.668,-15 0,-15 9.652,-15 9.668,0 0,0"
             style="fill:#000000;fill-opacity:1;fill-rule:nonzero;stroke:none"
             id="path6288" /></g><g
           id="g6290"
           transform="translate(188.1475,252.1211)"><path
             d="M 0,0 C -9.651,0 -9.668,-15 0,-15 9.651,-15 9.668,0 0,0"
             style="fill:#000000;fill-opacity:1;fill-rule:nonzero;stroke:none"
             id="path6292" /></g><g
           id="g6294"
           transform="translate(253.6133,260.5195)"><path
             d="M 0,0 C -9.652,0 -9.668,-15 0,-15 9.652,-15 9.668,0 0,0"
             style="fill:#000000;fill-opacity:1;fill-rule:nonzero;stroke:none"
             id="path6296" /></g><g
           id="g6298"
           transform="translate(221.5625,239.9062)"><path
             d="M 0,0 C -9.652,0 -9.668,-15 0,-15 9.651,-15 9.668,0 0,0"
             style="fill:#000000;fill-opacity:1;fill-rule:nonzero;stroke:none"
             id="path6300" /></g><g
           id="g6302"
           transform="translate(287.71,239.9062)"><path
             d="M 0,0 C -9.651,0 -9.668,-15 0,-15 9.651,-15 9.668,0 0,0"
             style="fill:#000000;fill-opacity:1;fill-rule:nonzero;stroke:none"
             id="path6304" /></g><g
           id="g6306"
           transform="translate(221.5625,276.5527)"><path
             d="M 0,0 C -9.652,0 -9.668,-15 0,-15 9.651,-15 9.668,0 0,0"
             style="fill:#000000;fill-opacity:1;fill-rule:nonzero;stroke:none"
             id="path6308" /></g><g
           id="g6310"
           transform="translate(287.71,276.5527)"><path
             d="M 0,0 C -9.651,0 -9.668,-15 0,-15 9.651,-15 9.668,0 0,0"
             style="fill:#000000;fill-opacity:1;fill-rule:nonzero;stroke:none"
             id="path6312" /></g></g></g></g></svg>
