<?xml version="1.0" encoding="UTF-8"?>
<svg xmlns="http://www.w3.org/2000/svg" xmlns:xlink="http://www.w3.org/1999/xlink" version="1.1" id="Layer_1" x="0px" y="0px" viewBox="0 0 512 512" style="enable-background:new 0 0 512 512;" xml:space="preserve" width="512" height="512">
<style type="text/css">
	.st0{fill:#C58A67;}
	.st1{opacity:0.15;fill:#FFFFFF;enable-background:new    ;}
	.st2{opacity:0.15;}
	.st3{fill:#754F23;}
	.st4{fill:#F4A351;}
	.st5{opacity:0.15;enable-background:new    ;}
	.st6{fill:#E22B39;}
	.st7{fill:#94CC29;}
	.st8{fill:#523E80;}
	.st9{fill:#25272E;}
</style>
<g id="_x30_4_Voodoo">
	<g>
		<g>
			<g>
				<path class="st0" d="M351.4,184.1l10.6,5c33.3,17,68,47.4,61.4,98.7c-1.7,11.5-5.6,23.7-13.9,31.5c-9.3,8.8-24.6,6.1-31.6-4.6      c-4.9-7.6-22.1-34.1-29.6-45.7c6.9,26.9,4.2,53.1-14.1,78c-3.7,28.3,7.7,67.3,25.9,110.9c8.7,21.2-3.1,45.2-25.3,50.8      c-18.2,4.9-37.8-5.3-44.6-23.2c-10-26.3-15.7-58.1-19.4-92.7c-0.9-8.5-7.9-15-16.4-15.3h-0.9c-11.8,0-20.2,11.6-16.4,22.8      l16,47.9c6.8,20.7-7.6,42.2-29.1,43.7c-17.7,1.3-35.6-8.6-42.4-25.8c-13.4-34-13.2-73.8-8.1-109.8c1-7.2-1.1-14.4-5.2-20.3      c-10.4-15.5-14.9-34.5-12.5-57.4c-2.3,11.7-6.5,24.3-15,32.7c-8.6,8.6-24,9.2-32.6,0.7c-16.6-16.4-6.4-50,5.1-70.6      c19.8-35.6,46.5-61.4,83.9-71.8c0,0-32-5-37.4-46.9c-5.4-42-7.5-89.3,52.3-105.1c30.6-8.1,69.2-9.8,97.4,4.7      c11.6,5.7,19.6,14.9,19.9,16c12.8,16.9,24.7,87.9,1.5,112.6c-16.2,17.2-22.4,18.8-24.1,18.8c2.3,0.4,12.7,2.6,26.6,7.3      L351.4,184.1z"/>
			</g>
			<path class="st1" d="M169.7,150.6L169.7,150.6c20.4-7.5,33.9-27,33.9-48.7V20.5c-50.9,17.9-48.8,62.6-43.7,102.4     C161.4,134.9,165.2,143.9,169.7,150.6z"/>
			<g class="st2">
				<path d="M351.4,184.1l10.6,5c33.3,17,68,47.4,61.4,98.7c-1.7,11.5-5.6,23.7-13.9,31.5c-9.3,8.8-24.6,6.1-31.6-4.6      c-4.9-7.6-22.1-34.1-29.6-45.7c6.9,26.9,4.2,53.1-14.1,78c-3.7,28.3,7.7,67.3,25.9,110.9c8.7,21.2-3.1,45.2-25.3,50.8      c-18.2,4.9-37.8-5.3-44.6-23.2c-10-26.3-15.7-58.1-19.4-92.7c-0.9-8.5-7.9-15-16.4-15.3h-0.9c-11.8,0-20.2,11.6-16.4,22.8      l16,47.9c6.8,20.7-7.6,42.2-29.1,43.7c-17.7,1.3-35.6-8.6-42.4-25.8c-13-32.8-13.1-69.5-8.8-104.3c66.6,0,120.6-54,120.6-120.6      v-2.1v-11.7V16.2c15.2,4.2,27.2,12.1,32.1,17.5c1.6,1.5,4.1,4.6,4.1,4.7c12.8,16.9,24.7,87.9,1.5,112.6      c-16.2,17.2-22.4,18.8-24.1,18.8c2.3,0.4,12.7,2.6,26.6,7.3L351.4,184.1z"/>
			</g>
			<path class="st3" d="M254.7,460.6c-0.8,16.1-13.5,30.2-30.7,31.4c-14.1,1-28.5-5-37.1-16.5c8.5-13.8,23.7-22.9,41.1-22.9     C237.9,452.6,247,455.5,254.7,460.6z"/>
			<path class="st3" d="M362.9,473.1c-0.3,16.3-11.2,31.4-28.1,35.7c-13.3,3.6-28.2-0.8-37.7-11.9c7.5-17,24.5-28.9,44.3-28.9     C349.1,468,356.4,469.8,362.9,473.1z"/>
			<g>
				<path class="st3" d="M423.3,287.8c-1.6,11.3-5.7,23.8-13.9,31.5c-9.3,8.8-24.6,6.1-31.5-4.6l-7.9-12.3      c8.9-10.7,22.2-17.5,37.3-17.5C412.9,285,418.3,286,423.3,287.8z"/>
			</g>
			<path class="st3" d="M145.3,305.8c-1.3,2-2.8,3.9-4.5,5.6c-8.6,8.5-24,9.2-32.6,0.7c-6.3-6.2-8.7-14.6-8.7-24.4     C117.6,280.3,137.7,288.5,145.3,305.8z"/>
			<circle class="st4" cx="252.8" cy="82.8" r="24.8"/>
			<path class="st1" d="M256,107.4c-1.1,0.1-2.1,0.2-3.2,0.2c-13.7,0-24.8-11.1-24.8-24.8c0-13.7,11.1-24.8,24.8-24.8     c1.1,0,2.1,0.1,3.2,0.2c-12.2,1.6-21.6,12-21.6,24.6C234.4,95.4,243.8,105.8,256,107.4z"/>
			<path class="st5" d="M277.6,82.8c0,13.7-11.1,24.8-24.8,24.8c-1.8,0-3.7-0.2-5.4-0.6c11.1-2.5,19.4-12.3,19.4-24.2     c0-11.8-8.3-21.7-19.4-24.2c1.7-0.4,3.6-0.6,5.4-0.6C266.5,58.1,277.6,69.2,277.6,82.8z"/>
			<circle class="st6" cx="104.7" cy="18.9" r="16.9"/>
			<path class="st5" d="M121.6,18.9c0,9.3-7.5,16.9-16.9,16.9c-2,0-3.9-0.3-5.6-1c6.5-2.3,11.2-8.6,11.2-15.9     c0-7.3-4.7-13.6-11.2-15.9c1.8-0.6,3.7-1,5.6-1C114.1,2,121.6,9.5,121.6,18.9z"/>
			<g>
				<path class="st7" d="M365.4,186.6c-7.8,7.3-20.1,6.9-27.4-0.9s-6.8-20.1,1.1-27.4c7.8-7.3,20-6.8,27.3,1      C373.7,167.1,373.3,179.3,365.4,186.6z"/>
			</g>
			<g class="st2">
				<path d="M365.4,186.5c-7.8,7.3-20.1,6.9-27.3-0.9c-1-1-1.8-2.1-2.5-3.3c7.2,4.3,16.6,3.5,23.1-2.5c6.8-6.3,8-16.3,3.5-24      c1.5,0.9,3,2.1,4.3,3.4C373.7,167.1,373.2,179.3,365.4,186.5z"/>
			</g>
			<path class="st8" d="M122.2,369.4c5.8-6.8,15.9-7.7,22.7-1.9s7.5,16,1.8,22.7c-5.8,6.8-15.9,7.6-22.7,1.8     C117.2,386.4,116.4,376.2,122.2,369.4z"/>
			<path class="st5" d="M146.7,390.3c-4,4.8-10.3,6.6-16,5.2c3.2-0.8,6.2-2.5,8.5-5.2c5.8-6.8,5-17-1.8-22.7c-2-1.7-4.3-2.8-6.7-3.4     c4.8-1.1,10.1-0.1,14.1,3.4C151.7,373.3,152.5,383.5,146.7,390.3z"/>
			<g>
				<path class="st9" d="M365.8,188.9c0.3-0.3,0.7-0.6,1-0.9c4.2-3.9,6.6-9.1,6.8-14.8c0.4-11.8-8.8-21.6-20.5-22.1      c-11.8-0.4-21.6,8.8-22.1,20.5c0,0.9,0,1.7,0.1,2.5c-7.1-2.3-13.2-3.9-17.5-5c4.1-2.6,10.1-7.5,18.9-16.8      c20.7-22,14.7-75.7,4.2-105c-5.9-17.3-25.1-28.4-42.7-33.2c-23.8-6.7-53-6.2-82.2,1.6c-29.6,7.8-44.5,23.3-51.2,42.2l-39.6-29.6      c1.7-2.8,2.7-6.2,2.7-9.7c0-10.4-8.5-18.9-18.9-18.9C94.3,0,85.9,8.5,85.9,18.9s8.5,18.9,18.9,18.9c5.4,0,10.3-2.3,13.7-6      l40.7,30.4c-5.5,18.7-3.9,40.3-1.3,61c4,31.1,22.5,42.6,32.6,46.6c-32.5,10.8-58.4,34-78.9,70.8c-12,21.4-22.2,55.8-4.8,73      c9.2,9.1,26.2,9.5,36.6-2c4.3-4.7,7.6-10.5,9.9-16.5c0.7,15.9,5.2,30,13.4,42.2c0.2,0.3,0.3,0.6,0.5,0.8l-22.6,26.8      c-7.5-5.1-17.9-3.8-23.9,3.3c-6.5,7.6-5.6,19,2.1,25.5c7.6,6.5,19,5.5,25.5-2.1c6-7.1,5.7-17.5-0.6-24.2l21.6-25.6      c2.1,4.7,3,9.6,2.3,14.4c-5.2,36.6-5.3,76.6,8.2,110.8c7.1,18,25.9,28.4,44.4,27c22.7-1.6,38.1-24.2,30.8-46.3l-16-47.9      c-1.6-4.7-0.8-9.8,2.1-13.8c5.1-7.1,13-6.3,13.3-6.4c7.5,0.3,13.7,6.2,14.5,13.6c4.1,38.9,10.5,69.4,19.5,93.2      c7.1,18.8,27.7,29.6,46.9,24.4c23-5.9,35.8-31,26.6-53.5c-20.7-49.7-28.9-84.5-25.8-109.4c15.1-20.8,20.5-43.3,16.4-68.7      c4.2,6.5,23.8,36.8,23.8,36.7c7.7,11.9,25.3,15.5,36.6,2.9C430,299.5,444.6,231,365.8,188.9z M104.7,33.7      c-8.2,0-14.9-6.7-14.9-14.9S96.5,4,104.7,4s14.9,6.7,14.9,14.9S112.9,33.7,104.7,33.7z M145.2,389c-5,5.9-13.9,6.7-19.9,1.6      c-5.9-5.1-6.7-13.9-1.6-19.9c5-5.9,14-6.7,19.9-1.7c0,0,0,0,0,0c0,0,0,0,0,0h0C149.5,374.1,150.2,383,145.2,389z M352.9,155.1      c9.6,0.3,17,8.4,16.7,17.9c-0.3,9.5-8.2,17-18,16.7c-4.6-0.2-8.9-2.1-12.1-5.5c-3.2-3.4-4.8-7.8-4.6-12.4      C335.3,162.3,343.3,154.7,352.9,155.1z M109.6,310.7c-5.8-5.7-7.9-13.5-8.1-21.7c16.5-6,34.2,1.4,41.5,16.6      C133.8,318.8,117.7,318.7,109.6,310.7z M189.3,475.4c8.6-13.1,22.9-20.8,38.7-20.8c8.7,0,17.2,2.4,24.6,7.1      c-1.3,15.4-13.7,27.3-28.8,28.4C210.6,491,197.4,485.3,189.3,475.4z M345.6,501.7c-3.6,2.5-7.3,4.2-11.4,5.2      c-3.1,0.8-7,1.3-10.8,1.1c-9.1-0.5-17.7-4.5-24.1-11.4c7.7-16.2,24-26.5,42-26.5c6.7,0,13.4,1.5,19.5,4.3      C360.3,485.3,354.7,495.4,345.6,501.7z M409.9,316c-9.4,10.5-23.8,7.7-30.4-2.4c-0.1-0.2-7.6-11.8-7.1-11      c8.8-10,21.4-15.6,34.8-15.6c0,0,0,0,0,0c0,0,0,0,0,0c4.7,0,9.4,0.7,13.9,2.2C419.5,298.7,416.3,308.7,409.9,316z M421.6,285.2      c-4-1.2-8.1-1.9-12.2-2.1c0.2-2.4,0.3-6.6-0.5-12c0.9-0.1,1.7-0.1,2.7,0c1.1,0.1,2.1-0.6,2.2-1.7c0.1-1.1-0.7-2.1-1.7-2.2      c-1.4-0.2-2.6-0.1-3.8,0c-0.4-1.8-0.9-3.7-1.4-5.7c1-0.2,2.1-0.2,3.2-0.1c1.1,0.1,2.1-0.6,2.2-1.7c0.1-1.1-0.7-2.1-1.7-2.2      c-1.8-0.2-3.4-0.1-4.9,0.2c-0.7-1.9-1.5-4-2.4-6c0.8-0.1,1.6-0.1,2.5,0c1.1,0.1,2.1-0.7,2.2-1.7c0.1-1.1-0.7-2.1-1.7-2.2      c-1.7-0.2-3.3-0.1-4.8,0.2c-1-1.9-2.1-3.9-3.3-5.9c1-0.2,2.1-0.2,3.2-0.1c1.1,0.1,2.1-0.7,2.2-1.7c0.1-1.1-0.7-2.1-1.7-2.2      c-2.2-0.3-4.3,0-6,0.4c-1.5-2.3-3.3-4.6-5.1-6.9c1.1-0.5,2.4-0.8,3.8-0.9c1.1-0.1,1.9-1,1.9-2.1c-0.1-1.1-1-1.9-2.1-1.9      c-2.4,0.2-4.5,0.9-6.2,1.7c-1.6-1.8-3.2-3.5-5-5.3c0.9-0.5,1.8-1,2.9-1.3c1.1-0.3,1.7-1.4,1.4-2.5c-0.3-1.1-1.4-1.7-2.5-1.4      c-1.9,0.5-3.4,1.4-4.8,2.3c-1.5-1.4-3.1-2.9-4.8-4.3c0.9-0.8,2-1.6,3.3-2.1c1-0.4,1.5-1.6,1.1-2.6c-0.4-1-1.6-1.5-2.6-1.1      c-2,0.8-3.6,2-4.9,3.2c-1.9-1.5-3.8-3-5.9-4.4c-0.9-0.6-2.1-0.4-2.8,0.5c-0.6,0.9-0.4,2.1,0.5,2.8c2,1.4,3.8,2.8,5.6,4.2      c-1.5,2.2-2.1,4.1-2.2,4.3c-0.3,1,0.2,2.2,1.3,2.5c1.1,0.3,2.2-0.3,2.5-1.3c0,0,0.5-1.4,1.5-3c1.6,1.3,3,2.6,4.5,4      c-1.9,2.1-2.8,4.1-2.8,4.3c-0.4,1,0,2.2,1,2.6c1,0.4,2.2,0,2.6-1c0,0,0.7-1.5,2.1-3.1c1.7,1.6,3.2,3.3,4.7,4.9      c-1.7,1.4-2.6,2.7-2.7,2.8c-0.6,0.9-0.4,2.1,0.4,2.8c0.9,0.6,2.1,0.4,2.8-0.4c0,0,0.8-1,2.1-2.1c1.7,2.1,3.3,4.2,4.7,6.2      c-2.1,1.1-3.4,2.3-3.6,2.4c-0.8,0.7-0.9,2-0.1,2.8c0.7,0.8,2,0.9,2.8,0.1c0,0,1.2-1.1,3.1-2c1.2,2,2.4,3.9,3.4,5.9      c-2.8,1.2-4.6,2.8-4.7,3c-0.8,0.7-0.9,2-0.1,2.8c0.7,0.8,2,0.9,2.8,0.1c0,0,1.5-1.3,3.8-2.3c1,2.1,1.8,4.2,2.5,6.2      c-2.8,1.2-4.5,2.8-4.6,2.9c-0.8,0.7-0.9,2-0.1,2.8c0.7,0.8,2,0.9,2.8,0.1c0,0,1.2-1.1,3.2-2c0.6,1.9,1,3.8,1.4,5.5      c-3.4,1.3-5.5,3.2-5.7,3.3c-0.8,0.7-0.9,2-0.1,2.8c0.7,0.8,2,0.9,2.8,0.1c0,0,1.4-1.3,3.7-2.2c0.7,5.1,0.7,8.9,0.5,10.9      c-13.5,0.5-26.1,6.3-35.2,16.1L350,267.9c-0.5-0.8-1.6-1.1-2.5-0.7c-0.9,0.4-1.4,1.4-1.1,2.3c7.4,28.7,2.9,53.7-13.8,76.4      c0,0,0,0,0,0c-0.8,1-16.6,20-46.4,20.7c-1.1,0-2,0.9-1.9,2c0,1.1,0.9,1.9,2,1.9c0,0,0,0,0,0c23.6-0.5,38.7-11.6,45.4-17.9      c-1.5,25.1,7,59.1,26.5,106.1c1.4,3.5,2.3,7.2,2.6,11c-5.7-2.3-15.7-3.6-19.4-3.6c-9.7,0-18.9,2.8-26.7,7.7      c-1.3-1.2-3.8-3.8-6.6-7.8c2.1-0.7,3.7-0.7,3.8-0.7c1.1,0,2-0.9,2-2c0-1.1-0.9-2-2-2c0,0,0,0,0,0c-0.2,0-2.8,0-6,1.3      c-0.8-1.4-1.6-2.9-2.4-4.5c1.8-0.6,3.3-0.6,3.3-0.6c1.1,0,2-0.9,2-2c0-1.1-0.9-2-2-2c-0.1,0-2.3,0-5,0.9      c-0.8-1.8-1.5-3.7-2.2-5.7c2.1-0.8,3.9-0.8,3.9-0.8c1.1,0,2-0.9,2-2c0-1.1-0.9-2-2-2c-0.1,0-2.3,0-5,0.9c-0.5-1.9-1-3.8-1.4-5.9      c1.8-0.5,3.2-0.6,3.2-0.6c1.1,0,2-0.9,2-2c0-1.1-0.9-2.1-2-2c-0.1,0-1.7,0-3.9,0.6c-0.3-2.2-0.6-4.6-0.7-7      c1.5-0.1,2.6,0.1,2.6,0.1c1.1,0.2,2.1-0.5,2.3-1.6c0.2-1.1-0.5-2.1-1.6-2.3c-0.1,0-1.5-0.3-3.6-0.2c0-2,0-4,0-6.1      c1.9,0.2,3.2,0.8,3.2,0.8c1,0.4,2.2,0,2.6-1c0.4-1,0-2.2-1-2.6c-0.1-0.1-2-0.8-4.6-1.1c0.1-1.7,0.3-3.5,0.5-5.3      c1.6,0.4,2.7,1,2.8,1c1,0.5,2.2,0.2,2.7-0.8c0.5-1,0.2-2.2-0.8-2.7c-0.1-0.1-1.7-0.9-4.2-1.5c0.3-2.1,0.7-4.2,1.1-6.3      c0.2-1.1-0.5-2.1-1.5-2.3c-1.1-0.2-2.1,0.5-2.3,1.5c-0.5,2.3-0.8,4.5-1.2,6.7c-1.7,0-3.5,0.2-5.4,0.9c-1,0.4-1.6,1.5-1.2,2.5      s1.5,1.6,2.5,1.2c1.2-0.4,2.3-0.6,3.4-0.7c-0.2,2-0.4,3.9-0.6,5.8c-1.5,0.2-3.1,0.6-4.7,1.4c-1,0.5-1.4,1.7-0.9,2.7      c0.5,1,1.7,1.4,2.7,0.9c0.9-0.5,1.8-0.7,2.7-0.9c-0.1,2.3-0.1,4.5,0,6.6c-1.7,0.5-3.6,1.4-5.3,2.8c-0.8,0.7-1,1.9-0.3,2.8      c0.7,0.8,1.9,1,2.8,0.3c1-0.8,2-1.3,3-1.7c0.2,2.7,0.5,5.3,0.8,7.8c-1.5,0.8-3,2-4.4,3.5c-0.7,0.8-0.6,2.1,0.2,2.8      c0.8,0.7,2.1,0.6,2.8-0.2c0.6-0.8,1.4-1.4,2.1-1.9c0.4,2.1,0.9,4,1.4,5.9c-1.2,0.8-2.3,1.7-3.3,2.9c-0.7,0.8-0.6,2.1,0.2,2.8      c0.8,0.7,2.1,0.6,2.8-0.2c0.5-0.6,1-1.1,1.6-1.5c0.7,1.9,1.4,3.7,2.1,5.4c-1.2,0.8-2.4,1.7-3.5,3c-0.7,0.8-0.6,2.1,0.2,2.8      c0.8,0.7,2.1,0.6,2.8-0.2c0.7-0.8,1.4-1.4,2.1-1.9c0.8,1.7,1.7,3.2,2.6,4.7c-0.9,0.7-1.8,1.4-2.6,2.4c-0.7,0.8-0.6,2.1,0.2,2.8      c0.8,0.7,2.1,0.6,2.8-0.2c0.5-0.6,1.1-1.2,1.7-1.6c2.7,3.9,5.3,6.6,6.9,8.2c-4.7,3.5-11.8,11.4-14.8,17      c-1.8-2.5-3.3-5.2-4.4-8.1c-8.9-23.5-15.2-53.6-19.3-92.2c-1-9.3-8.8-16.7-18.4-17.1c-0.6,0.1-9.8-1.3-16.6,8      c-3.7,5.1-4.6,11.5-2.6,17.4l16,47.9c0.9,2.6,1.3,5.2,1.5,7.9c-4.9-2.6-12.9-4.9-15.9-5.4c-0.1-0.5-0.3-0.9-0.7-1.2      c-0.1-0.1-3.9-3.1-8.2-9.5c2.3-0.8,4.2-0.8,4.3-0.8c0,0,0,0,0,0c1.1,0,2-0.9,2-2c0-1.1-0.9-2-2-2c-0.2,0-3.1,0-6.5,1.3      c-0.9-1.5-1.8-3.2-2.7-5c2.1-0.6,3.7-0.6,3.7-0.6c0,0,0,0,0,0c1.1,0,2-0.9,2-2c0-1.1-0.9-2-2-2c-0.2,0-2.5,0-5.4,1      c-0.8-2-1.6-4.1-2.3-6.3c2.4-0.8,4.3-0.8,4.4-0.8c0,0,0,0,0,0c1.1,0,2-0.9,2-2c0-1.1-0.9-2-2-2c-0.2,0-2.5,0-5.5,1      c-0.5-2.1-1-4.3-1.4-6.6c2-0.6,3.6-0.6,3.6-0.6c0,0,0,0,0,0c1.1,0,2-0.9,2-2c0-1.1-0.9-2-2-2c-0.1,0-1.9,0-4.3,0.6      c-0.3-2.5-0.6-5.1-0.7-7.8c1.7-0.1,2.9,0.1,3,0.2c1.1,0.2,2.1-0.5,2.3-1.5c0.2-1.1-0.5-2.1-1.5-2.4c-0.1,0-1.7-0.3-3.9-0.3      c0-2.2,0-4.4,0.1-6.8c2.1,0.3,3.6,0.9,3.6,0.9c1,0.4,2.2,0,2.6-1c0.5-1,0-2.2-1-2.6c-0.2-0.1-2.1-0.9-5-1.3      c0.2-1.9,0.4-3.9,0.7-5.9c1.9,0.5,3.1,1.2,3.1,1.2c1,0.5,2.2,0.2,2.7-0.7c0.5-1,0.2-2.2-0.7-2.7c-0.1-0.1-1.9-1.1-4.5-1.7      c0.4-2.2,0.8-4.5,1.3-6.9c0.2-1.1-0.4-2.1-1.5-2.4c-1.1-0.2-2.1,0.4-2.4,1.5c-0.5,2.5-1,4.9-1.4,7.2c-1.8,0-3.8,0.2-5.8,0.9      c-1,0.4-1.6,1.5-1.2,2.5c0.4,1,1.5,1.6,2.5,1.2c1.3-0.5,2.6-0.7,3.9-0.7c-0.3,2.2-0.5,4.3-0.7,6.4c-1.6,0.2-3.4,0.6-5.1,1.5      c-1,0.5-1.4,1.7-0.9,2.7c0.5,1,1.7,1.4,2.7,0.9c1-0.5,2.1-0.8,3.1-1c-0.1,2.5-0.2,4.9-0.2,7.3c-1.9,0.5-3.9,1.4-5.8,2.9      c-0.9,0.7-1,1.9-0.3,2.8c0.7,0.9,1.9,1,2.8,0.3c1.1-0.9,2.3-1.5,3.4-1.9c0.1,3,0.4,5.9,0.8,8.6c-1.6,0.9-3.3,2-4.8,3.7      c-0.7,0.8-0.6,2.1,0.2,2.8c0.8,0.7,2.1,0.6,2.8-0.2c0.8-0.9,1.6-1.6,2.5-2.1c0.4,2.3,0.9,4.5,1.5,6.6c-1.3,0.8-2.5,1.8-3.7,3.1      c-0.7,0.8-0.6,2.1,0.2,2.8c0.8,0.7,2.1,0.6,2.8-0.2c0.6-0.7,1.2-1.2,1.8-1.7c0.7,2.2,1.5,4.2,2.3,6.1c-1.3,0.8-2.6,1.8-3.8,3.2      c-0.7,0.8-0.6,2.1,0.2,2.8c0.8,0.7,2.1,0.6,2.8-0.2c0.8-0.9,1.6-1.6,2.5-2.1c0.9,1.9,1.9,3.7,2.8,5.3c-1,0.7-2,1.5-2.9,2.6      c-0.7,0.8-0.6,2.1,0.2,2.8c0.8,0.7,2.1,0.6,2.8-0.2c0.6-0.7,1.3-1.3,2-1.8c2.5,3.7,4.8,6.3,6.5,8.1c-0.9-0.1-1.9-0.1-2.8-0.1      c-21.1,0-36.5,13.4-41.3,21.2c-1.3-2-2.4-4.1-3.3-6.3c-13.3-33.6-13.1-73.2-8-108.8c0.8-6.1-0.4-12.4-3.5-18.2l16-19      c0.7-0.8,0.6-2.1-0.2-2.8c-0.8-0.7-2.1-0.6-2.8,0.2l-15.1,18c-10.3-15.4-14.4-34.2-12.1-56c0.1-1.1-0.6-2-1.7-2.2      c-1-0.2-2,0.5-2.2,1.6c-1.9,9.6-4.6,17.4-8.3,23.6c-5.5-9.7-15-16.4-26-18.3c0.4-2.4,1.5-7.1,3.3-13.3c1.3,0.4,2.6,1,3.9,1.9      c0.9,0.6,2.1,0.5,2.8-0.4c0.7-0.9,0.5-2.1-0.4-2.8c-1.7-1.2-3.4-2-5.1-2.5c0.7-2.3,1.6-4.7,2.5-7.2c1,0.4,1.9,0.9,2.9,1.6      c0.9,0.6,2.1,0.5,2.8-0.4c0.7-0.9,0.5-2.1-0.4-2.8c-1.2-0.9-2.5-1.6-3.8-2.1c0.9-2.1,1.8-4.3,2.8-6.5c0.8,0.4,1.7,0.8,2.5,1.4      c0.9,0.7,2.1,0.5,2.8-0.4c0.7-0.9,0.5-2.1-0.4-2.8c-1-0.8-2.1-1.4-3.2-1.8c1.1-2.2,2.3-4.5,3.5-6.7c0.8,0.3,1.6,0.8,2.4,1.4      c0.9,0.7,2.1,0.5,2.8-0.4c0.7-0.9,0.5-2.1-0.4-2.8c-0.9-0.7-1.8-1.2-2.8-1.6c1.3-2.1,2.6-4.3,4.1-6.4c1.2,0.4,2.4,0.9,3.5,1.8      c0.9,0.6,2.1,0.5,2.8-0.4c0.7-0.9,0.5-2.1-0.4-2.8c-1.1-0.9-2.3-1.5-3.5-2c1.4-1.9,2.8-3.8,4.3-5.6c0.8,0.3,1.5,0.8,2.3,1.3      c0.9,0.7,2.1,0.5,2.8-0.4c0.7-0.9,0.5-2.1-0.4-2.8c-0.7-0.5-1.3-0.9-2-1.2c1.6-1.9,3.3-3.7,5.1-5.5c1.1,0.4,2.2,0.9,3.3,1.7      c0.9,0.6,2.1,0.5,2.8-0.4c0.7-0.9,0.5-2.1-0.4-2.8c-0.8-0.6-1.7-1.1-2.5-1.5c1.7-1.6,3.5-3.1,5.3-4.6c1.1,0.4,2.2,0.9,3.3,1.7      c0.9,0.6,2.1,0.5,2.8-0.4c0.7-0.9,0.5-2.1-0.4-2.8c-0.7-0.5-1.4-0.9-2.1-1.3c2.2-1.6,4.5-3.1,6.8-4.5c1,0.7,2,1.5,2.9,2.6      c0.7,0.9,1.9,1,2.8,0.3c0.9-0.7,1-1.9,0.3-2.8c-0.7-0.9-1.5-1.6-2.3-2.3c2.9-1.6,5.9-3.1,9-4.5c1-0.4,1.5-1.6,1-2.6      c-0.4-1-1.6-1.5-2.6-1c-4,1.7-7.8,3.6-11.3,5.7c-3.4-1.5-6.4-1.7-6.6-1.7c-1,0-2,0.8-2,1.9c0,1.1,0.8,2,1.9,2c0,0,1,0,2.3,0.4      c-2.4,1.5-4.6,3.2-6.8,4.8c-4-0.8-7.2-0.1-7.4-0.1c-1.1,0.2-1.7,1.3-1.5,2.4s1.3,1.7,2.4,1.5c0,0,0.9-0.2,2.2-0.2      c-1.5,1.3-3,2.6-4.4,4c-3.8-0.7-6.9-0.1-7.1,0c-1.1,0.2-1.7,1.3-1.5,2.4c0.2,1.1,1.3,1.7,2.4,1.5c0,0,1.1-0.2,2.7-0.2      c-1.5,1.6-3,3.2-4.4,4.8c-4.2-1-7.8-0.3-8-0.2c-1.1,0.2-1.7,1.3-1.5,2.4c0.2,1.1,1.3,1.7,2.4,1.5c0,0,1.8-0.4,4.2-0.1      c-1.5,1.9-2.9,3.7-4.2,5.6c-3.4-0.5-6.1,0.1-6.3,0.1c-1.1,0.2-1.7,1.3-1.5,2.4s1.3,1.7,2.4,1.5c0,0,1.2-0.3,2.9-0.2      c-1.3,2-2.5,3.9-3.6,5.9c-3.9-0.8-7.1-0.1-7.3-0.1c-1.1,0.2-1.7,1.3-1.5,2.4c0.2,1.1,1.3,1.7,2.4,1.5c0,0,1.9-0.4,4.3-0.1      c-1.2,2.2-2.4,4.4-3.4,6.6c-3.7-0.7-6.7,0-6.9,0c-1.1,0.2-1.7,1.3-1.5,2.4c0.2,1.1,1.3,1.7,2.4,1.5c0,0,1.8-0.4,4.2-0.1      c-1,2.2-1.9,4.4-2.8,6.5c-3.4-0.5-6.1,0.1-6.3,0.1c-1.1,0.2-1.7,1.3-1.5,2.4s1.3,1.7,2.4,1.5c0,0,1.7-0.4,3.9-0.2      c-1,2.6-1.8,5-2.6,7.4c-2.7-0.2-4.7,0.2-4.9,0.3c-1.1,0.2-1.7,1.3-1.5,2.4c0.2,1.1,1.3,1.7,2.4,1.5c0,0,1.2-0.2,2.8-0.2      c-1.9,6.3-2.9,11-3.3,13.4c-4.9-0.3-9.5,0.3-14.1,1.8c0.8-14.9,6.2-29.4,13.5-42.3c21.2-38.1,48.3-61.3,82.7-70.8      c0.9-0.2,1.5-1.1,1.5-2c-0.1-0.9-0.8-1.7-1.7-1.8c-0.3,0-30.6-5.2-35.7-45.2c-2.6-20.3-4.1-40.6,0.6-58l24.2,18.1      c-2.5,4.7-4.3,10.1-4.3,15.9c0,1.1,0.9,2,2,2s2-0.9,2-2c0-4.3,1.2-8.4,2.9-12.1c2.1,4,5.3,7.9,10,11c0.9,0.6,2.1,0.3,2.7-0.6      c0.6-0.9,0.3-2.1-0.6-2.7c-4.7-3.1-7.7-7-9.5-11c2.1-0.9,6.5-2,13.2,0.9c1,0.4,2.2,0,2.6-1c0.4-1,0-2.2-1-2.6      c-5.2-2.2-9.4-2.4-12.5-2c5.2-6.7,11.1-10.9,11.2-11c0.9-0.6,1.1-1.9,0.5-2.8c-0.6-0.9-1.9-1.1-2.8-0.5      c-0.5,0.3-7.4,5.3-13.1,13.2c-1.9-8.3-0.1-15.7,0-16.2c0.3-1.1-0.4-2.1-1.5-2.4c-1.1-0.3-2.1,0.4-2.4,1.5      c0,0.1-1.9,7.9-0.1,16.9l-22.3-16.7c6.2-18.4,20.4-33.3,49-40.8c28.5-7.6,57-8.1,80.1-1.6c16.2,4.4,34.6,14.8,40,30.6      c10.6,29.5,15.4,81-3.3,100.9c-16.5,17.6-22,18.1-22.6,18.1c-1,0-1.9,0.8-2,1.8c-0.1,1,0.6,1.9,1.6,2.1c1.9,0.4,12,2.4,25.3,6.9      c0.7,2.4,1.9,4.7,3.5,6.8l-51.8,48.6v-8c0-1.1-0.9-2-2-2s-2,0.9-2,2v11.2h-11.2c-1.1,0-2,0.9-2,2s0.9,2,2,2h11.2v11.2      c0,1.1,0.9,2,2,2s2-0.9,2-2v-11.2h11.2c1.1,0,2-0.9,2-2c0-1.1-0.9-2-2-2h-8.8l52.1-48.9c3.7,3.3,8.4,5.2,13.4,5.4      c3.5,0.1,7.2-0.6,10.5-2.4C392.4,207.2,426.8,236.1,421.6,285.2z"/>
				<path class="st9" d="M298.5,153.8c0.8,0.7,2.1,0.7,2.8-0.2c0.4-0.4,4-4.6,7.3-12.2c0.8,0.4,1.5,0.8,2.3,1.4      c0.9,0.7,2.1,0.5,2.8-0.3c0.7-0.9,0.5-2.1-0.3-2.8c-1.1-0.9-2.2-1.5-3.3-2c0.7-1.7,1.3-3.6,1.8-5.7c0.9,0.4,1.9,0.9,2.8,1.7      c0.9,0.7,2.1,0.5,2.8-0.3c0.7-0.9,0.5-2.1-0.3-2.8c-1.4-1.1-2.9-1.9-4.3-2.5c0.5-2,0.8-4.2,1.2-6.4c0.7,0.4,1.4,0.8,2.1,1.3      c0.9,0.7,2.1,0.5,2.8-0.3c0.7-0.9,0.5-2.1-0.3-2.8c-1.3-1.1-2.7-1.8-4.1-2.4c0.2-2.2,0.3-4.4,0.3-6.8c1,0.4,1.9,0.9,2.8,1.7      c0.9,0.7,2.1,0.5,2.8-0.3c0.7-0.9,0.5-2.1-0.3-2.8c-1.7-1.4-3.6-2.3-5.4-2.8c-0.1-2.7-0.3-5.6-0.7-8.6c1.2,0.2,2.5,0.6,3.7,1.2      c1,0.5,2.2,0.2,2.7-0.8c0.5-1,0.2-2.2-0.8-2.7c-2.1-1.1-4.2-1.6-6.2-1.8c-0.4-2.3-0.9-4.7-1.5-7.2c1,0,2.1,0.1,3.2,0.4      c1,0.3,2.1-0.3,2.5-1.4c0.3-1.1-0.3-2.2-1.4-2.5c-1.9-0.5-3.6-0.7-5.3-0.6c-0.5-2-1.2-4.1-1.8-6.2c1.2-0.2,2.5-0.3,4,0      c1.1,0.2,2.1-0.6,2.3-1.6s-0.6-2.1-1.6-2.3c-2.1-0.3-4.1-0.2-5.9,0.1c-0.8-2.2-1.7-4.5-2.6-6.9c-0.4-1-1.6-1.5-2.6-1.1      c-1,0.4-1.5,1.6-1.1,2.6c0.9,2.2,1.7,4.4,2.5,6.5c-2.5,1.1-4,2.3-4.1,2.5c-0.8,0.7-0.9,1.9-0.2,2.8c0.7,0.8,2,0.9,2.8,0.3      c0,0,1.1-0.9,2.9-1.7c0.6,1.9,1.2,3.8,1.7,5.7c-2.7,0.8-4.5,2-4.7,2.1c-0.9,0.6-1.1,1.8-0.5,2.8c0.6,0.9,1.8,1.1,2.8,0.5      c0,0,1.3-0.9,3.4-1.5c0.5,2.3,1,4.5,1.3,6.6c-2.2,0.3-3.7,0.9-3.8,0.9c-1,0.4-1.5,1.6-1.1,2.6c0.4,1,1.6,1.5,2.6,1.1      c0,0,1.2-0.5,2.9-0.7c0.3,2.7,0.6,5.3,0.7,7.8c-2.4-0.2-4.1,0.1-4.3,0.1c-1.1,0.2-1.8,1.2-1.6,2.3c0.2,1.1,1.2,1.8,2.3,1.6      c0,0,1.6-0.3,3.6,0c0,2.3-0.1,4.6-0.3,6.8c-3.1-0.4-5.4,0-5.6,0c-1.1,0.2-1.8,1.2-1.6,2.3c0.2,1.1,1.2,1.8,2.3,1.6      c0,0,1.9-0.3,4.4,0c-0.3,2.3-0.7,4.6-1.2,6.6c-3-0.4-5.3,0-5.4,0c-1.1,0.2-1.8,1.2-1.6,2.3c0.2,1.1,1.2,1.8,2.3,1.6      c0,0,1.6-0.3,3.8,0c-0.5,1.9-1.1,3.8-1.8,5.4c-3.5-0.7-6.4-0.2-6.6-0.2c-1.1,0.2-1.8,1.2-1.6,2.3c0.2,1.1,1.2,1.8,2.3,1.6      c0,0,1.9-0.3,4.3,0c-3.1,7-6.3,10.7-6.3,10.8C297.6,151.8,297.7,153,298.5,153.8z"/>
				<path class="st9" d="M267.1,133.6c0.4-1,0-2.2-1-2.6c0,0-0.5-0.2-1.2-0.7c2.3-1.7,4.5-3.6,6.5-5.7c0.8-0.8,0.8-2,0-2.8      s-2-0.8-2.8,0c-2.1,2.1-4.4,4.1-6.8,5.8c-0.6-0.7-1.2-1.6-1.6-2.5c-0.4-1-1.6-1.5-2.6-1c-1,0.4-1.5,1.6-1,2.6      c0.5,1.2,1.2,2.3,1.9,3.2c-1.9,1.3-3.9,2.4-6,3.4c-0.7-0.8-1.3-1.7-1.6-2.9c-0.3-1-1.5-1.6-2.5-1.2c-1,0.4-1.6,1.5-1.2,2.5      c0.4,1.3,1,2.3,1.7,3.3c-2.1,0.9-4.3,1.6-6.5,2.2c-0.3-0.8-0.5-1.7-0.6-2.7c0-1.1-0.9-1.9-2-1.9c0,0-0.1,0-0.1,0      c-1.1,0-1.9,1-1.9,2.1c0.1,1.3,0.3,2.4,0.7,3.4c-2.1,0.4-4.2,0.8-6.3,1c-0.2-0.9-0.3-1.8-0.2-2.9c0.1-1.1-0.7-2.1-1.8-2.2      c-1.1-0.1-2.1,0.7-2.2,1.8c-0.1,1.3,0,2.4,0.2,3.5c-0.7,0-1.4,0.1-2.1,0.1c-1.8,0-3.6-0.1-5.4-0.2c0-0.9,0.1-1.8,0.4-2.7      c0.3-1-0.2-2.2-1.3-2.5c-1.1-0.3-2.2,0.2-2.5,1.3c-0.4,1.2-0.6,2.4-0.6,3.5c-2.1-0.3-4.1-0.8-6.2-1.3c0.1-0.9,0.4-1.8,0.9-2.7      c0.5-1,0.1-2.2-0.8-2.7c-1-0.5-2.2-0.1-2.7,0.8c-0.6,1.1-1,2.3-1.2,3.3c-2.1-0.7-4.2-1.5-6.2-2.5c0.3-0.7,0.7-1.4,1.3-2.1      c0.7-0.8,0.6-2.1-0.2-2.8c-0.8-0.7-2.1-0.6-2.8,0.2c-0.8,0.9-1.3,1.9-1.8,2.8c-1.8-1-3.5-2.1-5.2-3.3c0.5-0.7,1.2-1.3,2-1.8      c0.9-0.6,1.2-1.8,0.6-2.7c-0.6-0.9-1.8-1.2-2.7-0.6c-1.2,0.8-2.2,1.8-3,2.8c-1.7-1.4-3.3-2.8-4.9-4.4c-0.8-0.8-2-0.8-2.8,0      s-0.8,2,0,2.8c1.8,1.8,3.7,3.5,5.7,5c-0.8,1.8-1,3.2-1,3.3c-0.1,1.1,0.6,2.1,1.7,2.2c1.1,0.1,2.1-0.6,2.2-1.7      c0,0,0.1-0.6,0.4-1.4c1.9,1.3,3.9,2.6,6,3.7c-0.3,2.3-0.1,4-0.1,4.1c0.2,1,1,1.7,2,1.7c1.2,0,2.1-1.1,2-2.3c0,0-0.1-0.7-0.1-1.6      c2.2,1,4.5,1.9,6.9,2.7c0.2,2.2,0.8,3.7,0.8,3.8c0.4,1,1.6,1.5,2.6,1.1c1-0.4,1.5-1.5,1.1-2.6c0,0-0.2-0.5-0.3-1.1      c2.1,0.5,4.3,0.9,6.5,1.2c0.5,2.1,1.4,3.5,1.4,3.6c0.6,0.9,1.8,1.2,2.7,0.7c0.9-0.6,1.2-1.8,0.7-2.7c0,0-0.3-0.5-0.5-1.2      c1.5,0.1,3.1,0.2,4.6,0.2c1.1,0,2.2,0,3.3-0.1c1,1.9,2.1,3.1,2.1,3.2c0.8,0.8,2,0.8,2.8,0.1c0.8-0.8,0.8-2,0.1-2.8      c0,0-0.3-0.3-0.7-0.9c2.2-0.3,4.3-0.6,6.4-1.1c1.3,1.8,2.5,2.8,2.6,2.9c0.9,0.7,2.1,0.5,2.8-0.3c0.7-0.9,0.5-2.1-0.3-2.8      c0,0-0.4-0.3-0.9-0.9c2.5-0.7,4.9-1.6,7.3-2.7c1.6,1.3,3,1.8,3.1,1.9c1,0.4,2.2-0.1,2.6-1.1c0.4-1-0.1-2.2-1.1-2.6      c0,0-0.2-0.1-0.4-0.2c1.9-1,3.7-2.1,5.5-3.3c1.6,1.2,2.9,1.8,3,1.9C265.5,135,266.7,134.6,267.1,133.6z"/>
				<path class="st9" d="M252.8,109.6c14.8,0,26.8-12,26.8-26.8c0-14.8-12-26.8-26.8-26.8c-14.8,0-26.8,12-26.8,26.8      C226.1,97.6,238.1,109.6,252.8,109.6z M252.8,60.1c12.6,0,22.8,10.2,22.8,22.8s-10.2,22.8-22.8,22.8      c-12.6,0-22.8-10.2-22.8-22.8S240.3,60.1,252.8,60.1z"/>
				<path class="st9" d="M246.6,89c0.8,0.8,2,0.8,2.8,0l3.4-3.4l3.4,3.4c0.8,0.8,2,0.8,2.8,0s0.8-2,0-2.8l-3.4-3.4l3.4-3.4      c0.8-0.8,0.8-2,0-2.8s-2-0.8-2.8,0l-3.4,3.4l-3.4-3.4c-0.8-0.8-2-0.8-2.8,0s-0.8,2,0,2.8l3.4,3.4l-3.4,3.4      C245.9,87,245.9,88.3,246.6,89z"/>
				<path class="st9" d="M236.2,179.5c-0.5,0.8-52.9,79.9-6.3,172.1c0.5,1,1.7,1.4,2.7,0.9c1-0.5,1.4-1.7,0.9-2.7      c-45.5-90.1,5.5-167.4,6-168.1c0.6-0.9,0.4-2.1-0.5-2.8C238,178.3,236.8,178.6,236.2,179.5z"/>
			</g>
		</g>
	</g>
</g>
</svg>
