<svg height="512" viewBox="0 0 96 96" width="512" xmlns="http://www.w3.org/2000/svg"><g id="Letter"><path d="m95 74.88h-94v-36.61l43.14-34.34a6.22 6.22 0 0 1 7.72 0l43.14 34.34z" fill="#f45a29"/><path d="m95 75.88h-94a1 1 0 0 1 -1-1v-36.61a1 1 0 0 1 .38-.79l43.14-34.33a7.16 7.16 0 0 1 9 0l43.1 34.33a1 1 0 0 1 .38.79v36.61a1 1 0 0 1 -1 1zm-93-2h92v-35.13l-42.77-34a5.17 5.17 0 0 0 -6.46 0l-42.77 34z" fill="#302d3d"/><path d="m13.26 11.59h69.49v57.7h-69.49z" fill="#f4e6b5"/><path d="m19.48 16.88h57.04v52.41h-57.04z" fill="#f4be97"/><path d="m82.75 70.29h-69.5a1 1 0 0 1 -1-1v-57.7a1 1 0 0 1 1-1h69.5a1 1 0 0 1 1 1v57.7a1 1 0 0 1 -1 1zm-68.5-2h67.5v-55.7h-67.5z" fill="#302d3d"/><path d="m95 38.27v48.32l-39.66-25.05z" fill="#f4be10"/><path d="m95 38.27v4l-36.38 21.34-3.28-2.07z" fill="#f4e175"/><path d="m95 46.14v35.62l-29.24-18.47z" fill="#f48733"/><path d="m90 78.51a1 1 0 0 1 -1-1v-30.51a1 1 0 0 1 2 0v30.51a1 1 0 0 1 -1 1z" fill="#302d3d"/><path d="m95 86.59a6.83 6.83 0 0 1 -6.83 6.83h-80.34a6.83 6.83 0 0 1 -6.83-6.83c39.93-25.22 39.57-25.05 39.67-25.05l3.87 2.28a6.85 6.85 0 0 0 6.92 0l3.87-2.28c.1 0-.43-.28 39.67 25.05z" fill="#f48c06"/><path d="m10.92 87.42 29.85-18.86.73.43a12.87 12.87 0 0 0 13 0l.74-.44 29.84 18.87z" fill="#f4be5b"/><path d="m88.17 94.42h-80.34a7.84 7.84 0 0 1 -7.83-7.83 1 1 0 0 1 .47-.85c41.46-26.19 39.71-25.21 40.21-25.2s.22 0 4.37 2.41a5.84 5.84 0 0 0 5.95.05c4.26-2.51 4-2.42 4.42-2.41s-.86-.71 40.15 25.2a1 1 0 0 1 .47.85 7.84 7.84 0 0 1 -7.87 7.78zm-86.17-7.3a5.85 5.85 0 0 0 5.81 5.3h80.36a5.85 5.85 0 0 0 5.83-5.3c-63.72-40.23-26.46-16.81-38.67-24.43l-3.36 2a7.87 7.87 0 0 1 -7.93 0l-3.37-2c-11.4 7.12 22.62-14.27-38.67 24.43z" fill="#302d3d"/><path d="m40.66 61.54-39.66 25.05v-48.32z" fill="#f4be10"/><path d="m40.66 61.54-3.28 2.07-36.38-21.34v-4z" fill="#f4e175"/><path d="m30.24 63.29-29.24 18.47v-35.62z" fill="#f48733"/><path d="m95 87.59c-.45 0 2.24 1.59-40.19-25.21a1 1 0 0 1 0-1.71l39.68-23.27a1 1 0 0 1 1.51.87v48.32a1 1 0 0 1 -1 1zm-37.74-26 36.74 23.18v-44.77z" fill="#302d3d"/><path d="m1 87.59a1 1 0 0 1 -1-1v-48.32a1 1 0 0 1 1.51-.87l39.66 23.27a1 1 0 0 1 0 1.71c-42.41 26.8-39.72 25.21-40.17 25.21zm1-47.59v44.77l36.74-23.2z" fill="#302d3d"/><path d="m6 58.67a1 1 0 0 1 -1-1v-10.67a1 1 0 0 1 2 0v10.67a1 1 0 0 1 -1 1z" fill="#302d3d"/><path d="m61.79 58a9.41 9.41 0 0 0 -9.49-8.6h-8.6a9.41 9.41 0 0 0 -9.49 8.6 9.19 9.19 0 0 0 5.51 9 1.16 1.16 0 0 1 .72 1.06v4.84a2.64 2.64 0 0 0 2.3 2.69 2.52 2.52 0 0 0 2.74-2.51 2.52 2.52 0 1 0 5 0 2.52 2.52 0 0 0 2.78 2.5 2.62 2.62 0 0 0 2.26-2.65v-4.84a1.16 1.16 0 0 1 .76-1.09 9.19 9.19 0 0 0 5.51-9z" fill="#def3ef"/><path d="m45.48 75.53a3.54 3.54 0 0 1 -6-2.63c0-5.13.06-4.87-.12-5a10.26 10.26 0 0 1 -6.15-10 10.4 10.4 0 0 1 10.49-9.5h8.6a10.4 10.4 0 0 1 10.49 9.5 10.26 10.26 0 0 1 -6.11 10.1c-.18.07-.12-.29-.12 5a3.53 3.53 0 0 1 -6 2.6 3.51 3.51 0 0 1 -5.08-.07zm5-3.45a1 1 0 0 1 1 1 1.49 1.49 0 0 0 .52 1.12 1.53 1.53 0 0 0 2.54-1.27v-4.84a2.18 2.18 0 0 1 1.32-2 8.23 8.23 0 0 0 4.93-8.09 8.39 8.39 0 0 0 -8.49-7.6h-8.6a8.39 8.39 0 0 0 -8.49 7.6 8.23 8.23 0 0 0 4.91 8.08 2.18 2.18 0 0 1 1.32 2v4.82a1.54 1.54 0 0 0 2.56 1.3 1.49 1.49 0 0 0 .49-1.12 1 1 0 0 1 2 0 1.52 1.52 0 1 0 3 0 1 1 0 0 1 1.03-1z" fill="#302d3d"/><path d="m45.48 74.08a1 1 0 0 1 -1-1v-5.56a1 1 0 0 1 2 0v5.56a1 1 0 0 1 -1 1z" fill="#302d3d"/><path d="m50.52 74.08a1 1 0 0 1 -1-1v-5.56a1 1 0 0 1 2 0v5.56a1 1 0 0 1 -1 1z" fill="#302d3d"/><circle cx="42.47" cy="59.02" fill="#504678" r="3.01"/><circle cx="53.53" cy="59.02" fill="#504678" r="3.01"/><g fill="#302d3d"><path d="m42.47 63a4 4 0 1 1 4-4 4 4 0 0 1 -4 4zm0-6a2 2 0 1 0 2 2 2 2 0 0 0 -2-2z"/><path d="m53.53 63a4 4 0 1 1 4-4 4 4 0 0 1 -4 4zm0-6a2 2 0 1 0 2 2 2 2 0 0 0 -2-2z"/><path d="m63.36 25c-.48 0-.29 0-5.12-3.82l-4.5 3.6a1 1 0 0 1 -1.25 0l-4.49-3.62-4.49 3.6a1 1 0 0 1 -1.25 0l-4.5-3.6-4.49 3.6a1 1 0 0 1 -1.25 0l-5.12-4.1a1 1 0 1 1 1.25-1.56l4.49 3.59 4.5-3.59a1 1 0 0 1 1.25 0l4.49 3.59 4.5-3.59a1 1 0 0 1 1.25 0l4.49 3.59 4.5-3.59a1 1 0 0 1 1.25 0l4.5 3.6 4.51-3.6a1 1 0 0 1 1.4.15 1 1 0 0 1 -.16 1.41c-5.48 4.34-5.26 4.34-5.76 4.34z"/><path d="m63.36 44.78c-.48 0-.29 0-5.12-3.82l-4.5 3.6a1 1 0 0 1 -1.25 0l-4.49-3.56-4.49 3.6a1 1 0 0 1 -1.25 0l-4.51-3.6-4.49 3.6a1 1 0 0 1 -1.25 0l-5.12-4.1a1 1 0 0 1 -.16-1.4 1 1 0 0 1 1.41-.16l4.49 3.6 4.5-3.6a1 1 0 0 1 1.25 0l4.49 3.6 4.5-3.6a1 1 0 0 1 1.25 0l4.49 3.6 4.5-3.6a1 1 0 0 1 1.25 0l4.5 3.6 4.51-3.6a1 1 0 0 1 1.24 1.56c-5.47 4.34-5.25 4.28-5.75 4.28z"/><path d="m44.54 34.41a1 1 0 0 1 -.69-.28l-3.45-3.31a1 1 0 0 1 1.39-1.44l2.75 2.62 2.76-2.65a1 1 0 0 1 1.39 0l2.76 2.65 2.76-2.65a1 1 0 0 1 1.42 0 1 1 0 0 1 0 1.41l-3.46 3.31a1 1 0 0 1 -1.38 0l-2.79-2.58c-3 2.88-2.92 2.92-3.46 2.92z"/></g></g></svg>