<svg id="Capa_1" enable-background="new 0 0 512 512" height="512" viewBox="0 0 512 512" width="512" xmlns="http://www.w3.org/2000/svg"><g><g><path clip-rule="evenodd" d="m330.491 277.642 88.358 24.236 85.09-24.236v-37.361c0-8.277-6.736-14.995-15.034-14.995-52.805 0-105.609 0-158.413 0v52.356z" fill="#f3f0f3" fill-rule="evenodd"/></g><g><path clip-rule="evenodd" d="m330.491 277.642v36.936c0 8.277-6.736 14.995-15.034 14.995h-53.941v54.426l22.793 10.97c3.695 1.786 5.769 5.811 5.059 9.865l-2.302 12.841c-.625 3.543-10.105 9.618-7.093 11.659 2.7 1.843 2.062 5.165 2.062 8 0 3.43 10.999 3.897 7.361 5.456l-27.88 12.132v34.583c0 8.277 6.736 14.995 15.034 14.995h59.256c6.963 0 13.016-4.762 14.636-11.537l32.285-130.735 32.285 130.735c1.62 6.775 7.673 11.537 14.636 11.537h12.704l21.514-12.501 14.04 12.501h10.999c8.327 0 15.034-6.718 15.034-14.995v-211.863c-64.343 0-108.792 0-173.448 0z" fill="#025f80" fill-rule="evenodd"/></g><g><path clip-rule="evenodd" d="m292.892 425.356 2.814-15.761c.909-4.961-1.648-9.921-6.196-12.104l-27.994-13.493v87.137l34.275-14.882c4.434-1.956 6.764-6.151 6.764-10.346 0-3.515-1.592-7.03-4.917-9.269-3.666-2.494-5.514-6.916-4.746-11.282z" fill="#aa6a51" fill-rule="evenodd"/></g><g><path clip-rule="evenodd" d="m330.491 314.578v-161.548l38.197 33.619c6.224 5.471 15.716 4.876 21.23-1.332l40.527-45.78c5.428-6.123 4.945-15.421-1.052-20.948l-3.467-3.203-22.651 10.772s2.188-16.838 3.808-28.148l-76.592-70.526-41.294-12.359c-3.808 34.129-32.854 60.69-68.094 60.69s-64.258-26.561-68.066-60.69l-41.323 12.359-47.547 43.795v42.35l-23.617-20.58-27.71 25.54c-5.997 5.528-6.48 14.825-1.08 20.948l40.555 45.78c5.485 6.208 15.006 6.803 21.23 1.332l38.168-33.619v161.547c0 8.277 6.736 14.995 15.034 14.995h134.768 53.941c8.3.001 15.035-6.717 15.035-14.994z" fill="#eb5569" fill-rule="evenodd"/></g><g><path clip-rule="evenodd" d="m153.036 15.124c3.808 34.129 32.825 60.69 68.066 60.69s64.286-26.561 68.094-60.69l-25.493-7.625c0 23.471-19.07 42.492-42.602 42.492s-42.6-19.021-42.6-42.492z" fill="#f3f0f3" fill-rule="evenodd"/></g><g><path clip-rule="evenodd" d="m178.501 7.499c0 23.471 19.07 42.492 42.602 42.492s42.602-19.021 42.602-42.492c-28.392 7.313-56.784 7.313-85.204 0z" fill="#eb5569" fill-rule="evenodd"/></g><g><path clip-rule="evenodd" d="m256.883 30.573 8.895 2.665 16.54 4.961c3.581-7.087 5.94-14.854 6.878-23.074l-25.493-7.625c.001 8.503-2.5 16.44-6.82 23.073z" fill="#e2dee2" fill-rule="evenodd"/></g><g><path clip-rule="evenodd" d="m289.197 15.124c-.938 8.221-3.297 15.987-6.878 23.074l24.782 7.398 80.088 73.815c-.995 7.087-1.364 8.731-2.132 14.655-.938 7.2.483 7.512 6.65 4.592l11.965-4.082 2.302 2.126c8.64 10.091 10.97 18.085 4.206 25.739l20.264-22.904c5.428-6.123 4.945-15.421-1.052-20.948l-3.467-3.203-22.651 10.772s2.188-16.838 3.808-28.148l-76.592-70.526z" fill="#e53950" fill-rule="evenodd"/></g><g><path clip-rule="evenodd" d="m73.546 186.649 38.168-33.619v-22.366l-50.105 42.492c-6.224 5.471-15.659 4.904-21.173-1.247l11.88 13.408c5.485 6.208 15.006 6.803 21.23 1.332z" fill="#e53950" fill-rule="evenodd"/></g><g><path clip-rule="evenodd" d="m230.566 163.689 4.803 8.646 17.62-6.746c4.917-1.871 8.867-5.528 11.141-10.176.483-.964.853-1.956 1.194-2.976l2.33-7.625c2.188-7.03.398-14.684-4.632-20.069-3.894-4.167-9.35-6.548-15.063-6.548h-20.775l-1.819 7.54c-3.04 12.867-1.193 26.388 5.201 37.954z" fill="#aa6a51" fill-rule="evenodd"/></g><g><path clip-rule="evenodd" d="m166.422 208.618c0-6.803-5.514-12.302-12.306-12.302h-15.063-27.34v59.67h27.34 3.496c13.187 0 23.873-10.658 23.873-23.84v-22.649z" fill="#aa6a51" fill-rule="evenodd"/></g><g><path clip-rule="evenodd" d="m330.491 130.665c0-18.227-25.379-16.271-25.379 0v198.908h10.345c8.27 0 14.977-6.661 15.034-14.91 0-61.342 0-122.656 0-183.998z" fill="#e53950" fill-rule="evenodd"/></g><g><path clip-rule="evenodd" d="m363.516 225.286v52.356 1.531c0 5.187 4.235 9.411 9.464 9.411h10.146c5.229 0 9.464-4.224 9.464-9.411v-1.531-52.356z" fill="#fed2a4" fill-rule="evenodd"/></g><g><path clip-rule="evenodd" d="m433.685 225.286v52.356 1.531c0 5.187 4.235 9.411 9.464 9.411h10.146c5.229 0 9.464-4.224 9.464-9.411v-1.531-52.356z" fill="#fed2a4" fill-rule="evenodd"/></g><g><path clip-rule="evenodd" d="m482.482 277.642h21.457v-37.361c0-8.277-6.736-14.995-15.034-14.995h-21.457c8.299 0 15.034 6.718 15.034 14.995z" fill="#e2dee2" fill-rule="evenodd"/></g><g><path clip-rule="evenodd" d="m482.482 283.765v205.74c0 5.358-2.842 10.091-7.105 12.728l2.529 2.268h10.999c8.327 0 15.034-6.718 15.034-14.995v-211.864h-21.457z" fill="#024c67" fill-rule="evenodd"/></g><g><path clip-rule="evenodd" d="m475.32 382.524h28.619v-59.244h-33.138-11.567c-6.366 0-11.539 5.159-11.539 11.509v4.535 29.991 1.701c0 6.35 5.172 11.509 11.539 11.509h16.086z" fill="#aa6a51" fill-rule="evenodd"/></g><g><path clip-rule="evenodd" d="m482.482 323.28h21.457v59.244h-21.457z" fill="#935b44" fill-rule="evenodd"/></g><g><path d="m244.606 97.114c-4.143 0-7.5 3.358-7.5 7.5v6.078h-9.921c-3.465 0-6.479 2.373-7.291 5.741l-1.109 4.598-6.372-1.651c-4.019-1.041-8.104 1.37-9.142 5.379-1.039 4.01 1.369 8.103 5.378 9.142l7.831 2.029c-.22 6.421.578 12.822 2.372 18.982l-5.377 3.586c-3.446 2.298-4.377 6.955-2.079 10.401 1.446 2.167 3.823 3.34 6.247 3.34 1.43 0 2.876-.409 4.154-1.261l3.093-2.062 3.923 7.062c1.356 2.442 3.902 3.859 6.559 3.859.895 0 1.802-.161 2.68-.497l17.625-6.748c3.497-1.342 6.623-3.323 9.257-5.806l2.123 2.111c1.463 1.455 3.375 2.181 5.287 2.181 1.927 0 3.854-.738 5.319-2.213 2.92-2.938 2.905-7.687-.032-10.606l-4.788-4.759 1.973-6.458c2.976-9.558.557-20.064-6.313-27.42-4.348-4.653-10.167-7.675-16.398-8.612v-6.393c.001-4.145-3.357-7.503-7.499-7.503zm15.876 45.504-2.319 7.592c-1.202 3.868-4.066 6.921-7.855 8.374l-11.543 4.419-1.635-2.943c-5.498-9.944-7.084-21.523-4.474-32.568l.434-1.799h14.869c3.615 0 7.108 1.519 9.582 4.167 3.198 3.423 4.329 8.298 2.941 12.758z"/><path d="m152.241 96.094c-4.143 0-7.5 3.358-7.5 7.5s3.357 7.5 7.5 7.5h.227c4.143 0 7.5-3.358 7.5-7.5s-3.357-7.5-7.5-7.5z"/><path d="m312.9 81.103c4.143 0 7.5-3.358 7.5-7.5s-3.357-7.5-7.5-7.5h-.256c-4.143 0-7.5 3.358-7.5 7.5s3.357 7.5 7.5 7.5z"/><path d="m197.6 296.084c4.143 0 7.5-3.358 7.5-7.5s-3.357-7.5-7.5-7.5h-.256c-4.143 0-7.5 3.358-7.5 7.5s3.357 7.5 7.5 7.5z"/><path d="m287.959 218.321c-3.392-2.377-8.069-1.554-10.445 1.838l-3.366 4.803-3.2-2.23c-3.398-2.369-8.073-1.532-10.441 1.866s-1.533 8.073 1.865 10.441l3.168 2.207-6.394 9.125-3.197-2.233c-3.397-2.372-8.07-1.541-10.443 1.855-2.371 3.396-1.541 8.071 1.855 10.443l3.177 2.219-.933 1.332c-2.378 3.392-1.555 8.069 1.838 10.446 1.31.918 2.811 1.358 4.297 1.358 2.363 0 4.689-1.114 6.148-3.196l.947-1.352 3.197 2.233c1.308.913 2.805 1.352 4.287 1.352 2.368 0 4.697-1.118 6.156-3.207 2.371-3.396 1.541-8.071-1.855-10.443l-3.177-2.219 6.403-9.137 3.198 2.228c1.307.911 2.802 1.347 4.281 1.347 2.37 0 4.702-1.121 6.16-3.213 2.368-3.398 1.533-8.073-1.865-10.441l-3.166-2.206 3.342-4.77c2.379-3.391 1.556-8.069-1.837-10.446z"/><path d="m412.91 316.092c-4.143 0-7.5 3.358-7.5 7.5s3.357 7.5 7.5 7.5h.256c4.143 0 7.5-3.358 7.5-7.5s-3.357-7.5-7.5-7.5z"/><path d="m337.71 411.11c-4.143 0-7.5 3.358-7.5 7.5s3.357 7.5 7.5 7.5h.256c4.143 0 7.5-3.358 7.5-7.5s-3.357-7.5-7.5-7.5z"/><path d="m312.644 361.106c-4.143 0-7.5 3.358-7.5 7.5s3.357 7.5 7.5 7.5h.256c4.143 0 7.5-3.358 7.5-7.5s-3.357-7.5-7.5-7.5z"/><path d="m448.008 441.1c-4.143 0-7.5 3.358-7.5 7.5s3.357 7.5 7.5 7.5h.228c4.143 0 7.5-3.358 7.5-7.5s-3.357-7.5-7.5-7.5z"/><path d="m488.905 217.786h-150.913v-48.163l25.744 22.659c9.298 8.173 23.558 7.284 31.797-1.994l40.525-45.776c8.065-9.098 7.356-23.201-1.574-31.431l-3.467-3.204c-.009-.008-.02-.014-.029-.023-.252-.23-.518-.44-.796-.631-.057-.039-.115-.076-.173-.113-.252-.164-.512-.315-.781-.448-.036-.018-.071-.039-.107-.056-.291-.137-.591-.25-.896-.349-.078-.025-.155-.048-.233-.07-.308-.089-.62-.165-.939-.214-.003 0-.007-.001-.01-.002-.328-.05-.661-.071-.995-.077-.067-.001-.133-.001-.199-.001-.662.005-1.328.1-1.985.287-.073.021-.144.042-.216.065-.322.103-.642.22-.956.369l-10.169 4.842c.079-.595.16-1.198.242-1.806.571-4.255 1.185-8.748 1.733-12.577.041-.288.062-.573.07-.857.002-.076-.002-.151-.002-.227 0-.213-.008-.425-.026-.634-.007-.081-.017-.161-.026-.242-.025-.211-.059-.418-.102-.624-.015-.071-.028-.141-.045-.211-.057-.237-.124-.47-.203-.699-.012-.035-.021-.071-.033-.106-.096-.267-.207-.529-.333-.782-.021-.043-.047-.084-.07-.127-.104-.201-.217-.397-.339-.588-.048-.075-.099-.147-.15-.221-.111-.161-.229-.318-.352-.47-.055-.068-.109-.136-.167-.202-.161-.185-.33-.361-.509-.529-.02-.019-.037-.041-.058-.06l-.032-.029c-.009-.008-.018-.017-.027-.025l-76.533-70.472c-.837-.771-1.84-1.342-2.93-1.668l-41.094-12.299c-.038-.013-.078-.023-.116-.035l-25.471-7.621c-1.318-.422-2.788-.455-4.126-.109-27.015 6.959-54.423 6.957-81.463 0-1.337-.346-2.808-.312-4.125.11l-66.682 19.953c-1.091.326-2.093.897-2.931 1.668l-47.547 43.795c-1.542 1.42-2.419 3.42-2.419 5.517v25.866l-11.189-9.75c-2.885-2.513-7.198-2.454-10.011.14l-27.71 25.541c-8.923 8.224-9.65 22.32-1.611 31.436l40.549 45.773c8.215 9.297 22.482 10.196 31.808 1.994l25.711-22.646v26.685 59.67 58.592c0 12.404 10.108 22.495 22.539 22.495l42.658-.028c4.143-.003 7.498-3.363 7.495-7.505-.003-4.141-3.36-7.495-7.5-7.495-.002 0-.004 0-.005 0l-42.653.028c-4.154 0-7.534-3.362-7.534-7.495v-51.092h12.34v5.511c0 4.142 3.357 7.5 7.5 7.5s7.5-3.358 7.5-7.5v-5.775c8.125-1.039 15.289-5.186 20.247-11.216h12.126c4.143 0 7.5-3.358 7.5-7.5s-3.357-7.5-7.5-7.5h-5.383c.248-1.584.379-3.206.379-4.859v-15.149h10.006c4.143 0 7.5-3.358 7.5-7.5s-3.357-7.5-7.5-7.5h-11.169c-2.733-7.668-10.047-13.181-18.644-13.181h-7.563v-10.33c0-4.142-3.357-7.5-7.5-7.5s-7.5 3.358-7.5 7.5v10.33h-12.34v-35.789-22.366c0-4.142-3.357-7.5-7.5-7.5s-7.5 3.358-7.5 7.5v18.978l-35.62 31.374c-3.125 2.748-7.905 2.449-10.663-.672l-40.545-45.767c-2.722-3.086-2.485-7.686.538-10.473l22.768-20.985 18.548 16.164c2.219 1.932 5.357 2.388 8.034 1.172 2.676-1.218 4.394-3.887 4.394-6.827v-39.061l43.855-40.395 31.58-9.449c7.871 33.953 38.246 58.591 74.001 58.591 35.766 0 66.152-24.635 74.028-58.583l31.554 9.442 72.423 66.688c-1.511 10.853-3.224 24.193-3.243 24.343-.349 2.722.816 5.418 3.039 7.028.304.22.624.41.951.58.107.055.218.097.326.147.227.104.455.202.689.283.13.045.261.08.393.117.222.063.446.117.672.159.137.026.273.047.411.065.231.03.463.046.695.054.088.003.175.021.263.021.058 0 .115-.008.173-.01.113-.003.226-.011.339-.019.198-.014.396-.035.593-.064.113-.017.226-.034.338-.056.208-.041.413-.094.617-.152.096-.027.192-.05.288-.081.297-.098.59-.21.876-.347l18.031-8.585c2.784 2.803 2.926 7.226.271 10.222l-40.52 45.771c-2.767 3.114-7.554 3.42-10.667.683l-35.651-31.379v-18.976c0-4.142-3.357-7.5-7.5-7.5s-7.5 3.358-7.5 7.5v22.366 161.547c0 4.133-3.38 7.495-7.532 7.495l-111.35-.028c-.001 0-.001 0-.002 0-4.142 0-7.499 3.357-7.5 7.498-.001 4.142 3.356 7.501 7.498 7.502l49.91.013v46.942 87.137 18.368c0 12.404 10.108 22.496 22.534 22.496h59.256c10.479 0 19.497-7.111 21.917-17.239l25.004-101.25 24.991 101.196c2.435 10.181 11.454 17.292 21.931 17.292h12.704c1.323 0 2.624-.35 3.769-1.015l16.815-9.772 9.981 8.888c1.373 1.223 3.148 1.899 4.987 1.899h10.999c12.426 0 22.534-10.091 22.534-22.496v-25.341c0-4.142-3.357-7.5-7.5-7.5s-7.5 3.358-7.5 7.5v25.341c0 4.133-3.38 7.496-7.534 7.496h-8.144l-11.907-10.602c-2.422-2.156-5.952-2.512-8.756-.884l-19.764 11.486h-10.684c-3.509 0-6.528-2.377-7.355-5.835l-32.286-130.735c-.827-3.349-3.832-5.702-7.281-5.702s-6.454 2.353-7.281 5.702l-32.299 130.79c-.813 3.403-3.832 5.78-7.341 5.78h-59.256c-4.154 0-7.534-3.362-7.534-7.496v-13.448l29.802-12.94c6.826-3.011 11.236-9.766 11.236-17.209 0-6.23-3.075-12.021-8.197-15.471-1.217-.828-1.837-2.313-1.582-3.763l2.808-15.727c1.514-8.258-2.732-16.572-10.315-20.212l-23.751-11.448v-42.227l46.442.012c12.426 0 22.534-10.091 22.534-22.495v-29.436h19.136c2.428 6.384 8.608 10.942 15.852 10.942h10.146c7.244 0 13.424-4.558 15.852-10.942h28.319c2.428 6.384 8.608 10.942 15.852 10.942h10.147c7.244 0 13.424-4.558 15.852-10.942h27.293v30.638h-18.138v-6.22c0-4.142-3.357-7.5-7.5-7.5s-7.5 3.358-7.5 7.5v6.22h-4.067c-9.486 0-17.35 6.969-18.783 16.044h-10.746c-4.143 0-7.5 3.358-7.5 7.5s3.357 7.5 7.5 7.5h10.49v14.991h-10.49c-4.143 0-7.5 3.358-7.5 7.5s3.357 7.5 7.5 7.5h11.404c2.462 7.653 9.652 13.21 18.125 13.21h8.586v6.645c0 4.142 3.357 7.5 7.5 7.5s7.5-3.358 7.5-7.5v-6.645h13.619v39.499c0 4.142 3.357 7.5 7.5 7.5s7.5-3.358 7.5-7.5v-189.241c-.003-12.404-10.111-22.495-22.537-22.495zm-334.789-13.97c2.65 0 4.807 2.154 4.807 4.802v23.528c0 9.01-7.345 16.339-16.373 16.339h-23.336v-44.67h34.902zm100.713-186.645c-4.221 14.603-17.738 25.319-33.727 25.319-15.99 0-29.507-10.717-33.727-25.321 22.434 4.362 45.038 4.363 67.454.002zm-33.726 51.143c-29.018 0-53.628-20.199-59.605-47.899l10.473-3.134c4.572 22.897 24.861 40.209 49.132 40.209s44.56-17.312 49.132-40.209l10.499 3.142c-5.982 27.695-30.601 47.891-59.631 47.891zm65.161 335.939c1.513.726 2.362 2.367 2.059 4.025l-2.817 15.78c-1.278 7.269 1.828 14.641 7.943 18.801 1.327.894 1.605 2.151 1.605 3.049 0 .581-.165 2.547-2.251 3.467l-23.787 10.328v-63.764zm139.92-134.111h-26.095v-37.356h26.095zm-88.192-37.356h18.023v37.356h-18.023zm47.097 46.387c0 1.054-.881 1.911-1.964 1.911h-10.146c-1.083 0-1.964-.857-1.964-1.911v-46.387h14.074zm70.17 0c0 1.054-.881 1.911-1.964 1.911h-10.147c-1.083 0-1.964-.857-1.964-1.911v-46.387h14.074v46.387zm15-9.031v-37.356h18.647c4.154 0 7.534 3.362 7.534 7.495v29.861zm-11.025 104.883c-2.227 0-4.038-1.798-4.038-4.009v-36.227c0-2.21 1.812-4.008 4.038-4.008h37.205v44.244z"/></g></g></svg>