<svg id="&#x421;&#x43B;&#x43E;&#x439;_1" height="512" viewBox="0 0 128 128" width="512" xmlns="http://www.w3.org/2000/svg"><path d="m27.84 20.16a64.32 64.32 0 0 0 -16.84 43.84c0 34.24 25.74 62 57.5 62s57.5-27.76 57.5-62-25.74-62-57.5-62a54.65 54.65 0 0 0 -35.22 13" fill="#ffecb3"/><path d="m18.84 20.16a64.32 64.32 0 0 0 -16.84 43.84c0 34.24 25.74 62 57.5 62s57.5-27.76 57.5-62-25.74-62-57.5-62a54.65 54.65 0 0 0 -35.22 13" fill="#ffe082"/><path d="m47.79 31.22a30.84 30.84 0 0 1 28.62 54.31v13.55h-33.82v-13.55a30.83 30.83 0 0 1 -1.66-50.38" fill="#ffecb3"/><path d="m42.06 57.3a8.46 8.46 0 1 1 -4 7.19 8.56 8.56 0 0 1 0-.86" fill="#ffe082"/><path d="m46.53 74.94a10.47 10.47 0 0 1 -10.46-10.46q0-.54.05-1.06a2 2 0 1 1 4 .4 6.56 6.56 0 0 0 0 .66 6.46 6.46 0 1 0 3-5.48 2 2 0 0 1 -2.12-3.4 10.46 10.46 0 1 1 5.52 19.35z" fill="#2b2b2b"/><path d="m64.07 63.5a8.55 8.55 0 0 0 -.06 1 8.46 8.46 0 1 0 3.88-7.12" fill="#ffe082"/><g fill="#2b2b2b"><path d="m72.47 74.94a10.47 10.47 0 0 1 -10.47-10.46 10.58 10.58 0 0 1 .07-1.22 2 2 0 1 1 4 .46 6.46 6.46 0 1 0 6.4-5.72 6.43 6.43 0 0 0 -3.47 1 2 2 0 1 1 -2.17-3.36 10.46 10.46 0 1 1 5.66 19.26z"/><path d="m56 81.29a2 2 0 0 1 -2-2v-3.48a2 2 0 0 1 4 0v3.47a2 2 0 0 1 -2 2.01z"/><path d="m63 81.29a2 2 0 0 1 -2-2v-3.48a2 2 0 0 1 4 0v3.47a2 2 0 0 1 -2 2.01z"/><path d="m124.69 43a2 2 0 0 0 -.15-.49 65.65 65.65 0 0 0 -7.86-16 2 2 0 0 0 -.4-.6 62.49 62.49 0 0 0 -12.28-13.26 2 2 0 0 0 -.51-.39 56.44 56.44 0 0 0 -34.99-12.26h-9a56.32 56.32 0 0 0 -36.5 13.45 2 2 0 0 0 2.57 3.07 52.37 52.37 0 0 1 33.93-12.52c30.6 0 55.5 26.92 55.5 60s-24.9 60-55.5 60-55.5-26.92-55.5-60a62.13 62.13 0 0 1 16.31-42.48 2 2 0 1 0 -2.93-2.72 66.12 66.12 0 0 0 -17.38 45.2c0 35.29 26.69 64 59.5 64h9c20.79 0 39.73-11.37 50.67-30.43a2 2 0 1 0 -3.47-2q-.92 1.61-1.93 3.14h-4.33a65.79 65.79 0 0 0 5.69-12.07h4.75c-.26.68-.51 1.36-.79 2a2 2 0 1 0 3.69 1.54 68.5 68.5 0 0 0 1.91-47.18zm-5.69 19a68.12 68.12 0 0 0 -2.54-16.66h4.82a64 64 0 0 1 2.72 16.66zm.93-20.66h-4.74a65.79 65.79 0 0 0 -5.69-12.07h4.28a61.53 61.53 0 0 1 6.1 12.07zm-23.78-29.34h-2a59.21 59.21 0 0 0 -6.15-4.17 53.52 53.52 0 0 1 8.15 4.17zm2.65 4h3a58.07 58.07 0 0 1 9.07 9.27h-4a63 63 0 0 0 -8.06-9.27zm-4.66 100h2.15a53.12 53.12 0 0 1 -8.56 4.34 59.17 59.17 0 0 0 6.41-4.34zm16.76-13.27a57.53 57.53 0 0 1 -9 9.27h-3.09a63 63 0 0 0 8-9.27zm5.51-20.07a68.12 68.12 0 0 0 2.59-16.66h5a63.88 63.88 0 0 1 -2.69 16.66z"/><path d="m42.13 36.74a2 2 0 0 0 -2.41-3.19 32.83 32.83 0 0 0 .87 53v12.53a2 2 0 0 0 2 2h33.82a2 2 0 0 0 2-2v-12.49a32.84 32.84 0 0 0 -31.41-57.22 2 2 0 0 0 1.52 3.7 28.84 28.84 0 0 1 26.8 50.79 2 2 0 0 0 -.9 1.67v11.55h-4.54v-11.45a2 2 0 0 0 -4 0v11.45h-4.38v-11.45a2 2 0 0 0 -4 0v11.45h-4.61v-11.45a2 2 0 0 0 -4 0v11.45h-4.3v-11.55a2 2 0 0 0 -.9-1.67 28.83 28.83 0 0 1 -1.56-47.12z"/><path d="m23.62 28.64a2 2 0 0 0 -2.81.35 58.15 58.15 0 0 0 -11.93 35.54c0 30.38 22.71 55.1 50.63 55.1s50.63-24.72 50.63-55.1-22.73-55.1-50.64-55.1a48.27 48.27 0 0 0 -33.22 13.52 2 2 0 1 0 2.72 2.9 44.29 44.29 0 0 1 30.5-12.42c25.71 0 46.63 22.93 46.63 51.1s-20.92 51.1-46.62 51.1-46.63-22.92-46.63-51.1a54.13 54.13 0 0 1 11.12-33.09 2 2 0 0 0 -.38-2.8z"/></g></svg>