<svg id="Layer_5" enable-background="new 0 0 64 64" height="512" viewBox="0 0 64 64" width="512" xmlns="http://www.w3.org/2000/svg"><g><g><g><path d="m44 4v2h-24v-2c0-1.1.9-2 2-2h20c1.1 0 2 .9 2 2z" fill="#aab2bd"/></g><g><path d="m46 6c1.1 0 2 .9 2 2 0 .55-.22 1.05-.59 1.41-.36.37-.86.59-1.41.59h-2-24-2c-1.1 0-2-.9-2-2 0-.55.22-1.05.59-1.41.36-.37.86-.59 1.41-.59h2 24z" fill="#ccd1d9"/></g><g><path d="m54.14 20h-44.28c.9-1.78 2.45-3.2 4.41-3.91l5.73-2.09v-4h24v4l5.73 2.09c1.96.71 3.51 2.13 4.41 3.91z" fill="#fcd770"/></g><g><path d="m55 54v2c0 3.31-2.69 6-6 6h-34c-3.31 0-6-2.69-6-6v-2c1.23 2.45 3.73 4 6.47 4h33.06c2.74 0 5.24-1.55 6.47-4z" fill="#fcd770"/></g><g><path d="m55 23.6v30.4c-1.23 2.45-3.73 4-6.47 4h-33.06c-2.74 0-5.24-1.55-6.47-4v-30.4c0-1.28.3-2.51.86-3.6h44.28c.56 1.09.86 2.32.86 3.6z" fill="#ffeaa7"/></g><g><path d="m41.98 36.01c.01.22.02.44.02.66 0 1.36-.32 2.68-.91 3.87-.2.4-.43.78-.7 1.14-.5.72-1.13 1.37-1.86 1.92l-.53.4v.82 2.18c0 1.1-.9 2-2 2-.55 0-1.05-.22-1.41-.59-.37-.36-.59-.86-.59-1.41 0 1.1-.9 2-2 2-.55 0-1.05-.22-1.41-.59-.37-.36-.59-.86-.59-1.41 0 1.1-.9 2-2 2-.55 0-1.05-.22-1.41-.59-.37-.36-.59-.86-.59-1.41v-2.18-.82l-.53-.4c-.73-.55-1.36-1.2-1.86-1.92-1.04-1.45-1.61-3.2-1.61-5.01 0-.22.01-.44.02-.66.11-1.38.54-2.68 1.22-3.8.36-.61.8-1.17 1.3-1.67 1.57-1.57 3.74-2.54 6.13-2.54h2.66c3.16 0 5.92 1.68 7.43 4.21.68 1.12 1.11 2.42 1.22 3.8z" fill="#969faa"/></g><g><path d="m20.48 30.69 2.76 1.52c-.68 1.12-1.11 2.42-1.22 3.8l-3.74-2.08c-.55.65-1.36 1.07-2.28 1.07-1.66 0-3-1.34-3-3 0-1.31.85-2.41 2.02-2.82-.01-.06-.02-.12-.02-.18 0-1.66 1.34-3 3-3s3 1.34 3 3c0 .63-.19 1.21-.52 1.69z" fill="#e6e9ed"/></g><g><path d="m23.61 41.68c.5.72 1.13 1.37 1.86 1.92l.53.4v.82l-5.29 2.92c.18.38.29.81.29 1.26 0 1.66-1.34 3-3 3s-3-1.34-3-3c0-.06.01-.12.02-.18-1.17-.41-2.02-1.51-2.02-2.82 0-1.66 1.34-3 3-3 1.09 0 2.04.59 2.56 1.46z" fill="#e6e9ed"/></g><g><path d="m38.53 43.6c.73-.55 1.36-1.2 1.86-1.92l5.05 2.78c.52-.87 1.47-1.46 2.56-1.46 1.66 0 3 1.34 3 3 0 1.31-.85 2.41-2.02 2.82.01.06.02.12.02.18 0 1.66-1.34 3-3 3s-3-1.34-3-3c0-.45.11-.88.29-1.26l-5.29-2.92v-.82z" fill="#e6e9ed"/></g><g><path d="m51 32c0 1.66-1.34 3-3 3-.92 0-1.73-.42-2.28-1.07l-3.74 2.08c-.11-1.38-.54-2.68-1.22-3.8l2.76-1.52c-.33-.48-.52-1.06-.52-1.69 0-1.66 1.34-3 3-3s3 1.34 3 3c0 .06-.01.12-.02.18 1.17.41 2.02 1.51 2.02 2.82z" fill="#e6e9ed"/></g><g><circle cx="36" cy="37" fill="#e6e9ed" r="2"/></g><g><circle cx="28" cy="37" fill="#e6e9ed" r="2"/></g></g><g><path d="m36 40c1.654 0 3-1.346 3-3s-1.346-3-3-3-3 1.346-3 3 1.346 3 3 3zm0-4c.551 0 1 .448 1 1s-.449 1-1 1-1-.448-1-1 .449-1 1-1z"/><path d="m28 40c1.654 0 3-1.346 3-3s-1.346-3-3-3-3 1.346-3 3 1.346 3 3 3zm0-4c.551 0 1 .448 1 1s-.449 1-1 1-1-.448-1-1 .449-1 1-1z"/><path d="m16 42c-2.206 0-4 1.794-4 4 0 1.448.791 2.766 2.027 3.467.232 1.986 1.925 3.533 3.973 3.533 2.206 0 4-1.794 4-4 0-.266-.027-.528-.081-.788l3.081-1.7v.488c0 1.654 1.346 3 3 3 .771 0 1.468-.301 2-.78.532.48 1.229.78 2 .78s1.468-.301 2-.78c.532.48 1.229.78 2 .78 1.654 0 3-1.346 3-3v-.488l3.081 1.7c-.054.26-.081.522-.081.788 0 2.206 1.794 4 4 4 2.048 0 3.741-1.547 3.973-3.533 1.236-.701 2.027-2.019 2.027-3.467 0-2.206-1.794-4-4-4-1.079 0-2.083.428-2.822 1.176l-3.386-1.869c.773-1.41 1.208-3.001 1.208-4.64 0-.029-.004-.057-.004-.085l2.573-1.42c.694.539 1.546.838 2.431.838 2.206 0 4-1.794 4-4 0-1.448-.791-2.766-2.027-3.467-.232-1.986-1.925-3.533-3.973-3.533-2.206 0-4 1.794-4 4 0 .437.07.865.208 1.272l-1.135.626c-1.765-2.36-4.573-3.898-7.74-3.898h-2.667c-3.167 0-5.974 1.538-7.739 3.899l-1.135-.626c.138-.408.208-.836.208-1.273 0-2.206-1.794-4-4-4-2.048 0-3.741 1.547-3.973 3.533-1.236.701-2.027 2.019-2.027 3.467 0 2.206 1.794 4 4 4 .885 0 1.737-.299 2.432-.838l2.573 1.42c0 .029-.004.056-.004.085 0 1.638.436 3.23 1.208 4.64l-3.386 1.869c-.74-.748-1.744-1.176-2.823-1.176zm29.798 3.802.497-.825c.368-.612 1.005-.977 1.705-.977 1.103 0 2 .897 2 2 0 .843-.542 1.598-1.347 1.878l-.719.25.05.76.016.112c0 1.103-.897 2-2 2s-2-.897-2-2c0-.282.065-.565.194-.842l.396-.847-5.386-2.972c.534-.409 1.018-.872 1.45-1.376zm-.83-14.768-.62-.908c-.228-.334-.348-.723-.348-1.126 0-1.103.897-2 2-2s2 .897 2 1.965l-.066.907.719.25c.805.28 1.347 1.035 1.347 1.878 0 1.103-.897 2-2 2-.585 0-1.123-.254-1.514-.714l-.53-.623-3.225 1.781c-.15-.636-.364-1.246-.633-1.827zm-14.301-2.034h2.667c4.227 0 7.666 3.439 7.666 7.667 0 2.4-1.146 4.692-3.067 6.133l-.933.7v3.5c0 .552-.449 1-1 1s-1-.448-1-1v-3h-2v3c0 .552-.449 1-1 1s-1-.448-1-1v-3h-2v3c0 .552-.449 1-1 1s-1-.448-1-1v-3.5l-.933-.7c-1.921-1.441-3.067-3.733-3.067-6.133 0-4.228 3.439-7.667 7.667-7.667zm-12.624 3.663-.53.623c-.39.46-.928.714-1.513.714-1.103 0-2-.897-2-2 0-.843.542-1.598 1.347-1.878l.719-.25-.05-.76-.016-.112c0-1.103.897-2 2-2s2 .897 2 2c0 .403-.12.792-.348 1.126l-.62.908 2.869 1.583c-.269.581-.482 1.191-.633 1.827zm6.753 11.677-5.385 2.972.396.847c.128.276.193.559.193.841 0 1.103-.897 2-2 2s-2-.897-2-1.965l.066-.907-.719-.25c-.805-.28-1.347-1.035-1.347-1.878 0-1.103.897-2 2-2 .7 0 1.337.365 1.706.977l.497.825 5.144-2.838c.431.504.914.967 1.449 1.376z"/><path d="m50.076 15.146-5.076-1.846v-2.3h1c1.654 0 3-1.346 3-3s-1.346-3-3-3h-1v-1c0-1.654-1.346-3-3-3h-20c-1.654 0-3 1.346-3 3v1h-1c-1.654 0-3 1.346-3 3s1.346 3 3 3h1v2.3l-5.076 1.846c-3.543 1.288-5.924 4.687-5.924 8.458v32.396c0 3.859 3.14 7 7 7h34c3.86 0 7-3.141 7-7v-32.396c0-3.771-2.381-7.17-5.924-8.458zm-40.076 8.458c0-.912.197-1.788.527-2.604h42.946c.33.816.527 1.691.527 2.604v30.128c-1.092 2.016-3.165 3.268-5.472 3.268h-33.056c-2.307 0-4.38-1.252-5.472-3.268zm11-19.604c0-.552.449-1 1-1h20c.551 0 1 .448 1 1v1h-22zm-4 4c0-.552.449-1 1-1h28c.551 0 1 .448 1 1s-.449 1-1 1h-28c-.551 0-1-.448-1-1zm-2.392 9.024 6.392-2.324v-3.7h22v3.7l6.392 2.324c1.129.411 2.094 1.107 2.855 1.976h-40.494c.76-.869 1.726-1.565 2.855-1.976zm34.392 43.976h-34c-2.413 0-4.432-1.719-4.898-3.996 1.464 1.265 3.348 1.996 5.37 1.996h33.056c2.022 0 3.906-.731 5.371-1.996-.467 2.277-2.486 3.996-4.899 3.996z"/></g></g></svg>