<svg id="Capa_1" enable-background="new 0 0 512 512" height="512" viewBox="0 0 512 512" width="512" xmlns="http://www.w3.org/2000/svg"><g><path d="m256 36.678c-1.971 0-3.943-.752-5.447-2.256l-18.193-18.193c-3.009-3.008-3.009-7.886 0-10.894 3.008-3.008 7.886-3.008 10.894 0l12.746 12.746 12.745-12.746c3.009-3.008 7.886-3.008 10.895 0 3.008 3.008 3.008 7.886 0 10.894l-18.193 18.193c-1.504 1.504-3.476 2.256-5.447 2.256z" fill="#6f3f8a"/><g><g fill="#6f3f8a"><path d="m60.714 159.416c-2.427.001-4.89-.57-7.189-1.774-7.6-3.978-10.537-13.364-6.559-20.963l67.177-128.349c2.146-4.101 6.011-7.032 10.539-7.992 4.527-.96 9.249.15 12.876 3.027l80.698 64.028c6.72 5.332 7.845 15.101 2.513 21.821s-15.103 7.844-21.821 2.513l-65.989-52.357-58.471 111.714c-2.774 5.3-8.18 8.332-13.774 8.332z"/><path d="m127.907 169.565c-1.601.001-3.227-.249-4.831-.774-8.153-2.666-12.601-11.437-9.935-19.591l19.218-58.766c2.602-7.958 11.047-12.42 19.087-10.09l54.463 15.788c8.239 2.388 12.982 11.003 10.593 19.242-2.388 8.239-11.005 12.981-19.242 10.593l-40.043-11.608-14.551 44.495c-2.141 6.552-8.223 10.711-14.759 10.711z"/><path d="m451.286 159.416c2.427.001 4.89-.57 7.189-1.774 7.6-3.978 10.537-13.364 6.559-20.963l-67.177-128.349c-2.146-4.101-6.011-7.032-10.539-7.992-4.527-.96-9.249.15-12.876 3.027l-80.698 64.028c-6.72 5.332-7.845 15.101-2.513 21.821s15.103 7.844 21.821 2.513l65.989-52.358 58.471 111.714c2.774 5.301 8.18 8.333 13.774 8.333z"/><path d="m384.093 169.565c1.601.001 3.227-.249 4.831-.774 8.153-2.666 12.601-11.437 9.935-19.591l-19.218-58.766c-2.602-7.958-11.047-12.42-19.087-10.09l-54.463 15.788c-8.239 2.388-12.982 11.003-10.593 19.242 2.388 8.239 11.005 12.981 19.242 10.593l40.043-11.608 14.551 44.495c2.141 6.552 8.223 10.711 14.759 10.711z"/></g><path d="m319.839 130.679c-4.421 8.191-13.089 13.202-22.397 13.202l-42.177 17.422-40.702-17.422c-9.381 0-18.069-5.105-22.501-13.368-5.457-10.189-8.553-21.838-8.553-34.202 0-40.591 33.373-73.405 74.181-72.473 5.892.134 11.618.984 17.096 2.464.01 0 .021.01.031.01 29.977 8.118 52.488 35.154 53.627 67.378.466 13.411-2.702 26.044-8.605 36.989z" fill="#c2a1d5"/><path d="m252.275 143.881-18.205 8.35-19.507-8.35c-9.381 0-18.069-5.105-22.501-13.368-5.457-10.189-8.553-21.838-8.553-34.202 0-40.591 33.373-73.405 74.181-72.473 5.892.134 11.618.984 17.096 2.464.01 0 .021.01.031.01-30.878 8.305-53.596 36.5-53.596 69.998 0 12.363 3.096 24.013 8.563 34.202 4.432 8.264 13.109 13.369 22.491 13.369z" fill="#b289c9"/><g fill="#fd544c"><path d="m240.21 72.743c-4.254 0-7.703-3.449-7.703-7.703v-9.161c0-4.254 3.449-7.703 7.703-7.703s7.703 3.449 7.703 7.703v9.161c0 4.254-3.449 7.703-7.703 7.703z"/><path d="m271.785 72.743c-4.255 0-7.703-3.449-7.703-7.703v-9.161c0-4.254 3.448-7.703 7.703-7.703s7.703 3.449 7.703 7.703v9.161c.001 4.254-3.448 7.703-7.703 7.703z"/></g><g fill="#e8edf2"><path d="m234.07 113.45c-4.254 0-7.703-3.449-7.703-7.703v-11.397c0-4.254 3.449-7.703 7.703-7.703s7.703 3.449 7.703 7.703v11.396c0 4.255-3.449 7.704-7.703 7.704z"/><path d="m277.925 113.45c-4.255 0-7.703-3.449-7.703-7.703v-11.397c0-4.254 3.448-7.703 7.703-7.703s7.703 3.449 7.703 7.703v11.396c0 4.255-3.448 7.704-7.703 7.704z"/></g><path d="m290.699 96.918h-69.404c-4.254 0-7.703-3.449-7.703-7.703s3.449-7.703 7.703-7.703h69.404c4.255 0 7.703 3.449 7.703 7.703s-3.448 7.703-7.703 7.703z" fill="#6f3f8a"/></g><path d="m469.439 241.879v236.906c0 17.489-14.186 31.675-31.685 31.675h-363.514c-17.489 0-31.675-14.186-31.675-31.675v-236.906l213.432-48.999z" fill="#fea95c"/><path d="m469.439 241.879v30.888h-426.874v-30.888l213.432-48.999z" fill="#fd9468"/><path d="m125.818 510.456h-51.577c-17.489 0-31.675-14.186-31.675-31.675v-236.906l213.431-48.999 25.794 5.923-187.648 43.076v236.906c0 17.488 14.175 31.675 31.675 31.675z" fill="#fd9468"/><g><path d="m42.566 416.489c-1.971 0-3.943-.752-5.447-2.256-3.009-3.008-3.009-7.886 0-10.894 25.395-25.395 61.335-26.526 75.574-25.843 17.783-41.95 51.691-55.79 68.664-60.202-2.074-5.488-4.428-13.029-5.75-21.627-3.658-23.798 2.311-44.28 17.263-59.232 3.008-3.008 7.886-3.008 10.894 0 3.009 3.008 3.009 7.886 0 10.894-11.503 11.503-15.853 26.979-12.929 45.997 2.274 14.794 8.144 25.939 8.203 26.05 1.209 2.27 1.205 4.993-.01 7.26-1.215 2.266-3.48 3.777-6.04 4.028-1.961.205-48.839 5.677-68.006 57.632-1.248 3.383-4.677 5.447-8.25 4.969-.41-.052-42.548-5.203-68.719 20.968-1.504 1.503-3.476 2.256-5.447 2.256z" fill="#d9e7ec"/><path d="m42.556 349.202c-1.97 0-3.943-.755-5.451-2.261-3.011-3.006-2.996-7.903.01-10.914.745-.746 17.542-17.2 46.666-14.809 4.645-8.952 15.987-26.372 37.829-36.836-.614-10.479.395-32.045 16.296-47.946 3.008-3.008 7.886-3.008 10.894 0 3.009 3.008 3.009 7.886 0 10.894-15.667 15.668-11.41 40.233-11.365 40.479.659 3.621-1.335 7.202-4.76 8.549-27.256 10.717-36.947 35.629-37.041 35.879-1.296 3.426-4.837 5.495-8.451 4.906-24.658-4.01-38.62 9.241-39.203 9.807-1.502 1.503-3.463 2.252-5.424 2.252z" fill="#d9e7ec"/><g fill="#e8edf2"><path d="m117.762 393.334c-2.776 0-5.457-1.505-6.832-4.134l-75.19-143.747c-1.57-3.003-.994-6.679 1.419-9.057 2.414-2.377 6.097-2.9 9.077-1.285l149.672 81.114c3.74 2.027 5.129 6.702 3.102 10.443-2.027 3.74-6.701 5.13-10.443 3.102l-127.472-69.084 63.486 121.374c1.972 3.77.515 8.424-3.255 10.396-1.14.595-2.361.878-3.564.878z"/><path d="m42.566 416.489c-4.254 0-7.703-3.449-7.703-7.703v-166.903c0-4.254 3.449-7.703 7.703-7.703h155.751c4.254 0 7.703 3.449 7.703 7.703s-3.449 7.703-7.703 7.703h-148.048v159.2c0 4.254-3.449 7.703-7.703 7.703z"/></g></g><path d="m469.434 241.883h-426.868c-10.476 0-18.969-8.493-18.969-18.969v-60.063c0-10.476 8.493-18.969 18.969-18.969h426.868c10.476 0 18.969 8.493 18.969 18.969v60.063c0 10.476-8.493 18.969-18.969 18.969z" fill="#ffe177"/><path d="m102.459 241.878h-59.892c-10.479 0-18.97-8.491-18.97-18.96v-60.068c0-10.479 8.491-18.97 18.97-18.97h59.892c-10.468 0-18.959 8.491-18.959 18.97v60.068c-.001 10.469 8.49 18.96 18.959 18.96z" fill="#fece85"/><g><path d="m463.316 323.633c1.959 0 3.917.777 5.411 2.331 2.989 3.108 2.989 8.148 0 11.256-25.23 26.239-60.936 27.408-75.082 26.701-17.668 43.344-51.354 57.644-68.216 62.202 2.061 5.67 4.399 13.462 5.712 22.345 3.634 24.589-2.296 45.751-17.151 61.2-2.988 3.108-7.834 3.108-10.823 0s-2.989-8.148 0-11.256c11.428-11.885 15.75-27.875 12.845-47.525-2.259-15.286-8.091-26.801-8.149-26.915-1.201-2.345-1.197-5.159.009-7.501 1.207-2.342 3.457-3.903 6-4.161 1.948-.212 48.521-5.865 67.563-59.547 1.24-3.496 4.646-5.628 8.197-5.134.408.054 42.271 5.376 68.272-21.665 1.495-1.554 3.454-2.331 5.412-2.331z" fill="#d9e7ec"/><path d="m463.327 393.156c1.958 0 3.917.78 5.416 2.336 2.991 3.105 2.976 8.165-.009 11.277-.74.771-17.428 17.772-46.362 15.301-4.615 9.25-15.883 27.249-37.583 38.06.61 10.827-.392 33.11-16.19 49.539-2.988 3.108-7.834 3.108-10.823 0s-2.989-8.148 0-11.256c15.565-16.188 11.336-41.57 11.291-41.824-.655-3.741 1.326-7.441 4.729-8.833 27.079-11.073 36.706-36.812 36.8-37.072 1.287-3.54 4.806-5.677 8.396-5.069 24.498 4.143 38.369-9.548 38.948-10.133 1.489-1.553 3.438-2.326 5.387-2.326z" fill="#d9e7ec"/><g fill="#e8edf2"><path d="m388.61 347.557c2.758 0 5.421 1.555 6.788 4.272l74.7 148.523c1.56 3.102.988 6.9-1.41 9.358-2.398 2.456-6.057 2.997-9.018 1.328l-148.698-83.81c-3.716-2.094-5.096-6.925-3.082-10.79 2.013-3.865 6.657-5.3 10.375-3.205l126.643 71.379-63.073-125.406c-1.959-3.895-.511-8.704 3.234-10.742 1.133-.615 2.346-.907 3.541-.907z"/><path d="m463.316 323.633c4.227 0 7.653 3.563 7.653 7.959v172.449c0 4.396-3.426 7.959-7.653 7.959h-154.737c-4.227 0-7.653-3.563-7.653-7.959s3.426-7.959 7.653-7.959h147.084v-164.49c0-4.395 3.427-7.959 7.653-7.959z"/></g></g></g></svg>