<?xml version="1.0" encoding="UTF-8" standalone="no"?>
<!-- Created with Inkscape (http://www.inkscape.org/) -->

<svg
   version="1.1"
   id="svg1470"
   xml:space="preserve"
   width="682.66669"
   height="682.66669"
   viewBox="0 0 682.66669 682.66669"
   xmlns="http://www.w3.org/2000/svg"
   xmlns:svg="http://www.w3.org/2000/svg"><defs
     id="defs1474"><clipPath
       clipPathUnits="userSpaceOnUse"
       id="clipPath1484"><path
         d="M 0,512 H 512 V 0 H 0 Z"
         id="path1482" /></clipPath></defs><g
     id="g1476"
     transform="matrix(1.3333333,0,0,-1.3333333,0,682.66667)"><g
       id="g1478"><g
         id="g1480"
         clip-path="url(#clipPath1484)"><g
           id="g1486"
           transform="translate(157.0796,169.4189)"><path
             d="m 0,0 c -17.679,-17.672 -46.343,-17.672 -64.022,0 -17.68,17.672 -17.68,46.324 0,63.996 17.679,17.672 92.924,64.234 110.604,46.562 C 64.261,92.886 17.679,17.672 0,0"
             style="fill:#ffecc2;fill-opacity:1;fill-rule:nonzero;stroke:none"
             id="path1488" /></g><g
           id="g1490"
           transform="translate(370.3579,169.4189)"><path
             d="m 0,0 c 17.679,-17.672 46.343,-17.672 64.022,0 17.68,17.672 17.68,46.324 0,63.996 C 46.343,81.668 -28.902,128.23 -46.582,110.558 -64.261,92.886 -17.679,17.672 0,0"
             style="fill:#ffecc2;fill-opacity:1;fill-rule:nonzero;stroke:none"
             id="path1492" /></g><g
           id="g1494"
           transform="translate(434.3804,233.415)"><path
             d="m 0,0 c -17.679,17.672 -92.925,64.234 -110.604,46.562 -0.695,-0.694 -1.279,-1.487 -1.781,-2.353 C -84.494,33.313 -51.034,11.03 -40,0 c 17.679,-17.672 17.679,-46.324 0,-63.996 -3.607,-3.606 -7.676,-6.463 -12.011,-8.597 16.912,-8.326 37.939,-5.47 52.011,8.597 C 17.679,-46.324 17.679,-17.672 0,0"
             style="fill:#ffe6ab;fill-opacity:1;fill-rule:nonzero;stroke:none"
             id="path1496" /></g><g
           id="g1498"
           transform="translate(374.3501,128.1162)"><path
             d="m 0,0 c 0,-61.075 -49.531,-110.586 -110.631,-110.586 -61.1,0 -110.632,49.511 -110.632,110.586 0,61.075 49.532,185.663 110.632,185.663 C -49.531,185.663 0,61.075 0,0"
             style="fill:#ffcc57;fill-opacity:1;fill-rule:nonzero;stroke:none"
             id="path1500" /></g><g
           id="g1502"
           transform="translate(263.7187,313.7793)"><path
             d="m 0,0 c -6.83,0 -13.513,-1.566 -20,-4.417 51.552,-22.65 90.632,-126.998 90.632,-181.246 0,-54.249 -39.08,-99.369 -90.632,-108.779 6.487,-1.184 13.17,-1.807 20,-1.807 61.1,0 110.632,49.511 110.632,110.586 C 110.632,-124.588 61.1,0 0,0"
             style="fill:#fcc138;fill-opacity:1;fill-rule:nonzero;stroke:none"
             id="path1504" /></g><g
           id="g1506"
           transform="translate(389.2666,379.1362)"><path
             d="m 0,0 c 0,-69.236 -56.15,-125.364 -125.416,-125.364 -69.265,0 -125.415,56.128 -125.415,125.364 0,69.236 56.15,125.364 125.415,125.364 C -56.15,125.364 0,69.236 0,0"
             style="fill:#ffecc2;fill-opacity:1;fill-rule:nonzero;stroke:none"
             id="path1508" /></g><g
           id="g1510"
           transform="translate(263.8511,504.5)"><path
             d="m 0,0 c -6.808,0 -13.486,-0.55 -20,-1.593 59.758,-9.574 105.416,-61.339 105.416,-123.771 0,-62.431 -45.658,-114.196 -105.416,-123.77 6.514,-1.044 13.192,-1.594 20,-1.594 69.265,0 125.416,56.128 125.416,125.364 C 125.416,-56.127 69.265,0 0,0"
             style="fill:#ffe6ab;fill-opacity:1;fill-rule:nonzero;stroke:none"
             id="path1512" /></g><g
           id="g1514"
           transform="translate(344.896,393.3745)"><path
             d="m 0,0 c 0,-19.329 -16.187,-34.998 -36.154,-34.998 -19.967,0 -36.154,15.669 -36.154,34.998 0,19.329 16.187,34.998 36.154,34.998 C -16.187,34.998 0,19.329 0,0"
             style="fill:#ff8180;fill-opacity:1;fill-rule:nonzero;stroke:none"
             id="path1516" /></g><g
           id="g1518"
           transform="translate(411.98,48.6143)"><path
             d="m 0,0 c -13.656,-28.988 -52.543,-50.568 -81.543,-36.918 -29,13.65 -37.13,57.362 -23.474,86.349 13.656,28.988 43.926,32.275 72.926,18.625 C -3.092,54.406 13.656,28.988 0,0"
             style="fill:#ffecc2;fill-opacity:1;fill-rule:nonzero;stroke:none"
             id="path1520" /></g><g
           id="g1522"
           transform="translate(379.8887,116.6699)"><path
             d="M 0,0 C -17.649,8.308 -35.761,10.325 -50.319,4.111 -46.881,2.985 -43.432,1.616 -40,0 c 29,-13.65 45.747,-39.068 32.091,-68.056 -7.742,-16.434 -23.596,-30.48 -41.159,-37.082 28.958,-13.285 67.563,8.221 81.159,37.082 C 45.747,-39.068 29,-13.65 0,0"
             style="fill:#ffe6ab;fill-opacity:1;fill-rule:nonzero;stroke:none"
             id="path1524" /></g><g
           id="g1526"
           transform="translate(115.8726,48.6143)"><path
             d="m 0,0 c 13.656,-28.988 52.543,-50.568 81.543,-36.918 29,13.65 37.13,57.362 23.474,86.349 C 91.361,78.419 61.091,81.706 32.091,68.056 3.092,54.406 -13.656,28.988 0,0"
             style="fill:#ffecc2;fill-opacity:1;fill-rule:nonzero;stroke:none"
             id="path1528" /></g><g
           id="g1530"
           transform="translate(220.8896,98.0454)"><path
             d="M 0,0 C -12.04,25.558 -36.995,31.128 -62.607,22.736 -53.243,18.739 -45.345,11.347 -40,0 c 13.656,-28.988 5.526,-72.699 -23.474,-86.349 -0.127,-0.06 -0.256,-0.106 -0.383,-0.164 13.414,-5.043 27.825,-5.747 40.383,0.164 C 5.526,-72.699 13.656,-28.988 0,0"
             style="fill:#ffe6ab;fill-opacity:1;fill-rule:nonzero;stroke:none"
             id="path1532" /></g><g
           id="g1534"
           transform="translate(106.8467,299.9072)"><path
             d="m 0,0 c 0,-13.959 -11.321,-25.275 -25.286,-25.275 -13.964,0 -25.285,11.316 -25.285,25.275 0,13.959 11.321,25.275 25.285,25.275 C -11.321,25.275 0,13.959 0,0"
             style="fill:#ff8180;fill-opacity:1;fill-rule:nonzero;stroke:none"
             id="path1536" /></g><g
           id="g1538"
           transform="translate(441.5854,132.457)"><path
             d="m 0,0 c -12.533,-6.157 -27.686,-0.992 -33.845,11.536 -6.16,12.528 -0.993,27.675 11.54,33.832 C -9.772,51.524 5.381,46.359 11.541,33.832 17.7,21.304 12.533,6.157 0,0"
             style="fill:#ff8180;fill-opacity:1;fill-rule:nonzero;stroke:none"
             id="path1540" /></g><g
           id="g1542"
           transform="translate(189.5718,407.1685)"><path
             d="M 0,0 13.8,-13.794 0,-27.588 c -6.631,-6.629 3.762,-17.449 10.604,-10.609 l 13.805,13.799 13.804,-13.799 c 6.691,-6.689 17.358,3.858 10.604,10.609 L 35.018,-13.794 48.817,0 C 55.456,6.635 45.153,17.546 38.213,10.608 L 24.409,-3.19 10.604,10.608 C 3.967,17.244 -6.94,6.937 0,0"
             style="fill:#000000;fill-opacity:1;fill-rule:nonzero;stroke:none"
             id="path1544" /></g><g
           id="g1546"
           transform="translate(308.7422,420.8726)"><path
             d="M 0,0 C 15.8,0 28.654,-12.335 28.654,-27.498 28.654,-42.661 15.8,-54.996 0,-54.996 c -15.8,0 -28.654,12.335 -28.654,27.498 C -28.654,-12.335 -15.8,0 0,0 m 0,-69.996 c 24.071,0 43.654,19.064 43.654,42.498 C 43.654,-4.064 24.071,15 0,15 c -24.071,0 -43.654,-19.064 -43.654,-42.498 0,-23.434 19.583,-42.498 43.654,-42.498"
             style="fill:#000000;fill-opacity:1;fill-rule:nonzero;stroke:none"
             id="path1548" /></g><g
           id="g1550"
           transform="translate(281.3823,158.9727)"><path
             d="M 0,0 C 4.142,0 7.5,3.358 7.5,7.5 7.5,11.642 4.142,15 0,15 h -10.031 v 17.352 h 5.986 c 4.142,0 7.5,3.358 7.5,7.5 0,4.142 -3.358,7.5 -7.5,7.5 h -5.986 v 12.4 c 0,9.385 -15,9.813 -15,0 v -12.4 h -5.986 c -4.142,0 -7.5,-3.358 -7.5,-7.5 0,-4.142 3.358,-7.5 7.5,-7.5 h 5.986 V 15 h -10.032 c -4.142,0 -7.5,-3.358 -7.5,-7.5 0,-4.142 3.358,-7.5 7.5,-7.5 h 10.032 v -17.352 h -10.032 c -4.142,0 -7.5,-3.358 -7.5,-7.5 0,-4.142 3.358,-7.5 7.5,-7.5 h 10.032 v -17.352 h -5.986 c -4.142,0 -7.5,-3.358 -7.5,-7.5 0,-4.142 3.358,-7.5 7.5,-7.5 h 5.986 v -12.4 c 0,-9.385 15,-9.813 15,0 v 12.4 h 5.986 c 4.142,0 7.5,3.358 7.5,7.5 0,4.142 -3.358,7.5 -7.5,7.5 h -5.986 v 17.352 H 0 c 4.142,0 7.5,3.358 7.5,7.5 0,4.142 -3.358,7.5 -7.5,7.5 H -10.031 V 0 Z"
             style="fill:#000000;fill-opacity:1;fill-rule:nonzero;stroke:none"
             id="path1552" /></g><g
           id="g1554"
           transform="translate(447.2671,149.4053)"><path
             d="m 0,0 c -1.533,-4.494 -4.725,-8.122 -8.989,-10.217 -8.8,-4.324 -19.482,-0.684 -23.807,8.114 -2.095,4.261 -2.405,9.082 -0.872,13.574 2.394,7.021 9.391,12.038 16.806,12.038 6.572,0 12.902,-3.652 15.99,-9.935 C 1.223,9.313 1.533,4.493 0,0 m -64.184,-25.95 c -0.435,0.205 -0.866,0.388 -1.299,0.585 0.377,10.001 -0.422,19.899 -1.955,29.649 5.745,-2.716 11.97,-4.357 18.425,-4.851 1.046,-5.291 3.397,-10.276 6.811,-14.448 l -11.472,-16.68 c -3.282,2.066 -6.782,3.991 -10.51,5.745 m 22.2,-38.535 c 5.412,-10.358 5.382,-21.498 -0.088,-33.11 -11.704,-24.844 -46.239,-45.249 -71.564,-33.328 -11.479,5.403 -19.874,16.912 -23.639,32.408 -3.612,14.866 -2.208,31.299 3.755,43.959 7.559,16.045 20.588,22.001 34.562,22.001 12.9,0 25.912,-4.773 36.768,-11.523 l -18.829,-27.376 c -5.344,-7.771 6.874,-16.475 12.36,-8.5 l 18.301,26.609 c 3.497,-3.494 6.335,-7.238 8.374,-11.14 m -141.564,-59.89 c -12.758,0 -25.118,2.283 -36.842,6.777 2.321,4.761 4.201,9.95 5.559,15.541 4.461,18.357 2.726,38.001 -4.762,53.893 -12.203,25.906 -37.585,36.072 -67.068,28.089 0.38,33.246 16.409,89.92 43.215,131.286 18.042,-9.168 38.442,-14.344 60.03,-14.344 21.509,0 41.838,5.14 59.832,14.245 5.299,-8.185 10.236,-17.042 15.011,-26.946 4.105,-8.512 17.76,-2.295 13.512,6.514 -4.931,10.227 -10.044,19.421 -15.534,27.96 3.268,2.148 6.44,4.431 9.5,6.851 27.792,-6.856 70.627,-34.511 82.906,-46.785 C -7.281,67.803 -4.165,51.748 -9.915,37.75 -26.674,41.388 -43.88,30.914 -48.44,14.427 c -8.752,0.809 -16.874,4.601 -23.167,10.891 -0.071,0.072 -0.148,0.133 -0.221,0.2 -2.026,8.083 -4.353,16.031 -6.714,23.815 -2.726,8.981 -17.203,5.035 -14.354,-4.354 6.338,-20.891 12.416,-42.963 12.504,-64.95 -29.326,7.798 -54.544,-2.395 -66.697,-28.193 -7.487,-15.892 -9.223,-35.536 -4.762,-53.893 1.282,-5.275 3.124,-10.522 5.495,-15.409 -11.821,-4.58 -24.519,-6.909 -37.192,-6.909 m -69.497,-6.548 c -26.628,-12.532 -60.182,9.165 -71.565,33.328 -5.47,11.612 -5.499,22.752 -0.087,33.11 5.141,9.841 15.294,18.707 28.588,24.964 22.579,10.627 50.981,10.365 62.947,-15.035 5.964,-12.66 7.368,-29.093 3.755,-43.959 -3.765,-15.496 -12.16,-27.005 -23.638,-32.408 M -295.49,25.318 c -14.727,-14.722 -38.69,-14.722 -53.418,0 -7.133,7.13 -11.061,16.61 -11.061,26.694 0,14.936 8.602,25.526 19.891,34.215 l 15.37,-27.356 c 4.605,-8.195 17.879,-1.201 13.077,7.348 l -16.166,28.772 c 18.431,12.335 43.554,26.056 61.999,30.55 3.023,-2.394 6.154,-4.654 9.381,-6.782 C -273.54,92.091 -287.7,57.502 -295.399,25.4 c -0.029,-0.028 -0.061,-0.053 -0.091,-0.082 m -88.001,125.184 c 0,9.801 7.978,17.775 17.785,17.775 9.807,0 17.786,-7.974 17.786,-17.775 0,-9.801 -7.979,-17.775 -17.786,-17.775 -9.807,0 -17.785,7.974 -17.785,17.775 M 12.589,20.192 C 10.395,24.656 7.31,28.394 3.658,31.31 12.13,51.054 7.855,73.881 -7.584,89.314 c -12.07,12.064 -49.855,37.4 -80.5,47.936 23.246,23.937 37.584,56.564 37.584,92.481 0,73.261 -59.626,132.864 -132.916,132.864 -18.452,0 -36.33,-3.72 -53.137,-11.055 -8.602,-3.755 -2.992,-17.677 6,-13.748 14.903,6.505 30.762,9.803 47.137,9.803 65.019,0 117.916,-52.874 117.916,-117.864 0,-64.99 -52.897,-117.864 -117.916,-117.864 -65.019,0 -117.916,52.874 -117.916,117.864 0,33.501 14.347,65.536 39.36,87.89 6.998,6.254 -2.676,17.722 -9.995,11.185 -28.194,-25.197 -44.365,-61.308 -44.365,-99.075 0,-35.882 14.311,-68.482 37.518,-92.414 -18.583,-6.354 -39.807,-18.171 -56.356,-29.203 l -9.639,17.154 c 7.258,6.017 11.889,15.094 11.889,25.234 0,18.072 -14.708,32.775 -32.786,32.775 -18.078,0 -32.785,-14.703 -32.785,-32.775 0,-18.072 14.707,-32.775 32.785,-32.775 2.561,0 5.051,0.305 7.444,0.862 l 10.775,-19.177 c -15.745,-11.859 -27.482,-26.775 -27.482,-47.4 0,-28.761 23.991,-51.194 52.77,-52.728 12.932,-0.689 22.636,5.081 22.636,5.081 -2.204,-11.27 -2.934,-30.315 -2.934,-30.315 -16.475,-7.754 -28.749,-18.677 -35.495,-31.588 -7.592,-14.531 -7.657,-30.593 -0.187,-46.449 7.486,-15.892 21.528,-29.742 38.525,-37.998 16.406,-7.97 36.095,-10.465 52.997,-2.51 6.918,3.257 12.982,8.019 18.019,14.039 28.72,-11.886 61.804,-11.84 90.492,0.128 10.114,-12.156 24.952,-19.115 40.768,-19.115 9.822,0 20.134,2.495 30.35,7.458 16.997,8.256 31.039,22.106 38.526,37.998 10.542,22.379 4.677,46.615 -13.225,63.193 l 11.458,16.66 c 17.331,-7.772 38.315,1.262 44.466,19.291 2.826,8.287 2.256,17.178 -1.608,25.035"
             style="fill:#000000;fill-opacity:1;fill-rule:nonzero;stroke:none"
             id="path1556" /></g><g
           id="g1558"
           transform="translate(257.625,334.9375)"><path
             d="m 0,0 -14.638,-14.32 -11.724,11.719 c -2.625,2.624 -6.772,2.934 -9.759,0.728 l -19.515,-14.419 c -7.549,-5.577 1.022,-17.896 8.913,-12.064 l 14.323,10.582 12.403,-12.398 c 2.907,-2.906 7.609,-2.931 10.548,-0.057 l 14.225,13.917 10.482,-12.177 c 2.516,-2.923 6.838,-3.462 9.993,-1.246 l 15.702,11.02 18.201,-12.358 c 7.851,-5.331 16.487,6.935 8.426,12.41 L 45.095,-3.396 c -2.578,1.749 -5.97,1.725 -8.522,-0.067 L 22.194,-13.555 10.929,-0.468 C 8.144,2.769 3.053,2.987 0,0"
             style="fill:#000000;fill-opacity:1;fill-rule:nonzero;stroke:none"
             id="path1560" /></g></g></g></g></svg>
