<svg id="icon" height="512" viewBox="0 0 500 500" width="512" xmlns="http://www.w3.org/2000/svg"><path d="m293.316 464.122s-1.885-8.2 6.21-11.117c13.315-4.8 19.353-11.7 19.353-11.7l14.041-.132 12.645 10.955s26.585.989 24.964 20.549c0 0 .134 7.239-12.739 8.212 0 0-1.526 5.836-11.9 7.457s-45.092 5.187-49.781-9.079-2.793-15.145-2.793-15.145z" fill="#fff"/><path d="m345.565 452.127-12.645-10.955-14.041.132a29.23 29.23 0 0 1 -3.751 3.345 35.607 35.607 0 0 0 5.69 5.979l13.242 11.564a11.388 11.388 0 0 1 2.261 2.4 8.663 8.663 0 0 1 1.13 3.583 18.1 18.1 0 0 1 -2.913 12.224c-3.122 4.641-8.1 7.451-13.416 9.482a138.342 138.342 0 0 0 24.767-1.533c10.375-1.622 11.9-7.458 11.9-7.458 12.873-.972 12.739-8.211 12.739-8.211 1.622-19.563-24.963-20.552-24.963-20.552z" fill="#d3d3e2"/><path d="m109.729 459.821 37.536-52.705 52.267-41.522s9.519 38.521 40.079 55.967l-46.5 51s-48.835 38.304-83.382-12.74z" fill="#a2d2f9"/><path d="m199.532 365.594-35.307 28.049-22.833 21.457a81.316 81.316 0 0 0 6.347 13.346 32.925 32.925 0 0 0 -1.863 21.716c7.905 32.2 46.351 22.013 52.5 16.619l41.239-45.22c-30.564-17.445-40.083-55.967-40.083-55.967z" fill="#839fdd"/><path d="m219.024 310.652c.026-.5.037-.978.048-1.459l-.048-.014z" fill="#ffbd76"/><path d="m284.628 166.837s-46.541-56.153-98.359-2.612c0 0-36.58 33.925-28.746 97.928l25.049-3.067 19.349 28.5 4.982-4.325s12.675 5.157 12.169 25.935c2.165.592 79.957 20.933 82.532-111.145-.004-.003.871-18.151-16.976-31.214z" fill="#ffbd76"/><path d="m270.915 268.987c-4.714-3.777-6.831-10.073-6.926-16.112s1.573-11.951 3.227-17.76c-15.312 5.779-17.223-21.106-17.223-21.106-41.075-1.787-56.708-46.893-45.509-64.509a88.682 88.682 0 0 0 -18.215 14.725s-36.58 33.925-28.746 97.928l25.049-3.067 19.349 28.5 4.982-4.325s12.675 5.157 12.169 25.935c1.617.442 45.395 11.893 68.545-37.313-5.817 1.417-12.103.79-16.702-2.896z" fill="#f4884d"/><path d="m219.024 310.652c.026-.5.037-.978.048-1.459l-.048-.014z" fill="#f4884d"/><path d="m111.181 453.788 37.036-47.428 11.837 15.2s-1.331 9.587 2.38 14.783 15.588 8.41 15.588 8.41l11.135-11.753 14.4-15.959s-2.331-22.6-14.4-20.042l-4.083 1.485-3.374-21.522 42.348-31.176-5.02-48.248-12.128-14.28-21.826-27.658s-33.4-3.712-68.29 44.908-35.258 102.147-23.384 125.466 17.781 27.814 17.781 27.814z" fill="#ffd1d2"/><path d="m192.926 428.826c-.239-.063-.479-.123-.716-.192a23.314 23.314 0 0 1 -16.281-20.134 6.915 6.915 0 0 0 -.619-3.029 6.271 6.271 0 0 0 -1.595-1.622c-21-16.9-29.762-45.142-30.865-72.071-4.945 13.513-5.4 28.586-12.07 41.337a47.519 47.519 0 0 1 -34.96 24.622 33.577 33.577 0 0 1 -9.183.061c.76 11.471 3.206 21.188 6.765 28.177 11.877 23.32 17.779 27.814 17.779 27.814l37.037-47.428 11.837 15.2s-1.332 9.587 2.379 14.783 15.588 8.41 15.588 8.41l11.135-11.754z" fill="#f796a4"/><path d="m224.044 345.786-5.02-48.248-12.124-14.28-2.081-2.636a24.616 24.616 0 0 0 -3 8.172c-3.047 15.236-.884 32.212 1.734 35.259a26.057 26.057 0 0 1 5.148 12.021c-9.476 21.765-27.878 11.592-27.878 11.592-2.513 8.259-.805 20.611.962 29.171z" fill="#f796a4"/><path d="m40.168 97.709h421.5s-32.675-15.541-46.368-32.609-45.885-45.888-88.87-33.33c0 0-28.5 8.21-42.5-4.83s-56.03-30.911-104.33 8.21c0 0-21.251 16.422-53.128 17.388.004 0-61.527-9.151-86.304 45.171z" fill="#9494b2"/><path d="m415.3 65.1q-.931-1.159-1.976-2.388c-15.55-5.133-30.466-13.541-46.6-12-14.3 1.368-26.555 10.368-39.966 15.5a76.717 76.717 0 0 1 -44.958 2.947c-12.953-3.1-24.911-9.543-37.843-12.727a78.8 78.8 0 0 0 -49.843 4.216c-9.75 4.239-18.79 10.519-29.236 12.493-11.478 2.171-23.471-1.211-33.578-7.076a61.27 61.27 0 0 1 -8.8-6.2 59.254 59.254 0 0 1 -7.741-7.889c-19.086.294-56.56 6.217-74.586 45.738h421.5s-32.68-15.546-46.373-32.614z" fill="#696987"/><path d="m182.572 443.289s6.687-15.665 15.8-19.651c0 0 4.131 6.976 19.079 8.471s18.436 7.851 18.436 12.645-4.807 17.251-10.874 19.246-42.441-20.711-42.441-20.711z" fill="#ffcac0"/><path d="m200.647 362.38s13.122 44.339 30.272 55.905l19.85-27.952s2.313 17.928 15.422 29.88 26.6 36.647 26.6 36.647l18.506-6.6 12.9-10.382-25.234-94.848s-7.326-14.651-15.422-14.651-21.115 3.856-21.115 3.856-8.959-4.241-15.513 0-46.266 28.145-46.266 28.145z" fill="#ffcac0"/><path d="m292.794 456.86 18.506-6.6 8.091-6.509a32.782 32.782 0 0 0 -2.434-8.016c-1.528-3.365-3.6-9.061-3.635-12.756-5.484 3.417-8.132 4.242-18 1.463-8.434-2.375-30.552-37.936-38.425-54.3a4.1 4.1 0 0 0 -7.161-.427 13.558 13.558 0 0 0 -1.749 4.659c-.623 3.084 1.746 7.427-5.942 8.988a25.847 25.847 0 0 1 -20.863-4.837c-6.694-5.17-10.64-12.877-12.357-21.071-4.865 2.935-8.176 4.928-8.176 4.928s13.122 44.339 30.272 55.905l19.85-27.952s2.313 17.928 15.422 29.88 26.601 36.645 26.601 36.645z" fill="#f29797"/><path d="m324.205 439.876-25.242-94.846s-7.326-14.651-15.422-14.651-21.115 3.856-21.115 3.856 31.647 40.2 49.253 115.718z" fill="#f29797"/><path d="m181.7 260.98 18.951 30.073s9.253-26.57 15.807-28.9c0 0 22.93 28.129 45.972-4.643s16.87-67.472 16.87-67.472-30.458 41.188-71.712 28.531c0 0-4.241-18.892-15.808-14.265s-6.169 23.735-6.169 23.735l11.181 7.494s-8.6 22.367-15.092 25.447z" fill="#ffcac0"/><path d="m209.809 219.2-2.906 2.954s42.31 25.246 73.136-19.841a72.712 72.712 0 0 0 -.74-12.272s-29.37 39.707-69.49 29.159z" fill="#f29797"/><g fill="#4c373c"><path d="m462.134 92.711c-49.376-20.243-71.976-81.1-135.721-66.076-40.058 11.406-34.542-11.359-68.549-18.627-32.364-7.149-62.925 9.452-88.31 27.856-17.077 12.362-31.381 12.918-51.654 12.054-17.206-.2-33.315 2.827-48.2 11.79-14.563 8.767-24.431 22.617-34.286 36.392-3.724 5.207 2.222 6.819 4.292 6.946 13.9.855 388.7-.949 419.253-.949 8.748.003 8.266-7.477 3.175-9.386zm-85.029 1.652c-64.291.267-266.779-.442-329.032 0 14.914-25.506 37.48-38.652 67.062-38.169 17.057.106 33.439 1.108 49.043-7.045 14.523-7.588 26.7-18.754 41.738-25.537 20.8-9.587 46.649-12.655 66.993-.359 6.753 3.989 12.548 9.5 19.772 12.691 31.113 11 47.965-18.322 92.45 10.524 21.628 14.345 38.523 35.352 60.907 48.349-22.938-1.074-46.013-.454-68.933-.454z"/><path d="m244.686 236.075c2.295 2.061 6.758 4.353 9.715 2.543a2.484 2.484 0 0 0 0-4.25c-2.179-.926-4.726-.42-6.567-2.194-1.244-1.011-1.821-2.393-2.869-3.549a1.979 1.979 0 0 0 -3.271.864c-.849 2.347 1.384 5.141 2.992 6.586z"/><path d="m49.267 140.205a125.867 125.867 0 0 1 -.123 14.431c-.361 5.628 8.187 5.5 8.7 0a62.821 62.821 0 0 0 -.626-15.507c-.71-4.502-8.178-3.444-7.951 1.076z"/><path d="m157.293 154.636a62.772 62.772 0 0 0 -.626-15.507c-.705-4.5-8.172-3.444-7.946 1.076a125.639 125.639 0 0 1 -.123 14.431c-.361 5.628 8.188 5.501 8.695 0z"/><path d="m357.561 154.636a62.821 62.821 0 0 0 -.627-15.507c-.705-4.5-8.172-3.444-7.946 1.076a125.639 125.639 0 0 1 -.123 14.431c-.365 5.628 8.188 5.501 8.696 0z"/><path d="m456.815 154.636a62.821 62.821 0 0 0 -.626-15.507c-.705-4.5-8.173-3.444-7.946 1.076a125.867 125.867 0 0 1 -.123 14.431c-.361 5.628 8.187 5.501 8.695 0z"/><path d="m49.267 300.16a125.867 125.867 0 0 1 -.123 14.431c-.361 5.629 8.187 5.5 8.7 0a62.811 62.811 0 0 0 -.626-15.506c-.71-4.503-8.178-3.445-7.951 1.075z"/><path d="m357.561 314.591a62.811 62.811 0 0 0 -.627-15.506c-.705-4.5-8.172-3.445-7.946 1.075a125.639 125.639 0 0 1 -.123 14.431c-.365 5.629 8.188 5.501 8.696 0z"/><path d="m448.243 300.16a125.867 125.867 0 0 1 -.123 14.431c-.361 5.629 8.187 5.5 8.695 0a62.811 62.811 0 0 0 -.626-15.506c-.705-4.503-8.173-3.445-7.946 1.075z"/><path d="m107.361 228.888a62.773 62.773 0 0 0 -.627-15.507c-.7-4.5-8.172-3.444-7.946 1.075a125.655 125.655 0 0 1 -.123 14.432c-.365 5.628 8.188 5.501 8.696 0z"/><path d="m398.31 214.456a125.655 125.655 0 0 1 -.123 14.432c-.361 5.628 8.188 5.5 8.695 0a62.772 62.772 0 0 0 -.626-15.507c-.705-4.503-8.172-3.444-7.946 1.075z"/><path d="m398.31 377.2a125.639 125.639 0 0 1 -.123 14.431c-.361 5.628 8.188 5.5 8.695 0a62.772 62.772 0 0 0 -.626-15.507c-.705-4.5-8.172-3.441-7.946 1.076z"/><path d="m362.445 451.587c-4.17-2.249-8.192-2.3-12.66-3.322-9.112-2.364-10.924-11.665-22.058-10.821-4.7-25.778-10.27-51.485-18.377-76.433-4.156-11.369-8.488-28.4-20.337-33.852-7.984-3.083-18.565-1.076-26.1 3.2-7.953-5.359-17.832.018-25.466 3.517-3.832 1.682-7.582 3.545-11.257 5.549-.91-9.073-1.755-18.177-2.841-27.236 47.724 6.49 75.173-26.2 81.63-91.041 1.955-19.64 2.04-45.227-16.355-57.533-2.405-1.684-3.448-1.943-4.77-3.675-22.7-28.929-67.115-28.755-93.914-5.777-31.859 26.778-39.853 69.845-40.148 109.35-51.42 30.887-75.792 96.665-63.879 154.497 3 14.52 9.233 30.024 21.31 39.24-2.945 17.808 27.238 28.009 41 30.662 24.832 5.97 42.963-5.483 59.535-22.892 20.31 9.961 36.84-11.019 31.539-25.233 11.881-12.434.845-27.3.845-27.3s7.141-11.136 9.223-14.866a86.314 86.314 0 0 0 10.4 19.633c9.132 13.308 19.066 26.331 29.087 38.99-3.341 6.472.058 13.642 1.842 20.083.938 3.329 1.719 6.823 3.827 9.639 4.212 5.627 12.575 6.825 19.089 7.42 8.814.8 17.788-.179 26.6-.677 6.323-.388 14.946-.8 18.586-6.64 22.769-.108 19.532-25.999 3.649-34.482zm-74.821-116.382c7.955 8.155 10.963 20.813 14.622 31.4 7.391 23.673 12.313 48.026 17.431 72.265a55.759 55.759 0 0 0 -6.154 2.3c-10.556-36.551-20.055-75.558-44.495-105.631 6.172-2.139 13.087-4.058 18.596-.334zm-84.071-26.8c.963-5.781 1.039-11.589 1.578-17.394a28.667 28.667 0 0 0 1.115-3.431c8.152 4.756 8.554 15.043 9.448 23.875q1.628 16.077 3.33 32.147c-2.132 1.276-4.188 2.654-6.244 4.061 4.677-16.794-8.105-25.194-9.227-39.255zm-3.977-75.421a3.272 3.272 0 0 0 -2.752-1.747c-9.61-.682-13.441-12.437-8.194-19.806 2.718-3.817 8.426-5.717 11.674-1.387 2.126 2.834 1.634 6.656 3.684 9.476a5.059 5.059 0 0 0 4.169 2.879c24.683 7.188 53.045-4.716 68.537-24.354-.109 15.049-3.034 30.806-9.345 44.634-1.917-.666-2.6-2.755-4.238-3.749a2.372 2.372 0 0 0 -3.426 1.394c-.993 3.254 2.3 6.433 4.946 7.767a71.136 71.136 0 0 1 -6.671 10.259c-2.783-4.093-10.4-8.385-15.153-5.587a1.973 1.973 0 0 0 -.693 2.646c2.476 3.809 9.658 3.043 10.821 7.931-14.243 12.2-33.5-.425-42.55-13.263-2.324-3.121-7.32-.452-5.343 3.123a42.021 42.021 0 0 0 7.006 9.236 51.392 51.392 0 0 0 -11.927 20.819 102.073 102.073 0 0 0 -12.712-19.523c4.07-4.706 16.306-25.357 12.167-30.745zm26.074-86.454c19.553-3.248 40.67 4.071 52.624 20.135 2.89 3.315 7.485 4.869 10.531 8.286 8.6 9.644 8.588 24.815 8.23 36.916-1.571 29.081-5.57 61.561-29.47 82.717-13.466 12.349-32.1 11.4-45.142 10.381-.116-.84-.227-1.682-.348-2.522-1.22-8.465-5.213-18.781-14.044-21.2a47.238 47.238 0 0 1 9.253-14.243c31.528 23.51 53.22-5.253 61.265-34.858a112.3 112.3 0 0 0 4.961-42.957c-.527-6.053-6.645-4.369-8-2.259-13.629 21.677-37.126 32.761-62.112 29.622a5.279 5.279 0 0 1 -4.485-4.321c-2.172-11.808-16.316-16.162-24.816-6.146-9.009 10.831-3.87 27.754 9.142 31.221a80.85 80.85 0 0 1 -6.969 15.523c-1.745 1.478-4.185 1.623-6.837 1.752-6.06-.8-12.551.907-18.418 3.312-6.162-43.131 17.429-102.734 64.635-111.359zm-115.706 305.335c-18.116-20.439-21.1-49.1-18.749-75.7 3.462-41.763 24.939-82.279 60.84-104.89a54.75 54.75 0 0 1 25.332-9.12c8.2 11.814 21.68 25.046 19 40.555-.672 4.465-.777 8.725.637 13.064 2.709 8.31 9.135 15.317 8.933 24.43-.944 19.653-8.015 21.225-21.72 31.37-.671-13 .437-32.1 1.6-45.073 1.594-17.844 4.234-43.965-14.629-54.407-3.1-1.717-6.778 2.579-3.92 5.079 17.107 14.966 12.021 37.514 10.5 57.7-1.545 20.465-1.558 41.264 4.061 61.13-8.285 5.935-16.471 13.247-21.853 21.751-16.033-22.641-14.957-52.116-14.664-78.74.328-9.872 1.925-19.826 1.788-29.686-.044-3.19-4.774-3.928-5.617-.761-2.663 10.012-2.8 21.1-3.18 31.407-.525 21.589-.594 44.193 6.818 64.684-13.276 14.542-24.649 30.596-35.177 47.207zm95.365-47.131c-3.327-6.46-8.627-12.406-16.561-11.379-.463-1.686-1.661-13.156-1.661-13.156s8.084-6.861 11.583-10.277c5.511 20.233 16.47 38.712 32.249 52.551-1.567 2.333-3.122 4.673-4.62 7.051a39.6 39.6 0 0 0 -6.378-.87c-6.685.158-11.643-1.368-15.9-6.815a15.448 15.448 0 0 0 1.288-17.105zm-9.486 13.274c-4.879 5.171-10.5 9.784-14.117 16.021-1.106 1.912-1.8 4.85-3.365 6.39-3.39 3.33-10.022-3.6-11.77-6.607-2.51-4.319-1.631-8.227.208-12.405 5.011-5.357 9.926-10.807 15.706-15.377 3.614-2.857 8.172-6.606 12.171-2.165 3.951 4.389 5.369 9.595 1.167 14.143zm-38.452 63.311c-10.8-.572-42.734-9.082-43.181-22.148a2.484 2.484 0 0 0 .527-1.554c10.258-15.872 21.108-31.259 33.688-45.383a64.91 64.91 0 0 0 8.569 13.035c-1.618 9.4 5.086 18.861 14.49 23.7a9.857 9.857 0 0 0 10.171-.152 84.3 84.3 0 0 0 17.9 12.371c-11.897 11.478-24.42 21.546-42.164 20.131zm73.62-29c-4.755 8.935-13.832 9.133-21.874 4.532a85.621 85.621 0 0 1 -22.03-14.19 52.355 52.355 0 0 1 12.421-15.908c5.275 5.754 10.681 8.372 19.082 8.783 10.818.064 18.691 5.705 12.401 16.786zm63.162-2.064c-11.74-18.38-28.788-33.668-37.318-54-2.742-7.519-2.6-14.747-3.262-22.558a2.627 2.627 0 0 0 -5.133-.697 31.132 31.132 0 0 0 -1.584 13.606c-5.277 8.592-9.98 17.35-15.569 25.743-13.4-13.126-22.122-30.1-26.253-48.344a137.735 137.735 0 0 1 44.5-26.479c4.346-1.571 7.334-2.153 11.253.992 3.433 2.757 6.055 6.624 8.5 10.228 19.968 29.265 26.893 64.688 38.548 97.539-4.835.732-9.784 1.524-13.682 3.973zm57.384 32.083c-1.875 2.1-7.747 1.946-10.343 2.081-11.347.439-23.032 2.219-34.2-.626-4.589-1.292-6.217-3.031-7.517-7.747-9.092-23.836 1.281-17.134 18.187-23.922 5.046 2.3 4.317 10.253 11.122 12.513 7.185 3.156 16.964 2.724 21.97 9.658 1.158 1.922 2.378 6.258.781 8.046zm14.431-7.585c-1.091 2.032-3.48 2.5-5.821 2.625-1.528-9.565-9.71-15.142-18.479-17.21-3.316-.974-8.137-1.2-10.93-3.217-3.853-3.075-4.673-9.851-10.309-10.988 16.77-5.237 14.114 8.038 28.647 10.555 6.109 1.138 12.318 2.162 15.465 8.361 1.295 2.553 2.859 7.205 1.427 9.877z"/></g></svg>