<svg id="Capa_1" enable-background="new 0 0 425.2 425.2" height="512" viewBox="0 0 425.2 425.2" width="512" xmlns="http://www.w3.org/2000/svg"><g><g><g><g><g><g><path d="m212.601 421.074c-114.954 0-208.475-93.521-208.475-208.474s93.521-208.474 208.475-208.474c114.953 0 208.473 93.521 208.473 208.474s-93.52 208.474-208.473 208.474z" fill="#e5e5e4"/></g></g></g></g><g><g><g><g><path d="m212.601 8.25c112.857 0 204.349 91.492 204.349 204.35s-91.491 204.351-204.349 204.351c-112.859-.001-204.351-91.493-204.351-204.351s91.492-204.35 204.351-204.35m0-8.248c-56.788 0-110.175 22.113-150.331 62.268-40.154 40.154-62.269 93.543-62.269 150.33s22.115 110.175 62.269 150.329c40.155 40.154 93.543 62.27 150.331 62.27 56.786 0 110.174-22.115 150.329-62.27s62.269-93.542 62.269-150.329-22.115-110.176-62.269-150.33-93.543-62.268-150.329-62.268z" fill="#040304"/></g></g></g></g></g><g><g><g><g><path d="m212.601 365.808c-104.199 0-190.178-77.99-202.761-178.779-1.046 8.378-1.59 16.911-1.59 25.571 0 112.858 91.491 204.351 204.351 204.351 112.857 0 204.349-91.492 204.349-204.351 0-8.66-.543-17.193-1.59-25.571-12.583 100.788-98.562 178.779-202.759 178.779z" fill="#a9aaaa"/></g></g></g></g><g><g><g><g><circle cx="212.6" cy="212.6" fill="#f7a72e" r="105.386"/></g></g></g><g><g><g><path d="m212.601 322.11c-60.385 0-109.511-49.126-109.511-109.511 0-60.384 49.126-109.51 109.511-109.51 60.384 0 109.509 49.126 109.509 109.51 0 60.385-49.125 109.511-109.509 109.511zm0-210.772c-55.837 0-101.263 45.427-101.263 101.262 0 55.836 45.426 101.263 101.263 101.263 55.835 0 101.261-45.427 101.261-101.263 0-55.835-45.426-101.262-101.261-101.262z" fill="#040304"/></g></g></g></g><g><g><g><g><circle cx="212.6" cy="212.6" fill="#040304" r="57.61"/></g></g></g></g><g><g><g><g><circle cx="249.719" cy="175.48" fill="#fff" r="33.398"/></g></g></g></g><g><g><g><g><g><path d="m317.209 118.493c-.581 0-1.17-.126-1.729-.389l-47.002-22.126c-2.032-.955-2.903-3.379-1.946-5.41.956-2.031 3.376-2.906 5.41-1.946l43.525 20.489 12.467-23.017c.873-1.611 2.719-2.441 4.502-2.022l56.359 13.198c2.186.513 3.543 2.698 3.031 4.885-.512 2.188-2.699 3.539-4.886 3.032l-53.335-12.491-12.818 23.667c-.733 1.354-2.129 2.13-3.578 2.13z" fill="#040304"/></g></g></g></g><g><g><g><g><path d="m317.984 139.26c-2.176 0-3.979-1.722-4.06-3.915l-.775-20.767c-.083-2.244 1.668-4.131 3.912-4.215 2.273-.04 4.131 1.668 4.214 3.912l.774 20.767c.084 2.244-1.667 4.131-3.911 4.215-.052.001-.103.003-.154.003z" fill="#040304"/></g></g></g></g><g><g><g><g><path d="m150.312 411.342c-1.968 0-3.698-1.433-4.012-3.437l-5.795-36.96c-.239-1.518.4-3.041 1.649-3.936 1.252-.897 2.898-1.007 4.257-.293l27.274 14.328v-28.451c0-2.246 1.821-4.066 4.066-4.066s4.065 1.82 4.065 4.066v35.18c0 1.424-.745 2.743-1.963 3.479-1.219.736-2.733.78-3.993.119l-26.071-13.695 4.542 28.969c.348 2.219-1.168 4.298-3.386 4.646-.212.034-.424.051-.633.051z" fill="#040304"/></g></g></g></g><g><g><g><g><path d="m96.689 146.148c-1.633 0-3.174-.992-3.795-2.608l-9.387-24.435c-.372-.97-.36-2.045.035-3.003l10.487-25.514-36.758-14.295c-2.092-.814-3.128-3.171-2.315-5.264.814-2.093 3.169-3.131 5.263-2.315l40.62 15.8c1.018.396 1.833 1.185 2.263 2.188s.438 2.138.023 3.146l-11.448 27.851 8.807 22.925c.805 2.097-.241 4.448-2.337 5.254-.48.184-.973.27-1.458.27z" fill="#040304"/></g></g></g></g></g></g></svg>