<svg id="Layer_3" height="512" viewBox="0 0 64 64" width="512" xmlns="http://www.w3.org/2000/svg" data-name="Layer 3"><path d="m28 10a6.826 6.826 0 0 0 -4.828-2h-1.172v1.172a6.826 6.826 0 0 0 2 4.828 6.826 6.826 0 0 0 4.828 2h1.172v-1.172a6.826 6.826 0 0 0 -2-4.828z" fill="#559b38"/><path d="m40 18a15.715 15.715 0 0 0 -10 3.707 15.715 15.715 0 0 0 -10-3.707c-9.941 0-18 9.85-18 22s8.059 22 18 22a15.715 15.715 0 0 0 10-3.707 15.715 15.715 0 0 0 10 3.707c9.941 0 18-9.85 18-22s-8.059-22-18-22z" fill="#aa2b24"/><path d="m40 18a15.715 15.715 0 0 0 -10 3.707 15.715 15.715 0 0 0 -10-3.707c-9.941 0-18 9.85-18 22a25.286 25.286 0 0 0 3.481 13h37.519a5 5 0 0 0 5-5v-27.708a15.322 15.322 0 0 0 -8-2.292z" fill="#d24034"/><circle cx="41" cy="54" fill="#686868" r="3"/><path d="m41 51a3 3 0 0 0 -3 3 2.962 2.962 0 0 0 .184 1h2.816a2 2 0 0 0 2-2v-1.221a2.978 2.978 0 0 0 -2-.779z" fill="#868686"/><rect fill="#db665d" height="24" rx="4" width="28" x="9" y="25"/><circle cx="31" cy="28" fill="#686868" r="3"/><path d="m31 25a3 3 0 0 0 -3 3 2.962 2.962 0 0 0 .184 1h2.816a2 2 0 0 0 2-2v-1.221a2.978 2.978 0 0 0 -2-.779z" fill="#868686"/><circle cx="14" cy="31" fill="#686868" r="3"/><circle cx="21" cy="46" fill="#686868" r="4"/><path d="m62 33a16 16 0 1 0 -20.3 15.4l-.7 5.6 5.663-5.033a15.988 15.988 0 0 0 15.337-15.967z" fill="#ccc"/><path d="m57 38v-16.6a15.983 15.983 0 0 0 -23.469 21.6h18.469a5 5 0 0 0 5-5z" fill="#f2f2f2"/><rect fill="#fff" height="11" rx="3" width="17" x="34" y="24"/><path d="m55 31a9 9 0 1 0 -15 6.7v2.3h12v-2.3a8.97 8.97 0 0 0 3-6.7z" fill="#559b38"/><ellipse cx="42" cy="31" fill="#6bc148" rx="2" ry="3"/><ellipse cx="50" cy="31" fill="#6bc148" rx="2" ry="3"/><path d="m41 40v1a3 3 0 0 0 3 3h4a3 3 0 0 0 3-3v-1z" fill="#77af60"/><path d="m21 42a3.953 3.953 0 0 0 -3.859 5h2.859a3 3 0 0 0 3-3v-1.445a3.955 3.955 0 0 0 -2-.555z" fill="#868686"/><path d="m14 28a3 3 0 0 0 -3 3 2.962 2.962 0 0 0 .184 1h2.816a2 2 0 0 0 2-2v-1.221a2.978 2.978 0 0 0 -2-.779z" fill="#868686"/><path d="m18 31a4 4 0 1 0 -4 4 4 4 0 0 0 4-4zm-4 2a2 2 0 1 1 2-2 2 2 0 0 1 -2 2z"/><path d="m21 41a5 5 0 1 0 5 5 5.006 5.006 0 0 0 -5-5zm0 8a3 3 0 1 1 3-3 3 3 0 0 1 -3 3z"/><path d="m26 54h2v2h-2z"/><path d="m25 35h2v2h-2z"/><path d="m8 42h2v2h-2z"/><path d="m39 40a1 1 0 0 0 1 1 4 4 0 0 0 4 4h4a4 4 0 0 0 4-4 1 1 0 0 0 1-1v-1.873a10 10 0 1 0 -14 0zm9 3h-4a2 2 0 0 1 -2-2h8a2 2 0 0 1 -2 2zm-10-12a8 8 0 1 1 13.333 5.95 1 1 0 0 0 -.333.744v1.306h-2v-2h-2v2h-2v-2h-2v2h-2v-1.306a1 1 0 0 0 -.333-.744 8.008 8.008 0 0 1 -2.667-5.95z"/><path d="m42 35c1.682 0 3-1.757 3-4s-1.318-4-3-4-3 1.757-3 4 1.318 4 3 4zm0-6c.408 0 1 .779 1 2s-.592 2-1 2-1-.779-1-2 .592-2 1-2z"/><path d="m50 35c1.682 0 3-1.757 3-4s-1.318-4-3-4-3 1.757-3 4 1.318 4 3 4zm0-6c.408 0 1 .779 1 2s-.592 2-1 2-1-.779-1-2 .592-2 1-2z"/><path d="m63 33a16.952 16.952 0 0 0 -22.73-15.985 16.447 16.447 0 0 0 -9.17 2.665 22.256 22.256 0 0 1 6.471-13.837l3.136-3.136-1.414-1.414-3.136 3.136a24.361 24.361 0 0 0 -5.45 8.288 7.821 7.821 0 0 0 -7.536-5.717h-1.171a1 1 0 0 0 -1 1v1.171a7.829 7.829 0 0 0 7.829 7.829h.623a24.739 24.739 0 0 0 -.372 2.8 16.392 16.392 0 0 0 -9.08-2.8c-10.477 0-19 10.318-19 23s8.523 23 19 23a16.566 16.566 0 0 0 10-3.437 16.566 16.566 0 0 0 10 3.437c9.168 0 16.936-7.815 18.646-18.646a16.909 16.909 0 0 0 4.354-11.354zm-34-18h-.171a5.828 5.828 0 0 1 -5.829-5.829v-.171h.171a5.828 5.828 0 0 1 5.829 5.829zm32 18a14.95 14.95 0 0 1 -14.378 14.968 1 1 0 0 0 -.622.252l-3.676 3.267.37-2.965a1 1 0 0 0 -.723-1.086 14.995 14.995 0 1 1 19.029-14.436zm-18 21a2 2 0 1 1 -2.777-1.843l-.215 1.719a1 1 0 0 0 1.657.871l1.291-1.147a1.986 1.986 0 0 1 .044.4zm-13.563-24.773a1.974 1.974 0 0 1 1.053-3.153 16.824 16.824 0 0 0 -1.053 3.153zm10.563 31.773a14.721 14.721 0 0 1 -9.367-3.481 1 1 0 0 0 -1.266 0 14.721 14.721 0 0 1 -9.367 3.481c-9.374 0-17-9.421-17-21s7.626-21 17-21a14.718 14.718 0 0 1 9.367 3.481 1 1 0 0 0 1.266 0 15.681 15.681 0 0 1 4.605-2.628 17.1 17.1 0 0 0 -3.663 4.2 3.936 3.936 0 0 0 -.575-.053 4 4 0 0 0 -1.924 7.5c-.044.5-.076 1-.076 1.5a17.045 17.045 0 0 0 11.6 16.108l-.118.944a4.017 4.017 0 1 0 4.061 2.133l2.517-2.238a16.944 16.944 0 0 0 9.049-3.281c-2.274 8.462-8.683 14.334-16.109 14.334z"/></svg>