<svg id="Layer_3" height="512" viewBox="0 0 64 64" width="512" xmlns="http://www.w3.org/2000/svg" data-name="Layer 3"><path d="m26.04 16v-8h4.96a44.772 44.772 0 0 1 24.04 7l-3 7z" fill="#7f8282"/><path d="m31 8h-4.96v8l4.206.97.794-3.97 2 1v-4l3 2 2-2 3 3 4-1 .238-1.659a44.782 44.782 0 0 0 -14.278-2.341z" fill="#616566"/><path d="m12.04 20 13-2 26 6 11 8-12.324-1.812-25.106-4.689z" fill="#616566"/><path d="m32.04 42-7 8 1.269 1.088a20.407 20.407 0 0 0 13.28 4.912 20.408 20.408 0 0 0 14.428-5.976l.023-.024-2.54-1.812a10.661 10.661 0 0 1 -4.463-8.672 10.656 10.656 0 0 1 1.126-4.766 17.758 17.758 0 0 0 1.874-7.942v-3.808l-19-3z" fill="#aaa"/><path d="m51.017 50.024.023-.024-2.54-1.812a10.654 10.654 0 0 1 -3.334-13.438 17.758 17.758 0 0 0 1.874-7.942v-3.808l-15.978-2.523.978 21.523-7 8 1.27 1.088a20.392 20.392 0 0 0 11.7 4.842 20.393 20.393 0 0 0 13.007-5.906z" fill="#969696"/><path d="m48.166 34.75a17.654 17.654 0 0 0 .756-1.75h-12.882v4h11.306a10.588 10.588 0 0 1 .82-2.25z" fill="#913b27"/><path d="m29.04 19-2.44 2.927a11.052 11.052 0 0 0 -2.56 7.073 21.653 21.653 0 0 0 -18.36 10.176l-3.64 5.824 9.291-3.871a14.683 14.683 0 0 1 5.645-1.129 14.681 14.681 0 0 1 7.55 2.091l6.514 3.909h1a7 7 0 0 0 7-7 30 30 0 0 0 -6-18z" fill="#913b27"/><path d="m39.04 39a30 30 0 0 0 -6-18l-2.6-1.3-1.84 5.227a11.052 11.052 0 0 0 -2.56 7.073 21.653 21.653 0 0 0 -18.36 10.176l-.4.641 4.051-1.688a14.676 14.676 0 0 1 13.2.962l6.509 3.909h1a7 7 0 0 0 7-7z" fill="#af5445"/><path d="m62.04 32-10-10-1.2-.552a59.189 59.189 0 0 0 -24.8-5.448l-14 4a109.268 109.268 0 0 1 45.791 10.057z" fill="#6c7070"/><circle cx="31.04" cy="30" fill="#616566" r="2"/><path d="m18.165 40.054a14.672 14.672 0 0 1 6.361 2.037l6.514 3.909h1a7 7 0 0 0 7-7c0-.335-.029-.666-.04-1h-9.9a30.348 30.348 0 0 0 -10.935 2.054z" fill="#913b27"/><path d="m31 33a3 3 0 1 0 -3-3 3 3 0 0 0 3 3zm0-4a1 1 0 1 1 -1 1 1 1 0 0 1 1-1z"/><path d="m62.707 31.293-9.521-9.522 2.733-6.377a1 1 0 0 0 -.382-1.238 45.706 45.706 0 0 0 -24.575-7.156h-4.962a1 1 0 0 0 -1 1v7.246l-13.274 3.793a1 1 0 0 0 -.126 1.877l11.769 5.149a12.021 12.021 0 0 0 -.329 1.955 22.512 22.512 0 0 0 -18.248 10.626l-3.64 5.824a1 1 0 0 0 1.233 1.453l9.291-3.871a13.818 13.818 0 0 1 12.3.9l3.849 2.309-3.573 4.083a1 1 0 0 0 .1 1.418l1.269 1.088a21.4 21.4 0 0 0 29.089-1.14 1 1 0 0 0 -.126-1.52l-2.537-1.813a9.656 9.656 0 0 1 -3.027-12.177 18.735 18.735 0 0 0 1.424-3.886l11.41 1.678a.909.909 0 0 0 .146.008 1 1 0 0 0 .706-1.707zm-15.477 3.007a11.518 11.518 0 0 0 -.667 1.7h-6.725c-.065-.671-.145-1.338-.253-2h7.786c-.048.1-.091.2-.141.3zm-8.03-2.3a30.839 30.839 0 0 0 -3.231-8.284 109.189 109.189 0 0 1 13.01 3.829 16.845 16.845 0 0 1 -.812 4.455zm-20.754-12.8 7.694-2.2a58.606 58.606 0 0 1 24.245 5.355l1.034.478 5.937 5.937a111.186 111.186 0 0 0 -38.91-9.57zm12.516-10.2a43.7 43.7 0 0 1 22.781 6.4l-2.257 5.266-.263-.122a60.611 60.611 0 0 0 -24.223-5.516v-6.028zm-13.9 12.121c2.77.132 5.536.395 8.293.741a12.042 12.042 0 0 0 -1.329 2.306zm-6.156 19.085-6.4 2.665 1.977-3.165a20.536 20.536 0 0 1 17.517-9.706 1 1 0 0 0 1-1 10.069 10.069 0 0 1 2.329-6.433l.332-.4c1.879.277 3.748.611 5.61.985a28.856 28.856 0 0 1 4.655 13.848h-8.864a31.232 31.232 0 0 0 -11.162 2.058 15.677 15.677 0 0 0 -6.994 1.148zm11.094-.339a29.272 29.272 0 0 1 7.062-.867h8.938a6.006 6.006 0 0 1 -6 6h-.723l-6.277-3.766a15.405 15.405 0 0 0 -3-1.367zm28.882 9.133 1.549 1.107a19.407 19.407 0 0 1 -25.511.221l-.5-.431 3.143-3.597.922.553a1 1 0 0 0 .515.147h1a8.009 8.009 0 0 0 8-8c0-.335-.026-.666-.037-1h6.146a11.486 11.486 0 0 0 -.109 1.516 11.678 11.678 0 0 0 4.882 9.484zm-.063-19.656q.075-.543.117-1.089c1.43.549 2.849 1.122 4.251 1.731z"/></svg>