<?xml version="1.0" encoding="UTF-8" standalone="no"?>
<!-- Created with Inkscape (http://www.inkscape.org/) -->

<svg
   version="1.1"
   id="svg12042"
   xml:space="preserve"
   width="682.66669"
   height="682.66669"
   viewBox="0 0 682.66669 682.66669"
   xmlns="http://www.w3.org/2000/svg"
   xmlns:svg="http://www.w3.org/2000/svg"><defs
     id="defs12046"><clipPath
       clipPathUnits="userSpaceOnUse"
       id="clipPath12056"><path
         d="M 0,512 H 512 V 0 H 0 Z"
         id="path12054" /></clipPath></defs><g
     id="g12048"
     transform="matrix(1.3333333,0,0,-1.3333333,0,682.66667)"><g
       id="g12050"><g
         id="g12052"
         clip-path="url(#clipPath12056)"><g
           id="g12058"
           transform="translate(431.1826,102.6602)"><path
             d="M 0,0 V -95.16 H -350.369 V 0 c 0,64.049 51.922,115.972 115.972,115.972 h 118.426 C -51.922,115.972 0,64.049 0,0"
             style="fill:#554e55;fill-opacity:1;fill-rule:nonzero;stroke:none"
             id="path12060" /></g><g
           id="g12062"
           transform="translate(431.1865,102.6592)"><path
             d="M 0,0 V -95.159 H -39.386 V 0 c 0,64.054 -51.923,115.977 -115.967,115.977 h 39.376 C -51.923,115.977 0,64.054 0,0"
             style="fill:#433f43;fill-opacity:1;fill-rule:nonzero;stroke:none"
             id="path12064" /></g><g
           id="g12066"
           transform="translate(82.6416,123.1953)"><path
             d="m 0,0 c -1.193,-6.666 -1.828,-13.525 -1.828,-20.535 v -34.069 h 350.369 v 34.069 c 0,7.01 -0.635,13.869 -1.828,20.535 z"
             style="fill:#fc9744;fill-opacity:1;fill-rule:nonzero;stroke:none"
             id="path12068" /></g><g
           id="g12070"
           transform="translate(389.9727,123.1953)"><path
             d="m 0,0 c 1.193,-6.666 1.828,-13.526 1.828,-20.536 v -34.068 h 39.386 v 34.068 c 0,7.01 -0.635,13.87 -1.828,20.536 z"
             style="fill:#fb8627;fill-opacity:1;fill-rule:nonzero;stroke:none"
             id="path12072" /></g><g
           id="g12074"
           transform="translate(313.2002,209.9697)"><path
             d="m 0,0 c 0,-26.529 -25.61,-48.04 -57.2,-48.04 -31.59,0 -57.2,21.511 -57.2,48.04 0,1.79 0.12,5.54 0.35,8.66 H -0.351 C -0.12,5.54 0,1.79 0,0"
             style="fill:#ffcec0;fill-opacity:1;fill-rule:nonzero;stroke:none"
             id="path12076" /></g><g
           id="g12078"
           transform="translate(312.8496,218.6299)"><path
             d="m 0,0 c 0.23,-3.12 0.351,-6.87 0.351,-8.66 0,-26.529 -25.611,-48.04 -57.201,-48.04 -31.589,0 -57.2,21.511 -57.2,48.04 0,1.79 0.12,5.54 0.351,8.66"
             style="fill:none;stroke:#000000;stroke-width:15;stroke-linecap:round;stroke-linejoin:round;stroke-miterlimit:10;stroke-dasharray:none;stroke-opacity:1"
             id="path12080" /></g><g
           id="g12082"
           transform="translate(431.1826,7.5)"><path
             d="m 0,0 v 95.16 c 0,64.049 -51.922,115.972 -115.972,115.972 h -118.425 c -23.149,0 -44.709,-6.785 -62.811,-18.47"
             style="fill:none;stroke:#000000;stroke-width:15;stroke-linecap:round;stroke-linejoin:round;stroke-miterlimit:10;stroke-dasharray:none;stroke-opacity:1"
             id="path12084" /></g><g
           id="g12086"
           transform="translate(107.5557,176.7363)"><path
             d="m 0,0 c -16.698,-20.092 -26.742,-45.91 -26.742,-74.076 v -95.16"
             style="fill:none;stroke:#000000;stroke-width:15;stroke-linecap:round;stroke-linejoin:round;stroke-miterlimit:10;stroke-dasharray:none;stroke-opacity:1"
             id="path12088" /></g><g
           id="g12090"
           transform="translate(363.0127,81.25)"><path
             d="M 0,0 V -73.75"
             style="fill:none;stroke:#000000;stroke-width:15;stroke-linecap:round;stroke-linejoin:round;stroke-miterlimit:10;stroke-dasharray:none;stroke-opacity:1"
             id="path12092" /></g><g
           id="g12094"
           transform="translate(148.9844,81.25)"><path
             d="M 0,0 V -73.75"
             style="fill:none;stroke:#000000;stroke-width:15;stroke-linecap:round;stroke-linejoin:round;stroke-miterlimit:10;stroke-dasharray:none;stroke-opacity:1"
             id="path12096" /></g><g
           id="g12098"
           transform="translate(282.9697,247.4492)"><path
             d="m 0,0 v -44.755 c 0,-14.894 -12.075,-26.97 -26.97,-26.97 h -0.009 c -14.896,0 -26.97,12.076 -26.97,26.97 V 0 Z"
             style="fill:#ffcec0;fill-opacity:1;fill-rule:nonzero;stroke:none"
             id="path12100" /></g><g
           id="g12102"
           transform="translate(282.9697,247.4492)"><path
             d="m 0,0 v -24.109 c -8.349,-2.408 -17.15,-3.717 -26.225,-3.787 h -0.735 c -9.355,0 -18.409,1.298 -26.989,3.726 V 0 Z"
             style="fill:#fdb0a0;fill-opacity:1;fill-rule:nonzero;stroke:none"
             id="path12104" /></g><g
           id="g12106"
           transform="translate(282.9668,202.6934)"><path
             d="M 0,0 V 44.754 H -53.944 V 0"
             style="fill:none;stroke:#000000;stroke-width:15;stroke-linecap:round;stroke-linejoin:round;stroke-miterlimit:10;stroke-dasharray:none;stroke-opacity:1"
             id="path12108" /></g><g
           id="g12110"
           transform="translate(224.3828,370.6484)"><path
             d="m 0,0 c 0,-61.421 -31.605,-111.213 -70.594,-111.213 -38.987,0 -70.593,49.792 -70.593,111.213 0,61.421 31.606,111.213 70.593,111.213 C -31.605,111.213 0,61.421 0,0"
             style="fill:#f2681f;fill-opacity:1;fill-rule:nonzero;stroke:none"
             id="path12112" /></g><g
           id="g12114"
           transform="translate(224.3828,370.6484)"><path
             d="m 0,0 c 0,-61.421 -31.605,-111.213 -70.594,-111.213 -38.987,0 -70.593,49.792 -70.593,111.213 0,61.421 31.606,111.213 70.593,111.213 C -31.605,111.213 0,61.421 0,0 Z"
             style="fill:none;stroke:#000000;stroke-width:15;stroke-linecap:round;stroke-linejoin:round;stroke-miterlimit:10;stroke-dasharray:none;stroke-opacity:1"
             id="path12116" /></g><g
           id="g12118"
           transform="translate(287.6172,370.6484)"><path
             d="m 0,0 c 0,-61.421 31.605,-111.213 70.594,-111.213 38.987,0 70.593,49.792 70.593,111.213 0,61.421 -31.606,111.213 -70.593,111.213 C 31.605,111.213 0,61.421 0,0"
             style="fill:#e25010;fill-opacity:1;fill-rule:nonzero;stroke:none"
             id="path12120" /></g><g
           id="g12122"
           transform="translate(287.6172,370.6484)"><path
             d="m 0,0 c 0,-61.421 31.605,-111.213 70.594,-111.213 38.987,0 70.593,49.792 70.593,111.213 0,61.421 -31.606,111.213 -70.593,111.213 C 31.605,111.213 0,61.421 0,0 Z"
             style="fill:none;stroke:#000000;stroke-width:15;stroke-linecap:round;stroke-linejoin:round;stroke-miterlimit:10;stroke-dasharray:none;stroke-opacity:1"
             id="path12124" /></g><g
           id="g12126"
           transform="translate(280.042,370.6484)"><path
             d="m 0,0 c 0,-70.413 -36.233,-127.494 -80.929,-127.494 -44.695,0 -80.928,57.081 -80.928,127.494 0,70.413 36.233,127.494 80.928,127.494 C -36.233,127.494 0,70.413 0,0"
             style="fill:#fb7722;fill-opacity:1;fill-rule:nonzero;stroke:none"
             id="path12128" /></g><g
           id="g12130"
           transform="translate(231.958,370.6484)"><path
             d="m 0,0 c 0,-70.413 36.233,-127.494 80.929,-127.494 44.695,0 80.928,57.081 80.928,127.494 0,70.413 -36.233,127.494 -80.928,127.494 C 36.233,127.494 0,70.413 0,0"
             style="fill:#fb7722;fill-opacity:1;fill-rule:nonzero;stroke:none"
             id="path12132" /></g><g
           id="g12134"
           transform="translate(393.8203,370.6504)"><path
             d="m 0,0 c 0,-70.41 -36.24,-127.5 -80.931,-127.5 -4.92,0 -9.729,0.689 -14.409,2.01 37.819,10.71 66.52,62.83 66.52,125.49 0,62.66 -28.701,114.77 -66.52,125.479 4.68,1.321 9.489,2.011 14.409,2.011 C -36.24,127.49 0,70.41 0,0"
             style="fill:#f2681f;fill-opacity:1;fill-rule:nonzero;stroke:none"
             id="path12136" /></g><g
           id="g12138"
           transform="translate(280.042,370.6484)"><path
             d="m 0,0 c 0,-70.413 -36.233,-127.494 -80.929,-127.494 -44.695,0 -80.928,57.081 -80.928,127.494 0,70.413 36.233,127.494 80.928,127.494 C -36.233,127.494 0,70.413 0,0 Z"
             style="fill:none;stroke:#000000;stroke-width:15;stroke-linecap:round;stroke-linejoin:round;stroke-miterlimit:10;stroke-dasharray:none;stroke-opacity:1"
             id="path12140" /></g><g
           id="g12142"
           transform="translate(392.8145,390.7178)"><path
             d="m 0,0 c -6.111,60.877 -39.566,107.425 -79.928,107.425 -44.695,0 -80.928,-57.081 -80.928,-127.494 0,-70.413 36.233,-127.494 80.928,-127.494 41.403,0 75.539,48.982 80.345,112.167"
             style="fill:none;stroke:#000000;stroke-width:15;stroke-linecap:round;stroke-linejoin:round;stroke-miterlimit:10;stroke-dasharray:none;stroke-opacity:1"
             id="path12144" /></g><g
           id="g12146"
           transform="translate(327.168,370.6484)"><path
             d="m 0,0 c 0,-73.924 -32.794,-133.852 -73.246,-133.852 -40.452,0 -73.245,59.928 -73.245,133.852 0,73.924 32.793,133.852 73.245,133.852 C -32.794,133.852 0,73.924 0,0"
             style="fill:#fc9744;fill-opacity:1;fill-rule:nonzero;stroke:none"
             id="path12148" /></g><g
           id="g12150"
           transform="translate(327.1699,370.6504)"><path
             d="m 0,0 c 0,-73.931 -32.8,-133.851 -73.25,-133.851 -5.59,0 -11.04,1.151 -16.28,3.321 32.62,13.52 56.97,66.83 56.97,130.53 0,63.699 -24.35,117 -56.97,130.529 5.24,2.17 10.69,3.321 16.28,3.321 C -32.8,133.85 0,73.92 0,0"
             style="fill:#fb8627;fill-opacity:1;fill-rule:nonzero;stroke:none"
             id="path12152" /></g><g
           id="g12154"
           transform="translate(327.168,370.6484)"><path
             d="m 0,0 c 0,-73.924 -32.794,-133.852 -73.246,-133.852 -40.452,0 -73.245,59.928 -73.245,133.852 0,73.924 32.793,133.852 73.245,133.852 C -32.794,133.852 0,73.924 0,0 Z"
             style="fill:none;stroke:#000000;stroke-width:15;stroke-linecap:round;stroke-linejoin:round;stroke-miterlimit:10;stroke-dasharray:none;stroke-opacity:1"
             id="path12156" /></g><g
           id="g12158"
           transform="translate(348.6631,340.3506)"><path
             d="m 0,0 c 6.745,2.66 12.982,-4.628 9.348,-10.902 -20.339,-35.118 -58.323,-58.74 -101.82,-58.74 -4.727,0 -9.392,0.28 -13.976,0.823 -4.156,0.492 -7.072,4.348 -6.489,8.492 l 0.222,1.573 c 0.502,3.57 -1.584,6.999 -4.985,8.193 l -15.45,5.428 c -3.438,1.208 -7.247,-0.205 -9.066,-3.362 l -0.833,-1.445 c -2.094,-3.634 -6.775,-4.873 -10.36,-2.697 -17.139,10.406 -31.407,25.066 -41.341,42.515 -3.546,6.228 2.764,13.5 9.408,10.812 27.214,-11.007 59.241,-17.36 93.536,-17.36 4.411,0 8.785,0.105 13.116,0.313 3.589,0.171 6.798,-2.207 7.656,-5.698 0.831,-3.383 3.865,-5.761 7.348,-5.761 h 13.5 c 3.836,0 7.067,2.871 7.515,6.681 l 0.447,3.791 c 0.375,3.188 2.741,5.781 5.879,6.451 C -23.531,-8.15 -11.356,-4.479 0,0"
             style="fill:#6f4545;fill-opacity:1;fill-rule:nonzero;stroke:none"
             id="path12160" /></g><g
           id="g12162"
           transform="translate(358.0508,329.5137)"><path
             d="m 0,0 c -20.33,-35.15 -58.33,-58.8 -101.859,-58.8 -4.727,0 -9.391,0.278 -13.975,0.82 -4.157,0.492 -7.072,4.351 -6.486,8.497 l 0.22,1.563 c 0.201,1.42 -0.009,2.82 -0.56,4.06 38.6,0.27 72.79,19.15 94.02,48.12 6.67,1.95 13.12,4.16 19.33,6.61 C -2.62,13.51 3.601,6.23 0,0"
             style="fill:#583637;fill-opacity:1;fill-rule:nonzero;stroke:none"
             id="path12164" /></g><g
           id="g12166"
           transform="translate(348.6631,340.3506)"><path
             d="m 0,0 c 6.745,2.66 12.982,-4.628 9.348,-10.902 -20.339,-35.118 -58.323,-58.74 -101.82,-58.74 -4.727,0 -9.392,0.28 -13.976,0.823 -4.156,0.492 -7.072,4.348 -6.489,8.492 l 0.222,1.573 c 0.502,3.57 -1.584,6.999 -4.985,8.193 l -15.45,5.428 c -3.438,1.208 -7.247,-0.205 -9.066,-3.362 l -0.833,-1.445 c -2.094,-3.634 -6.775,-4.873 -10.36,-2.697 -17.139,10.406 -31.407,25.066 -41.341,42.515 -3.546,6.228 2.764,13.5 9.408,10.812 27.214,-11.007 59.241,-17.36 93.536,-17.36 4.411,0 8.785,0.105 13.116,0.313 3.589,0.171 6.798,-2.207 7.656,-5.698 0.831,-3.383 3.865,-5.761 7.348,-5.761 h 13.5 c 3.836,0 7.067,2.871 7.515,6.681 l 0.447,3.791 c 0.375,3.188 2.741,5.781 5.879,6.451 C -23.531,-8.15 -11.356,-4.479 0,0 Z"
             style="fill:none;stroke:#000000;stroke-width:15;stroke-linecap:round;stroke-linejoin:round;stroke-miterlimit:10;stroke-dasharray:none;stroke-opacity:1"
             id="path12168" /></g><g
           id="g12170"
           transform="translate(221.3633,405.9014)"><path
             d="m 0,0 c 0,-19.47 -13.735,-35.253 -30.679,-35.253 -16.942,0 -30.677,15.783 -30.677,35.253 0,19.47 13.735,35.253 30.677,35.253 C -13.735,35.253 0,19.47 0,0"
             style="fill:#6f4545;fill-opacity:1;fill-rule:nonzero;stroke:none"
             id="path12172" /></g><g
           id="g12174"
           transform="translate(221.3604,405.9004)"><path
             d="m 0,0 c 0,-19.471 -13.73,-35.25 -30.671,-35.25 -7.199,0 -13.829,2.859 -19.069,7.63 14.8,2.51 26.16,17.159 26.16,34.87 0,11.18 -4.53,21.149 -11.601,27.619 1.471,0.25 2.981,0.381 4.51,0.381 C -13.73,35.25 0,19.47 0,0"
             style="fill:#583637;fill-opacity:1;fill-rule:nonzero;stroke:none"
             id="path12176" /></g><g
           id="g12178"
           transform="translate(221.3633,405.9014)"><path
             d="m 0,0 c 0,-19.47 -13.735,-35.253 -30.679,-35.253 -16.942,0 -30.677,15.783 -30.677,35.253 0,19.47 13.735,35.253 30.677,35.253 C -13.735,35.253 0,19.47 0,0 Z"
             style="fill:none;stroke:#000000;stroke-width:15;stroke-linecap:round;stroke-linejoin:round;stroke-miterlimit:10;stroke-dasharray:none;stroke-opacity:1"
             id="path12180" /></g><g
           id="g12182"
           transform="translate(351.9932,405.9014)"><path
             d="m 0,0 c 0,-19.47 -13.735,-35.253 -30.678,-35.253 -16.943,0 -30.678,15.783 -30.678,35.253 0,19.47 13.735,35.253 30.678,35.253 C -13.735,35.253 0,19.47 0,0"
             style="fill:#6f4545;fill-opacity:1;fill-rule:nonzero;stroke:none"
             id="path12184" /></g><g
           id="g12186"
           transform="translate(351.9902,405.9004)"><path
             d="m 0,0 c 0,-19.471 -13.73,-35.25 -30.68,-35.25 -7.2,0 -13.83,2.859 -19.06,7.63 14.81,2.51 26.16,17.17 26.16,34.87 0,11.189 -4.53,21.16 -11.6,27.619 1.47,0.25 2.97,0.381 4.5,0.381 C -13.73,35.25 0,19.47 0,0"
             style="fill:#583637;fill-opacity:1;fill-rule:nonzero;stroke:none"
             id="path12188" /></g><g
           id="g12190"
           transform="translate(351.9932,405.9014)"><path
             d="m 0,0 c 0,-19.47 -13.735,-35.253 -30.678,-35.253 -16.943,0 -30.678,15.783 -30.678,35.253 0,19.47 13.735,35.253 30.678,35.253 C -13.735,35.253 0,19.47 0,0 Z"
             style="fill:none;stroke:#000000;stroke-width:15;stroke-linecap:round;stroke-linejoin:round;stroke-miterlimit:10;stroke-dasharray:none;stroke-opacity:1"
             id="path12192" /></g><g
           id="g12194"
           transform="translate(82.0049,43.5713)"><path
             d="M 0,0 H 347.99"
             style="fill:none;stroke:#000000;stroke-width:15;stroke-linecap:round;stroke-linejoin:round;stroke-miterlimit:10;stroke-dasharray:none;stroke-opacity:1"
             id="path12196" /></g><g
           id="g12198"
           transform="translate(80.8135,68.5908)"><path
             d="M 0,0 H 350.369"
             style="fill:none;stroke:#000000;stroke-width:15;stroke-linecap:round;stroke-linejoin:round;stroke-miterlimit:10;stroke-dasharray:none;stroke-opacity:1"
             id="path12200" /></g><g
           id="g12202"
           transform="translate(332.8682,123.1953)"><path
             d="M 0,0 H -250.227"
             style="fill:none;stroke:#000000;stroke-width:15;stroke-linecap:round;stroke-linejoin:round;stroke-miterlimit:10;stroke-dasharray:none;stroke-opacity:1"
             id="path12204" /></g><g
           id="g12206"
           transform="translate(429.3545,123.1953)"><path
             d="M 0,0 H -61.091"
             style="fill:none;stroke:#000000;stroke-width:15;stroke-linecap:round;stroke-linejoin:round;stroke-miterlimit:10;stroke-dasharray:none;stroke-opacity:1"
             id="path12208" /></g><g
           id="g12210"
           transform="translate(274.75,362.8437)"><path
             d="m 0,0 -10.92,22.654 c -3.161,6.558 -12.499,6.558 -15.66,0 L -37.5,0 c -2.782,-5.771 1.423,-12.467 7.829,-12.467 H -7.829 C -1.423,-12.467 2.782,-5.771 0,0"
             style="fill:#6f4545;fill-opacity:1;fill-rule:nonzero;stroke:none"
             id="path12212" /></g><g
           id="g12214"
           transform="translate(266.9199,350.3799)"><path
             d="m 0,0 h -18.359 c 6.409,0 10.609,6.69 7.829,12.46 l -9.57,19.86 1.35,2.8 c 3.16,6.561 12.5,6.561 15.66,0 L 7.83,12.46 C 10.61,6.69 6.41,0 0,0"
             style="fill:#583637;fill-opacity:1;fill-rule:nonzero;stroke:none"
             id="path12216" /></g><g
           id="g12218"
           transform="translate(274.75,362.8437)"><path
             d="m 0,0 -10.92,22.654 c -3.161,6.558 -12.499,6.558 -15.66,0 L -37.5,0 c -2.782,-5.771 1.423,-12.467 7.829,-12.467 H -7.829 C -1.423,-12.467 2.782,-5.771 0,0 Z"
             style="fill:none;stroke:#000000;stroke-width:15;stroke-linecap:round;stroke-linejoin:round;stroke-miterlimit:10;stroke-dasharray:none;stroke-opacity:1"
             id="path12220" /></g></g></g></g></svg>
