<svg fill="none" height="512" viewBox="0 0 120 120" width="512" xmlns="http://www.w3.org/2000/svg"><path d="m19 95c0 8.284 6.7157 15 15 15h53c8.2843 0 15-6.716 15-15v-42c0-8.2843-6.7157-15-15-15h-53c-8.2843 0-15 6.7157-15 15z" fill="#ce3b3b"/><path clip-rule="evenodd" d="m70.477 88.9934c.0455-1.1458.6778-2.1742 1.5969-2.8599 4.2253-3.1523 6.9261-7.968 6.9261-13.3644 0-9.496-8.3633-17.194-18.68-17.194s-18.68 7.698-18.68 17.194c0 5.2797 2.5853 10.0036 6.6542 13.1577.9253.7172 1.5618 1.77 1.6083 2.9397.0755 1.9004 1.6381 3.4021 3.54 3.4021h13.6265c1.831 0 3.3353-1.4457 3.408-3.2752z" fill="#d9d9d9" fill-rule="evenodd"/><g fill="#000"><path d="m59.235 78.3118c.7528-1.4125 2.7772-1.4125 3.53 0l1.864 3.4976c.7099 1.3321-.2555 2.9406-1.765 2.9406h-3.728c-1.5096 0-2.475-1.6085-1.765-2.9406z"/><path d="m54.64 77.7723c2.7614 0 5-2.2385 5-5 0-2.7614-2.2386-5-5-5s-5 2.2386-5 5c0 2.7615 2.2386 5 5 5z"/><path d="m72.64 72.7723c0 2.7615-2.2386 5-5 5s-5-2.2385-5-5c0-2.7614 2.2386-5 5-5s5 2.2386 5 5z"/><path clip-rule="evenodd" d="m73.4562 91.9303c.0544-1.3691.8099-2.5978 1.9081-3.4171 5.0486-3.7666 8.2757-9.5208 8.2757-15.9686 0-11.3465-9.993-20.5446-22.32-20.5446s-22.32 9.1981-22.32 20.5446c0 6.3085 3.0891 11.9528 7.9509 15.7215 1.1055.857 1.8661 2.1149 1.9216 3.5126.0903 2.2707 1.9573 4.065 4.2298 4.065h16.2819c2.1877 0 3.9851-1.7274 4.072-3.9134zm2.1838-19.3857c0 3.665-1.819 7.1388-5.0595 9.5565-1.8157 1.3546-3.4433 3.3164-4.3563 5.7426h-10.0563c-.8862-2.4854-2.5086-4.4995-4.3158-5.9004-3.1107-2.4113-4.8521-5.8103-4.8521-9.3987 0-6.3168 5.7741-12.5446 14.32-12.5446 8.546 0 14.32 6.2278 14.32 12.5446z" fill-rule="evenodd"/><path clip-rule="evenodd" d="m34 30v8c-8.2843 0-15 6.7157-15 15v42c0 8.284 6.7157 15 15 15h53c8.2843 0 15-6.716 15-15v-5.9999c2.209 0 4-1.7909 4-4 0-2.2092-1.791-4-4-4v-3c2.209 0 4-1.7909 4-4 0-2.2092-1.791-4-4-4v-3c2.209 0 4-1.7909 4-4 0-2.2092-1.791-4-4-4v-6.0001c0-8.2843-6.7157-15-15-15v-8c0-11.0457-8.9543-20-20-20h-13c-11.0457 0-20 8.9543-20 20zm33-12h-13c-6.6274 0-12 5.3726-12 12v8h37v-8c0-6.6274-5.3726-12-12-12zm27 63.0311v-3.0619c-1.9731-.2461-3.5-1.9293-3.5-3.9691s1.5269-3.723 3.5-3.969v-3.0619c-1.9731-.2461-3.5-1.9293-3.5-3.9691s1.5269-3.723 3.5-3.969v-6.0311c0-3.866-3.134-7-7-7h-53c-3.866 0-7 3.134-7 7v42c0 3.866 3.134 7 7 7h53c3.866 0 7-3.134 7-7v-6.0308c-1.9731-.2461-3.5-1.9293-3.5-3.9691s1.5269-3.723 3.5-3.969z" fill-rule="evenodd"/></g></svg>