<svg id="Layer_31" height="512" viewBox="0 0 64 64" width="512" xmlns="http://www.w3.org/2000/svg"><g><path d="m35.055 10.644c-.884-.349-1.831-.538-2.781-.547-1.773-.016-3.546.597-4.93 1.707-2.742-2.403-6.973-2.669-10.246-1.06s-5.703 4.529-7.712 7.572c-3.096 4.69-5.471 10.028-5.708 15.643s1.945 11.523 6.492 14.825c2.963 2.152 5.515 3.395 9.147 3.866 2.948 2.496 7.184 3.846 10.973 3.097 3.208 1.874 7.841 1.719 11.183.096 3.457 2.519 8.52 1.864 11.985-.644s5.572-6.49 6.971-10.532c1.53-4.422 2.359-9.147 1.854-13.799s-2.417-9.229-5.775-12.487-8.143-5.456-12.752-4.649c-1.26-1.378-2.863-2.232-4.558-2.24" fill="#fb9727"/><path d="m39.293 14.85c-1.389.229-2.841.066-4.144-.466-.626-.255-1.284-.685-1.382-1.354 1.243-2.355 2.49-4.51 3.733-6.865.41-.777.827-1.564 1.423-2.209s1.403-1.143 2.281-1.182c.307.819.511 1.231 1.356 1.455-2.628 2.643-3.941 6.956-3.267 10.621z" fill="#719301"/><g fill="#fd7122"><path d="m19.416 39.554c-.053 0-.107-.009-.16-.026-.262-.088-.402-.372-.313-.634.11-.325.234-.666.36-1.01.185-.504.372-1.015.518-1.498.756-2.494 1.799-4.869 3.099-7.055.49-.825 1.203-1.608 1.891-2.365.219-.241.433-.476.631-.704.182-.209.498-.23.706-.049s.23.497.049.706c-.203.233-.422.474-.646.721-.655.72-1.333 1.465-1.771 2.203-1.259 2.118-2.269 4.417-3.001 6.834-.151.5-.345 1.03-.536 1.552-.123.336-.245.668-.352.986-.07.208-.265.34-.474.34z"/><path d="m35.8 24.591c-.053 0-.107-.008-.161-.027-.261-.089-.401-.373-.312-.634.764-2.246 1.143-4.587 1.128-6.96-.002-.276.221-.501.497-.503h.003c.275 0 .498.222.5.497.016 2.485-.381 4.937-1.182 7.289-.071.208-.265.339-.473.339z"/><path d="m49.836 54.31c-.104 0-.208-.032-.298-.099-.221-.165-.267-.479-.102-.7 2.099-2.817 3.29-6.305 3.353-9.817.004-.276.206-.487.509-.491.276.005.496.232.491.509-.066 3.721-1.327 7.413-3.551 10.397-.098.132-.249.201-.401.201z"/><path d="m57.465 36.253c-.01 0-.021 0-.031 0-.275-.017-.485-.254-.468-.529.328-5.332-.657-10.724-2.851-15.595-.113-.251 0-.547.251-.661.251-.113.547-.001.661.251 2.259 5.018 3.275 10.573 2.937 16.065-.016.266-.236.47-.499.47z"/><path d="m19.594 42.271c.035-.273-.16-.524-.434-.559-.277-.038-.524.159-.559.434-.683 5.416.013 9.516.189 10.419.177.028.345.062.527.086.193.163.405.307.608.461-.04-.188-.08-.381-.12-.568-.009-.044-.949-4.434-.212-10.272z"/><path d="m11.083 38.597c0-.276-.222-.501-.498-.502h-.002c-.275 0-.499.223-.5.498-.013 3.829.432 7.532 1.298 11.028.412.273.822.523 1.23.76-.05-.167-.104-.335-.147-.498-.93-3.562-1.395-7.358-1.381-11.286z"/><path d="m12.028 20.115c-.123.248-.021.547.227.669.071.035.146.052.221.052.185 0 .362-.103.449-.279 2.181-4.423 5.834-8.07 10.288-10.271.202-.1.41-.186.615-.277-.567-.14-1.15-.214-1.737-.248-4.337 2.324-7.899 5.965-10.062 10.354z"/><path d="m45.704 49.35c.056-.271-.118-.535-.388-.591-.273-.062-.536.116-.591.388-1 4.836-3.447 6.234-3.486 6.257-.227.122-.315.394-.219.628.15-.065.31-.117.456-.188.149.109.305.203.459.3.696-.472 2.829-2.25 3.77-6.794z"/><path d="m30.613 55.365c-.048-.041-1.174-1.046-1.066-3.8.011-.276-.204-.509-.48-.52-.264 0-.508.204-.519.48-.095 2.431.692 3.751 1.136 4.299.202-.028.407-.038.607-.078.139.081.295.138.44.212.095-.199.057-.443-.118-.594z"/><path d="m43.346 14.019c.402.579 1.432 2.335 1.369 3.488-.015.276.196.512.472.526h.028c.264 0 .484-.206.499-.473.08-1.461-1.018-3.299-1.407-3.902-.183.023-.367.042-.549.074-.111-.122-.229-.234-.345-.348-.169.168-.206.431-.066.633z"/></g><path d="m48.787 19.89c-3.048 2.643-7.149 4.037-11.176 3.798-.262 2.849.278 5.719 2.434 7.6s5.233 2.649 8.02 2.003c1.623-.376 3.193-1.263 4.058-2.686.965-1.588.925-3.629.324-5.388s-2.568-3.822-3.66-5.326z" fill="#383838"/><path d="m32.841 22.707c-2.87-.82-5.482-2.522-7.39-4.818-.646-.777-1.241-1.756-1.009-2.739-2.504.499-5.411 1.532-7.035 3.502-1.624 1.971-2.266 4.847-1.194 7.164 1.373 2.967 5.172 4.217 8.364 3.513s6.091-4.18 8.264-6.623z" fill="#383838"/><path d="m37.022 36.885-9.413-1.494c2.411-1.869 4.791-3.304 7.586-4.526.388 2.164 1.439 3.856 1.827 6.02z" fill="#383838"/><path d="m55.827 37.192c-8.004 2.714-16.517 5.073-24.818 3.485-7.909-1.513-14.68-6.426-21.16-11.207 2.343 5.994 6.309 11.243 11.859 14.501s12.283 4.503 18.604 3.293 11.833-4.794 15.515-10.072z" fill="#383838"/></g><g><path d="m56.857 18.024c-3.798-3.685-8.602-5.477-12.919-4.826-1.214-1.251-2.662-2.003-4.149-2.168.389-2.428 1.49-4.804 3.125-6.449.126-.126.175-.311.128-.483-.046-.172-.182-.307-.354-.353-.591-.157-.721-.357-1.017-1.147-.076-.203-.268-.329-.49-.324-.932.041-1.864.517-2.626 1.342-.645.697-1.079 1.52-1.499 2.314-.62 1.176-1.242 2.302-1.863 3.428-.124.225-.249.452-.373.678-.827-.278-1.679-.431-2.543-.439-1.765.013-3.495.538-4.92 1.568-1.177-.929-2.621-1.509-4.149-1.767-.092-.046-.193-.062-.298-.045-2.003-.277-4.135.01-6.033.942-3.71 1.824-6.291 5.294-7.909 7.746-3.629 5.498-5.577 10.847-5.79 15.897-.262 6.217 2.305 12.061 6.697 15.251.599.436 1.195.839 1.799 1.218 2.141 1.342 4.399 2.307 7.431 2.72 3.159 2.619 7.378 3.812 11.095 3.146 3.099 1.72 7.64 1.775 11.221.146 1.565 1.057 3.374 1.509 5.188 1.509 2.596 0 5.207-.925 7.139-2.323 3.072-2.224 5.411-5.748 7.15-10.774 1.717-4.961 2.349-9.677 1.878-14.015-.55-5.077-2.654-9.62-5.924-12.792zm-18.915-11.627c.39-.738.792-1.501 1.348-2.103.292-.317.858-.824 1.59-.978.196.462.42.829.831 1.092-2.297 2.645-3.461 6.522-2.992 10.011-1.142.105-2.325-.067-3.381-.499-.335-.137-.884-.416-1.04-.826.59-1.113 1.181-2.184 1.772-3.253.625-1.132 1.249-2.263 1.873-3.444zm22.015 38.108c-1.669 4.825-3.891 8.191-6.791 10.29-2.892 2.095-7.421 3.04-10.812 1.025.913-.774 2.556-2.636 3.35-6.471.056-.271-.118-.535-.388-.591-.273-.062-.536.116-.591.388-.978 4.728-3.332 6.166-3.474 6.249-3.386 1.643-7.763 1.615-10.668-.061-.16-.151-1.136-1.182-1.035-3.77.011-.276-.204-.509-.48-.52-.264 0-.508.204-.519.48-.075 1.92.4 3.134.822 3.837-3.231.36-6.889-.76-9.599-2.996-.153-.808-.757-4.456-.273-9.236.633.454 1.285.879 1.956 1.273 4.256 2.498 9.185 3.812 14.049 3.812 1.65 0 3.295-.151 4.902-.459 6.446-1.234 12.069-4.884 15.831-10.277.124-.178.119-.414-.01-.587-.13-.173-.356-.24-.561-.173-7.449 2.526-16.103 5.09-24.563 3.467-3.607-.69-6.997-2.119-10.197-3.892.706-2.228 1.645-4.355 2.802-6.324.333-.033.661-.082.976-.152 3.146-.693 5.895-3.8 8.103-6.297l.427-.482c.114-.129.155-.307.106-.472-.048-.165-.177-.294-.343-.341-2.767-.79-5.304-2.444-7.143-4.656-.761-.916-1.057-1.669-.907-2.305.039-.166-.009-.34-.127-.462-.119-.123-.289-.179-.458-.143-2.344.466-5.517 1.482-7.323 3.674-1.847 2.242-2.354 5.333-1.261 7.692 1.234 2.667 4.09 3.902 6.789 3.976-1.023 1.822-1.871 3.763-2.528 5.792-3.518-2.038-6.8-4.458-9.874-6.726-.178-.131-.423-.128-.601.005-.177.136-.243.372-.162.579 2.065 5.282 5.219 9.615 9.191 12.749-.544 4.574-.114 8.174.125 9.64-2.487-.412-4.442-1.226-6.277-2.346-.898-3.508-1.353-7.239-1.339-11.099 0-.276-.222-.501-.498-.502h-.002c-.275 0-.499.223-.5.498-.013 3.572.385 7.029 1.138 10.317-.252-.173-.503-.347-.755-.53-4.125-2.997-6.534-8.515-6.286-14.399.205-4.867 2.098-10.044 5.625-15.389 1.554-2.354 4.023-5.682 7.515-7.399 1.233-.606 2.575-.917 3.902-.956-3.945 2.333-7.175 5.784-9.193 9.878-.123.248-.021.547.227.669.071.035.146.052.221.052.185 0 .362-.103.449-.279 2.152-4.366 5.744-7.97 10.119-10.178 1.486.251 2.878.843 3.971 1.8.183.161.454.166.642.014 1.269-1.017 2.924-1.597 4.551-1.597h.062c.698.007 1.389.119 2.063.327-.336.615-.672 1.235-1.008 1.871-.049.094-.068.201-.052.306.107.735.691 1.338 1.688 1.745.983.402 2.031.605 3.084.605.444 0 .888-.036 1.33-.109.132-.021.25-.096.328-.206s.107-.246.083-.378c-.162-.881-.2-1.805-.128-2.736 1.322.14 2.623.845 3.71 2.026.414.604 1.411 2.321 1.349 3.457-.015.276.196.512.472.526h.028c.264 0 .484-.206.499-.473.064-1.173-.63-2.582-1.11-3.411 3.871-.391 8.134 1.27 11.558 4.591 3.103 3.01 5.101 7.336 5.626 12.182.455 4.191-.161 8.76-1.83 13.582zm-29.042-3.337c8.124 1.554 16.338-.609 23.556-2.994-3.577 4.482-8.583 7.515-14.252 8.6-6.108 1.171-12.763-.009-18.257-3.233-4.695-2.756-8.454-7.086-10.947-12.59 5.82 4.27 12.365 8.776 19.901 10.218zm-14.249-15.562c-.934-2.018-.482-4.685 1.125-6.637 1.465-1.777 4.014-2.708 6.104-3.191.054.751.441 1.553 1.17 2.43 1.799 2.165 4.224 3.829 6.889 4.744-2.098 2.371-4.694 5.274-7.485 5.889-2.816.619-6.5-.421-7.803-3.235z"/><path d="m50.228 20.923c-.38-.472-.741-.921-1.037-1.328-.082-.113-.208-.187-.347-.203-.138-.02-.279.027-.385.119-2.962 2.569-6.912 3.908-10.819 3.677-.258-.011-.503.185-.528.453-.32 3.484.58 6.258 2.603 8.022 1.743 1.521 4.051 2.352 6.358 2.352.707 0 1.413-.078 2.103-.238 1.925-.446 3.519-1.508 4.373-2.914.958-1.575 1.092-3.692.37-5.809-.464-1.359-1.648-2.832-2.692-4.131zm1.468 9.42c-.716 1.177-2.081 2.073-3.744 2.459-2.636.612-5.539-.113-7.579-1.893-2.08-1.814-2.424-4.56-2.3-6.702 3.824.097 7.652-1.187 10.631-3.597.229.298.482.613.745.939.993 1.235 2.118 2.634 2.525 3.827.626 1.835.525 3.646-.278 4.966z"/><path d="m35.687 30.776c-.027-.15-.122-.281-.257-.353-.135-.073-.295-.08-.436-.017-2.772 1.211-5.216 2.67-7.691 4.589-.158.122-.228.326-.178.52.05.193.209.339.406.37l9.413 1.494c.026.004.053.006.079.006.133 0 .262-.054.357-.15.113-.115.164-.278.135-.438-.202-1.127-.576-2.129-.938-3.098s-.704-1.886-.89-2.923zm-6.835 4.306c1.926-1.404 3.86-2.538 5.981-3.508.211.88.513 1.689.807 2.476.279.747.546 1.463.739 2.227l-7.528-1.194z"/><path d="m35.639 24.564c.054.019.108.027.161.027.208 0 .402-.131.473-.339.8-2.352 1.198-4.804 1.182-7.289-.002-.275-.225-.497-.5-.497h-.003c-.276.002-.499.227-.497.503.015 2.373-.364 4.714-1.128 6.96-.089.262.051.545.312.634z"/><path d="m53.297 43.202c-.303.004-.504.215-.509.491-.062 3.513-1.253 7-3.353 9.817-.165.222-.119.535.102.7.09.066.194.099.298.099.153 0 .303-.069.401-.201 2.224-2.984 3.484-6.677 3.551-10.397.005-.276-.215-.504-.491-.509z"/><path d="m54.366 19.467c-.252.114-.364.41-.251.661 2.193 4.871 3.179 10.263 2.851 15.595-.017.275.193.513.468.529h.031c.262 0 .482-.204.499-.47.338-5.493-.677-11.048-2.937-16.065-.114-.252-.41-.364-.661-.251z"/></g></svg>