<svg id="Capa_1" enable-background="new 0 0 511.255 511.255" height="512" viewBox="0 0 511.255 511.255" width="512" xmlns="http://www.w3.org/2000/svg"><g><g><g><path d="m100.876 185.619-55.328-110.189c-4.659-9.197-.981-20.43 8.217-25.089 9.197-4.659 20.43-.981 25.089 8.217l49.446 98.577 74.294 146.684-28.462 17.355z" fill="#d77f4a"/></g><path d="m124.953 189.876-55.328-110.188c-4.46-8.804-1.266-19.457 7.081-24.44-5.416-6.7-14.945-8.957-22.941-4.907-9.197 4.659-12.876 15.892-8.217 25.089l55.328 110.189 73.256 135.555 16.379-9.987z" fill="#c86d36"/><path d="m393.424 432.522 20.999 63.131c1.777 5.344-3.974 10.064-8.868 7.277l-61.002-34.724-43.741-28.48 77.605-54.904z" fill="#918291"/><path d="m147.707 468.206-61.002 34.724c-4.894 2.786-10.645-1.934-8.868-7.277l20.999-63.131 10.524-35.453 75.901 54.596z" fill="#918291"/><path d="m389.156 156.619h-35.648c-1.847 0-2.974-1.999-2.044-3.595 3.799-6.525 5.814-14.216 5.367-22.408-1.115-20.419-17.791-36.928-38.22-37.858-6.623-.301-12.908 1.011-18.505 3.567-1.731.79-3.753.047-4.692-1.608-9.97-17.578-29.068-29.299-50.853-28.71-29.427.796-53.623 24.493-54.992 53.898-.643 13.802 3.662 26.578 11.288 36.713h-64.282c-10.078 0-18.249 8.17-18.249 18.249v26.751h289.079v-26.752c-.001-10.077-8.171-18.247-18.249-18.247z" fill="#6cf5c2"/><path d="m243.199 66.06c-28.882 1.457-52.279 24.945-53.63 53.833-.634 13.553 3.502 26.116 10.869 36.163.173.236.009.563-.284.563h-63.58c-10.078 0-18.249 8.17-18.249 18.249v26.751h29.654 114.885v-11.439l-29.035-12.934c-2.351-1.047-4.333-2.769-5.723-4.934-6.093-9.488-9.434-20.911-8.888-33.145 1.294-29 24.813-52.585 53.809-53.966 5.928-.282 11.666.352 17.088 1.766-10.948-13.497-27.973-21.863-46.916-20.907z" fill="#00f2a6"/><g><g id="XMLID_223_"><g><path d="m83.41 206.744h317.73l7.71 22.55c21.99 26.56 34.89 58.75 34.89 93.45 0 90.95-88.47 164.69-197.61 164.69s-197.61-73.74-197.61-164.69c0-34.7 12.9-66.89 34.89-93.45v-22.55z" fill="#7a6d79"/></g></g><g fill="#685e68"><path d="m312.871 470.505c-109.14 0-197.61-73.74-197.61-164.69 0-34.7 12.9-66.89 34.89-93.45v-5.621h-66.741v22.55c-21.99 26.56-34.89 58.75-34.89 93.45 0 90.95 88.47 164.69 197.61 164.69 32.458 0 63.087-6.523 90.105-18.08-7.664.752-15.458 1.151-23.364 1.151z"/><path d="m411.057 186.619h-16.755v25.523c0 1.814-6.671 3.285-14.9 3.285s-14.9-1.471-14.9-3.285v-12.713c0-1.814-6.671-3.285-14.9-3.285-8.229 0-14.9 1.471-14.9 3.285v4.708c0 1.814-6.671 3.285-14.9 3.285s-14.9-1.471-14.9-3.285v-17.518h-61.325c.157 0 .228 0 .194 0v21.761c0 3.078-6.716 5.574-15 5.574-8.284 0-15-2.495-15-5.574v-.388c0-3.078-6.716-5.574-15-5.574-8.284 0-15 2.495-15 5.574v7.987c0 3.078-6.716 5.574-15 5.574-8.284 0-15-2.495-15-5.574l.014-19.713h-.014v-9.647h-72.569c-11.51 0-20.84 9.33-20.84 20.84s9.33 20.84 20.84 20.84h72.566s89.192-.809 90.001 0h61.131s90.533 0 90.001 0h16.157c11.51 0 20.84-9.33 20.84-20.84s-9.331-20.84-20.841-20.84z"/></g></g><path d="m312.871 351.243c0-37.412-30.329-67.741-67.741-67.741s-67.741 30.329-67.741 67.741c0 25.433 14.024 47.581 34.754 59.164v8.081c0 6.712 5.441 12.154 12.154 12.154h40.667c6.712 0 12.154-5.441 12.154-12.154v-7.525c21.279-11.422 35.753-33.878 35.753-59.72z" fill="#f3f0f3"/><path d="m232.969 418.487v-4.112c0-2.415-1.258-4.639-3.296-5.935-18.906-12.017-31.458-33.136-31.458-57.197 0-33.871 24.859-61.933 57.328-66.943-3.395-.524-6.872-.798-10.413-.798-37.412 0-67.741 30.329-67.741 67.741 0 25.433 14.024 47.581 34.754 59.164v8.081c0 6.712 5.441 12.154 12.154 12.154h20.827c-6.713-.001-12.155-5.442-12.155-12.155z" fill="#e2dee2"/><circle cx="216.633" cy="347.232" fill="#7a6d79" r="13.185"/><circle cx="273.626" cy="347.232" fill="#7a6d79" r="13.185"/><g><path d="m243.769 186.619v57.938c0 8.196-6.716 14.841-15 14.841-8.284 0-15-6.644-15-14.841v-1.032c0-8.196-6.716-14.841-15-14.841-8.284 0-15 6.644-15 14.841v21.265c0 8.196-6.716 14.841-15 14.841-8.284 0-15-6.644-15-14.841l.021-78.162c-.001-.001 91.014-.009 89.979-.009z" fill="#6cf5c2"/></g><g fill="#00f2a6"><path d="m170.821 264.781.019-70.811v-7.396c-10.068.001-17.051.002-17.051.002l-.021 78.206c0 8.201 6.716 14.849 15 14.849 3.169 0 6.104-.979 8.526-2.639-3.909-2.682-6.473-7.148-6.473-12.211z"/><path d="m230.821 244.18v-1.044c0-1.765-.306-3.457-.867-5.028-1.469-4.113-5.481-6.77-9.848-6.77h-12.086c3.498 2.746 5.748 7.007 5.748 11.798v1.044c0 8.284 6.716 15 15 15 3.169 0 6.104-.989 8.526-2.666-3.908-2.708-6.473-7.219-6.473-12.334z"/></g><path d="m304.9 186.619v78.783c0 8.16 6.671 14.775 14.9 14.775s14.9-6.615 14.9-14.775v-21.172c0-8.16 6.671-14.775 14.9-14.775 8.229 0 14.9 6.615 14.9 14.775v57.174c0 8.16 6.671 14.775 14.9 14.775s14.9-6.615 14.9-14.775v-114.785z" fill="#6cf5c2"/><g fill="#00f2a6"><path d="m321.936 260.684v-74.065h-17.036v78.783c0 8.16 6.671 14.775 14.9 14.775 4.774 0 9.012-2.234 11.739-5.697-5.61-2.119-9.603-7.489-9.603-13.796z"/><path d="m381.538 296.674v-57.174c0-2.197-.486-4.28-1.356-6.152-.879-1.893-2.814-3.073-4.9-3.073h-20.255-.499l.467.183c5.559 2.145 9.506 7.489 9.506 13.759v57.174c0 8.16 6.671 14.775 14.9 14.775 4.774 0 9.012-2.234 11.739-5.697-5.609-2.119-9.602-7.488-9.602-13.795z"/></g><path d="m379.9 393.263c-8.284 0-15-6.716-15-15v-12.921c0-8.284 6.716-15 15-15 8.284 0 15 6.716 15 15v12.921c0 8.284-6.715 15-15 15z" fill="#6cf5c2"/><path d="m379.302 378.263v-12.921c0-5.674 3.152-10.61 7.799-13.159-2.138-1.172-4.591-1.842-7.201-1.842-8.284 0-15 6.716-15 15v12.921c0 8.284 6.716 15 15 15 2.61 0 5.063-.669 7.201-1.842-4.647-2.548-7.799-7.483-7.799-13.157z" fill="#00f2a6"/><circle cx="431.897" cy="43.338" fill="#6cf5c2" r="35.838"/><path d="m417.656 45.773c0-17.405 12.408-31.906 28.86-35.154-4.466-1.998-9.41-3.119-14.619-3.119-19.793 0-35.838 16.045-35.838 35.838s16.045 35.838 35.838 35.838c2.388 0 4.721-.239 6.978-.684-12.503-5.595-21.219-18.135-21.219-32.719z" fill="#00f2a6"/><circle cx="332.985" cy="45.773" fill="#6cf5c2" r="16.915"/></g><g><path d="m451.237 322.746c0-31.672-10.169-62.23-29.509-89.04 10.352-4.224 17.669-14.395 17.669-26.247 0-14.321-10.681-26.188-24.493-28.072v-4.52c0-14.198-11.551-25.749-25.749-25.749h-27.605c1.875-5.159 2.841-10.637 2.841-16.256 0-26.273-21.375-47.647-47.647-47.647-5.644 0-11.243 1.009-16.507 2.953-11.702-18.475-31.835-29.682-54.107-29.682-35.358 0-64.125 28.766-64.125 64.125 0 9.282 1.949 18.257 5.708 26.508h-51.14c-1.279 0-2.535.097-3.765.278l-47.263-94.23c-6.521-12.87-22.299-18.037-35.169-11.517-6.235 3.159-10.868 8.557-13.043 15.199s-1.634 13.734 1.513 19.946l26.73 53.235c1.86 3.701 6.366 5.194 10.068 3.337 3.702-1.859 5.195-6.366 3.337-10.068l-26.742-53.258c-1.348-2.661-1.579-5.688-.651-8.523.929-2.835 2.905-5.139 5.566-6.487 5.494-2.781 12.227-.578 14.996 4.889l47.105 93.91c-5.176 4.713-8.43 11.502-8.43 19.037v4.251h-4.82l-12.668-25.228c-1.859-3.702-6.368-5.195-10.068-3.337-3.702 1.859-5.196 6.366-3.337 10.068l9.288 18.499h-8.018c-15.626 0-28.34 12.713-28.34 28.34 0 11.853 7.318 22.024 17.67 26.248-19.34 26.811-29.51 57.369-29.51 89.04 0 41.54 17.362 80.774 49.195 111.922l-19.497 58.616c-1.798 5.407-.114 11.237 4.292 14.853 2.514 2.063 5.562 3.116 8.637 3.116 2.313 0 4.641-.596 6.767-1.806l60.16-34.245c29.112 12.886 61.715 19.726 95.555 19.726s66.442-6.839 95.555-19.726l60.16 34.245c2.126 1.21 4.454 1.806 6.767 1.806 3.075 0 6.124-1.053 8.637-3.116 4.405-3.615 6.09-9.445 4.292-14.853l-19.498-58.617c31.831-31.149 49.193-70.383 49.193-111.923zm-26.84-115.288c0 7.355-5.984 13.34-13.34 13.34h-8.657v-26.68h5.004 3.653c7.356.001 13.34 5.985 13.34 13.34zm-298.572-32.591c0-5.927 4.822-10.749 10.749-10.749h64.282 13.313c4.142 0 7.5-3.358 7.5-7.5s-3.358-7.5-7.5-7.5h-9.397c-5.089-7.904-7.766-16.994-7.766-26.508 0-27.087 22.037-49.125 49.125-49.125 18.701 0 35.427 10.319 43.848 26.976 3.494 6.897 5.277 14.344 5.277 22.149 0 4.142 3.358 7.5 7.5 7.5s7.5-3.358 7.5-7.5c0-7.089-1.187-14.153-3.471-20.828 3.207-1.028 6.57-1.567 9.961-1.567 18.002 0 32.647 14.646 32.647 32.647 0 5.779-1.513 11.326-4.36 16.256h-7.427c-4.142 0-7.5 3.358-7.5 7.5s3.358 7.5 7.5 7.5h11.5 40.052c5.927 0 10.749 4.822 10.749 10.749v4.251h-274.082zm171.575 45.931h-46.131v-26.68h46.131zm-98.632-.162c-12.407 0-22.5 10.094-22.5 22.5v21.493c0 4.136-3.365 7.5-7.5 7.5s-7.5-3.364-7.5-7.5v-70.511h75v50.061c0 4.136-3.364 7.5-7.5 7.5s-7.5-3.364-7.5-7.5v-1.043c0-12.407-10.093-22.5-22.5-22.5zm-117.566-26.517h37.123 27.943v26.68h-65.066c-7.355 0-13.34-5.984-13.34-13.34s5.984-13.34 13.34-13.34zm4.868 300.543 16.32-49.063c9.887 8.153 20.59 15.364 31.953 21.584zm-30.048-171.916c0-31.123 10.982-61.139 31.772-86.948h58.474v28.831c0 12.407 10.093 22.5 22.5 22.5s22.5-10.093 22.5-22.5v-21.493c0-4.136 3.364-7.5 7.5-7.5s7.5 3.365 7.5 7.5v1.043c0 12.407 10.093 22.5 22.5 22.5s22.5-10.093 22.5-22.5v-8.381h46.132v28.831c0 12.407 10.093 22.5 22.5 22.5s22.5-10.093 22.5-22.5v-21.494c0-4.136 3.364-7.5 7.5-7.5s7.5 3.364 7.5 7.5v58.044c0 12.407 10.093 22.5 22.5 22.5s22.5-10.093 22.5-22.5v-14.975c0-4.142-3.358-7.5-7.5-7.5s-7.5 3.358-7.5 7.5v14.975c0 4.136-3.364 7.5-7.5 7.5s-7.5-3.364-7.5-7.5v-58.044c0-12.407-10.093-22.5-22.5-22.5s-22.5 10.093-22.5 22.5v21.494c0 4.136-3.365 7.5-7.5 7.5s-7.5-3.364-7.5-7.5v-70.511h75v60.124c0 4.142 3.358 7.5 7.5 7.5s7.5-3.358 7.5-7.5v-18.444h2.065c20.789 25.809 31.771 55.824 31.771 86.948 0 86.671-85.282 157.183-190.107 157.183s-190.107-70.512-190.107-157.183zm301.895 144.437c11.363-6.22 22.066-13.431 31.953-21.584l16.32 49.062z"/><path d="m245.13 276.002c-33.224 0-62.12 21.314-71.906 53.038-1.221 3.958.998 8.156 4.957 9.377 3.957 1.22 8.156-.998 9.377-4.957 7.833-25.396 30.97-42.459 57.572-42.459 33.217 0 60.241 27.024 60.241 60.241 0 22.231-12.185 42.583-31.8 53.111-2.435 1.307-3.953 3.846-3.953 6.608v7.524c0 2.566-2.088 4.654-4.654 4.654h-12.834v-5.827c0-4.142-3.358-7.5-7.5-7.5s-7.5 3.358-7.5 7.5v5.827h-12.833c-2.566 0-4.654-2.088-4.654-4.654v-8.081c0-2.717-1.47-5.222-3.841-6.547-15.869-8.867-26.792-24.162-29.969-41.963-.728-4.078-4.62-6.793-8.701-6.065-4.078.728-6.793 4.623-6.065 8.701 3.708 20.776 15.851 38.816 33.577 50.126v3.829c0 10.837 8.817 19.654 19.654 19.654h40.667c10.837 0 19.654-8.816 19.654-19.654v-3.193c22.166-13.67 35.753-37.81 35.753-64.051-.002-41.486-33.755-75.239-75.242-75.239z"/><path d="m237.318 347.232c0-11.405-9.279-20.685-20.685-20.685s-20.685 9.279-20.685 20.685 9.279 20.685 20.685 20.685 20.685-9.279 20.685-20.685zm-26.369 0c0-3.134 2.55-5.685 5.685-5.685s5.685 2.55 5.685 5.685-2.55 5.685-5.685 5.685-5.685-2.55-5.685-5.685z"/><path d="m294.311 347.232c0-11.405-9.279-20.685-20.685-20.685s-20.685 9.279-20.685 20.685 9.279 20.685 20.685 20.685 20.685-9.279 20.685-20.685zm-26.369 0c0-3.134 2.55-5.685 5.685-5.685s5.685 2.55 5.685 5.685-2.55 5.685-5.685 5.685-5.685-2.55-5.685-5.685z"/><path d="m402.4 378.263v-12.921c0-12.407-10.093-22.5-22.5-22.5s-22.5 10.094-22.5 22.5v12.921c0 12.407 10.093 22.5 22.5 22.5s22.5-10.094 22.5-22.5zm-15 0c0 4.136-3.364 7.5-7.5 7.5s-7.5-3.364-7.5-7.5v-12.921c0-4.136 3.364-7.5 7.5-7.5s7.5 3.365 7.5 7.5z"/><path d="m431.897 0c-23.897 0-43.338 19.441-43.338 43.338s19.441 43.339 43.338 43.339 43.338-19.441 43.338-43.338-19.441-43.339-43.338-43.339zm0 71.677c-15.626 0-28.338-12.712-28.338-28.338s12.712-28.339 28.338-28.339 28.338 12.712 28.338 28.338-12.712 28.339-28.338 28.339z"/><path d="m332.985 70.188c13.462 0 24.415-10.953 24.415-24.415s-10.953-24.415-24.415-24.415-24.415 10.952-24.415 24.414 10.953 24.416 24.415 24.416zm0-33.831c5.191 0 9.415 4.224 9.415 9.415s-4.224 9.415-9.415 9.415-9.415-4.224-9.415-9.415 4.224-9.415 9.415-9.415z"/><path d="m309.702 149.119h-7.948c-4.142 0-7.5 3.358-7.5 7.5s3.358 7.5 7.5 7.5h7.948c4.142 0 7.5-3.358 7.5-7.5s-3.357-7.5-7.5-7.5z"/></g></g></svg>