<svg height="512" viewBox="0 0 340 340" width="512" xmlns="http://www.w3.org/2000/svg" xmlns:xlink="http://www.w3.org/1999/xlink"><linearGradient id="linear-gradient" gradientUnits="userSpaceOnUse" x1="169.878" x2="169.878" y1="-6.249" y2="272.416"><stop offset="0" stop-color="#707070"/><stop offset="1" stop-color="#545454"/></linearGradient><linearGradient id="linear-gradient-2" gradientUnits="userSpaceOnUse" x1="146.705" x2="175.523" y1="75.666" y2="382.289"><stop offset="0" stop-color="#4a4a4a"/><stop offset="1" stop-color="#2e2e2e"/></linearGradient><linearGradient id="linear-gradient-3" gradientUnits="userSpaceOnUse" x1="170.928" x2="170.928" y1="26.618" y2="236.275"><stop offset="0" stop-color="#fff"/><stop offset="1" stop-color="#dddded"/></linearGradient><linearGradient id="linear-gradient-4" gradientUnits="userSpaceOnUse" x1="108.637" x2="165.275" y1="179.384" y2="179.384"><stop offset="0" stop-color="#bfbfbf"/><stop offset="1" stop-color="#9d9dad"/></linearGradient><linearGradient id="linear-gradient-5" x1="174.751" x2="228.807" xlink:href="#linear-gradient-4" y1="178.586" y2="178.586"/><linearGradient id="linear-gradient-6" x1="144.362" x2="174.01" xlink:href="#linear-gradient-4" y1="18.076" y2="255.666"/><linearGradient id="linear-gradient-7" x1="169.759" x2="170.321" xlink:href="#linear-gradient-4" y1="189.313" y2="237.834"/><linearGradient id="linear-gradient-8" x1="142.177" x2="171.067" xlink:href="#linear-gradient" y1="13.081" y2="286.686"/><linearGradient id="linear-gradient-9" x1="168.331" x2="171.158" xlink:href="#linear-gradient-2" y1="17.537" y2="167.645"/><linearGradient id="linear-gradient-10" gradientUnits="userSpaceOnUse" x1="168.155" x2="171.16" y1="-.821" y2="108.219"><stop offset="0" stop-color="#e3e3e3"/><stop offset="1" stop-color="#c7c7c7"/></linearGradient><linearGradient id="linear-gradient-11" gradientUnits="userSpaceOnUse" x1="159.578" x2="175.351" y1="155.773" y2="226.525"><stop offset="0" stop-color="#a38baf"/><stop offset="1" stop-color="#5d526d"/></linearGradient><linearGradient id="linear-gradient-12" x1="149.248" x2="152.253" xlink:href="#linear-gradient-10" y1="-.3" y2="108.74"/><linearGradient id="linear-gradient-13" x1="185.582" x2="188.587" xlink:href="#linear-gradient-10" y1="-1.302" y2="107.739"/><path d="m225.343 71.152h-110.931s-56.154 178.436-55.466 256.848h221.863c.691-78.412-55.466-256.848-55.466-256.848z" fill="url(#linear-gradient)"/><path d="m280.809 328c.221-25.207-5.435-60.754-13.21-97.386-.027-.126-.056-.253-.083-.38q-1.284-6.039-2.639-12.1c-.059-.266-.119-.531-.178-.8q-1.359-6.072-2.774-12.128c-.023-.1-.044-.2-.067-.3q-.882-3.774-1.779-7.531a95.085 95.085 0 0 0 -7.441 7.531h-157.722c-1.21-1.666-2.158-2.716-2.693-2.84-1.255-.289-6.524-1.772-12.855-3.406q-.742 3.115-1.472 6.246c-.022.1-.043.192-.065.287q-1.539 6.592-3.017 13.213l-.121.542q-1.477 6.639-2.872 13.254c-.019.089-.039.178-.058.266-7.572 35.974-13.035 70.747-12.817 95.532h43.727l7.21-51.291a19.189 19.189 0 0 1 23.958-15.812 143.051 143.051 0 0 0 36.159 4.871 128.286 128.286 0 0 0 35.344-5.375 19.189 19.189 0 0 1 24.424 15.758l7.077 51.849z" fill="url(#linear-gradient-2)"/><path d="m97.938 230.974s26.241 19.026 71.94 19.026 74.04-19.024 74.04-19.024l-21.741-152.194-29.845-24.848-71.487 2.718z" fill="url(#linear-gradient-3)"/><path d="m162.776 208.523a2.485 2.485 0 0 1 -.64-.084c-40.435-10.674-52.893-53.211-53.4-55.015a2.5 2.5 0 0 1 4.811-1.363c.118.415 12.235 41.609 49.869 51.544a2.5 2.5 0 0 1 -.636 4.918z" fill="url(#linear-gradient-4)"/><path d="m177.25 208.523a2.5 2.5 0 0 1 -.637-4.918c37.6-9.926 47.157-52.551 47.249-52.981a2.5 2.5 0 0 1 4.889 1.049c-.4 1.876-10.323 46.064-50.861 56.766a2.485 2.485 0 0 1 -.64.084z" fill="url(#linear-gradient-5)"/><path d="m222.416 80.454c-2.31.138-4.625.3-6.835.464l.787-6.972-24.036-20.012-70.776 2.691 2.744 24.293c-2.128-.16-4.355-.314-6.58-.448l-19.777 150.5s5.963 4.314 17.131 8.833c4.155-31.393 9.676-64.241 14.512-90.971a5.865 5.865 0 0 1 9.992-3.013 45.5 45.5 0 0 0 12.138 8.771 42.557 42.557 0 0 0 16.561 4.524c.536.031 1.071.05 1.605.062h.061.062c.534-.012 1.068-.031 1.6-.062a42.566 42.566 0 0 0 16.562-4.524 45.5 45.5 0 0 0 12.138-8.771 5.865 5.865 0 0 1 9.992 3.014c4.855 26.833 10.4 59.831 14.56 91.335 12.27-4.649 19.062-9.2 19.062-9.2z" fill="url(#linear-gradient-6)"/><path d="m162.776 197.8a2.485 2.485 0 0 1 -.64-.084c-40.436-10.676-52.893-53.216-53.404-55.016a2.5 2.5 0 0 1 4.811-1.363c.118.415 12.235 41.609 49.869 51.544a2.5 2.5 0 0 1 -.636 4.918z" fill="#3f4556"/><path d="m177.25 197.8a2.5 2.5 0 0 1 -.637-4.918c37.6-9.926 47.157-52.551 47.249-52.981a2.5 2.5 0 0 1 4.889 1.049c-.4 1.876-10.323 46.064-50.861 56.766a2.485 2.485 0 0 1 -.64.084z" fill="#3f4556"/><path d="m189.109 202.891h-11.883v-13.14h-14.452v13.14h-11.883v14.452h11.883v24.395h14.452v-24.395h11.883z" fill="url(#linear-gradient-7)"/><path d="m258.9 141.53a138.522 138.522 0 0 1 -11.142-37.93c-4.422-31.252-20.388-91.6-77.758-91.6s-73.341 60.368-77.76 91.611a138.456 138.456 0 0 1 -11.14 37.919c-25.024 55.03-37.785 108.759-42.417 131.07a19.722 19.722 0 0 0 7.092 19.457c20.52 16.278 44.4 17.734 44.4 17.734l30.282-177.431c8.543-51.637 14.637-64.487 14.637-64.487l34.906-18.1 34.906 18.1s6.1 12.85 14.637 64.487l30.283 177.427s23.879-1.456 44.4-17.734a19.722 19.722 0 0 0 7.092-19.457c-4.633-22.307-17.394-76.036-42.418-131.066z" fill="url(#linear-gradient-8)"/><path d="m198.638 38.39h-57.285s-40.437 24.96-21.821 97.946h.246l.679-3.976c8.543-51.637 14.637-64.487 14.637-64.487l34.906-18.1 34.906 18.1s6.1 12.85 14.637 64.487l.679 3.976c18.616-72.986-21.584-97.946-21.584-97.946z" fill="url(#linear-gradient-9)"/><path d="m203.3 46.46c-5.315-8.634-14.276-16.616-33.41-16.616s-28.144 7.9-33.46 16.535c-4.222 6.859-6.295 24.773-6.295 24.773 1.2 4.586 1.331 14.265 1.527 23.63l.992 15.366a37.571 37.571 0 0 0 37.346 35.311 37.569 37.569 0 0 0 37.345-35.311l1.136-17.568a153.288 153.288 0 0 1 1.427-22.095s-2.387-17.166-6.608-24.025z" fill="#fff"/><path d="m210.1 66.831a38.79 38.79 0 0 0 -5.55-21.17c-5.319-8.634-15.418-17.268-34.55-17.268s-29.233 8.634-34.549 17.268a39.1 39.1 0 0 0 -5.476 23.027l1.687 26.094 2.917-15.114a11.781 11.781 0 0 1 7.351-8.808 78.99 78.99 0 0 1 27.949-5.087 81.2 81.2 0 0 1 28.292 5.254 11.833 11.833 0 0 1 7.4 8.52l2.91 13.033 1.056-16.341.488-7.551c.037-.584.059-1.168.073-1.752.002-.036.002-.07.002-.105z" fill="url(#linear-gradient-10)"/><path d="m209.906 70.485a16.29 16.29 0 0 0 .689-4.677 40.081 40.081 0 0 0 -5.735-20.708c-5.315-8.634-15.849-17.26-34.983-17.26s-29.38 8.906-34.7 17.54a39.212 39.212 0 0 0 -5.671 19.713 27.254 27.254 0 0 0 .623 6.064c6.722-5.037 19.651-11.986 39.871-11.986 19.335 0 32.541 6.357 39.906 11.314z" fill="#fff"/><path d="m165.823 113.182-4.393-5.67a1.3 1.3 0 0 1 1.652-1.932l3.273 1.8a6.835 6.835 0 0 0 6.541.029l3.787-2.042a1.3 1.3 0 0 1 1.628 1.956l-4.755 5.924a4.924 4.924 0 0 1 -7.733-.065z" fill="#4c5263"/><path d="m152.025 126.276a28.087 28.087 0 0 0 -3.44 3.36.409.409 0 0 0 .518.616l.432-.241a41.913 41.913 0 0 1 40.716.016l.4.223a.409.409 0 0 0 .519-.615 28.113 28.113 0 0 0 -39.144-3.359z" fill="#4c5263"/><path d="m189.109 195.297h-11.883v-13.14h-14.452v13.14h-11.883v14.451h11.883v24.396h14.452v-24.396h11.883z" fill="url(#linear-gradient-11)"/><path d="m164.835 90.317s.651 8.646-6.49 12.236a12.072 12.072 0 0 1 -4.933 1.2c-3.984.167-11.7-.657-14.638-8.972z" fill="url(#linear-gradient-12)"/><path d="m146.562 83.3h11.89a6.515 6.515 0 0 1 4.636 1.922 6.109 6.109 0 0 1 1.384 6.531c-.2.507-.433 1.048-.71 1.614a13.669 13.669 0 0 1 -12.341 7.481h-1.121a13.462 13.462 0 0 1 -3.625-.473 14.187 14.187 0 0 1 -6.833-3.971 7.7 7.7 0 0 1 1.051-10.929 11.643 11.643 0 0 1 1.4-1.006 8.161 8.161 0 0 1 4.269-1.169z" fill="#4c5263"/><path d="m153.11 95.574a3.5 3.5 0 0 1 -2.469-5.98 3.743 3.743 0 0 1 .529-.44 4.205 4.205 0 0 1 .6-.319 5.341 5.341 0 0 1 .659-.2 3.5 3.5 0 0 1 4.18 3.44 3.27 3.27 0 0 1 -.069.68 3.051 3.051 0 0 1 -.2.65 3.008 3.008 0 0 1 -.319.61 3.48 3.48 0 0 1 -2.911 1.56z" fill="#fff"/><path d="m175.156 90.317s-.651 8.646 6.49 12.236a12.072 12.072 0 0 0 4.933 1.2c3.984.167 11.7-.657 14.638-8.972z" fill="url(#linear-gradient-13)"/><path d="m193.429 83.3h-11.89a6.515 6.515 0 0 0 -4.636 1.922 6.109 6.109 0 0 0 -1.384 6.531c.2.507.433 1.048.71 1.614a13.669 13.669 0 0 0 12.341 7.481h1.13a13.462 13.462 0 0 0 3.625-.473 14.182 14.182 0 0 0 6.833-3.971 7.7 7.7 0 0 0 -1.058-10.933 11.643 11.643 0 0 0 -1.4-1.006 8.161 8.161 0 0 0 -4.271-1.165z" fill="#4c5263"/><path d="m186.881 95.574a3.5 3.5 0 0 0 2.469-5.98 3.688 3.688 0 0 0 -.529-.44 4.248 4.248 0 0 0 -.6-.319 5.355 5.355 0 0 0 -.66-.2 3.5 3.5 0 0 0 -4.18 3.44 3.27 3.27 0 0 0 .069.68 3.11 3.11 0 0 0 .2.65 2.963 2.963 0 0 0 .32.61 3.472 3.472 0 0 0 2.91 1.56z" fill="#fff"/></svg>